<svg xmlns="http://www.w3.org/2000/svg" width="815.613" height="848.765" viewBox="0 0 815.613 848.765">
  <g id="Group_13331" data-name="Group 13331" transform="translate(-1011.347 -165.454)">
    <g id="Group_129" data-name="Group 129" transform="translate(1518.465 312.818)" opacity="0.49">
      <path id="Path_126" data-name="Path 126" d="M126.459,309.346A137.564,137.564,0,0,1,277.114,186.218a138.074,138.074,0,0,1,92.754,49.8A137.577,137.577,0,0,1,249.588,460a138.117,138.117,0,0,1-92.758-49.846A137.62,137.62,0,0,1,126.459,309.346ZM210.1,366.618a69,69,0,0,0,46.379,24.9A68.763,68.763,0,0,0,316.6,279.553a69.046,69.046,0,0,0-46.379-24.9A68.761,68.761,0,0,0,210.1,366.618Z" transform="translate(-125.771 -185.528)" fill="none" stroke="#6328ff" stroke-miterlimit="10" stroke-width="1.401"/>
      <path id="Path_127" data-name="Path 127" d="M180.983,410.152a136.061,136.061,0,0,0,48.157,37.486l29.838-61.986a67.878,67.878,0,0,1-24.723-19.034,68.775,68.775,0,0,1,60.12-111.966,67.922,67.922,0,0,1,24.234,7.115L348.4,199.781a135.808,135.808,0,0,0-47.134-13.563A137.561,137.561,0,0,0,180.983,410.152Z" transform="translate(-149.924 -185.528)" fill="none" stroke="#6328ff" stroke-miterlimit="10" stroke-width="1.401"/>
    </g>
    <rect id="Rectangle_62" data-name="Rectangle 62" width="179.872" height="112.429" transform="translate(1012.201 654.969)" fill="none" stroke="#b77fff" stroke-miterlimit="10" stroke-width="1.091"/>
    <rect id="Rectangle_63" data-name="Rectangle 63" width="91.786" height="5.895" transform="translate(1086.223 681.52)" fill="#dbbeff"/>
    <rect id="Rectangle_64" data-name="Rectangle 64" width="91.786" height="5.894" transform="translate(1086.223 699.215)" fill="#dbbeff"/>
    <rect id="Rectangle_65" data-name="Rectangle 65" width="91.786" height="5.895" transform="translate(1086.223 716.914)" fill="#dbbeff"/>
    <rect id="Rectangle_66" data-name="Rectangle 66" width="91.786" height="5.895" transform="translate(1086.223 734.611)" fill="#dbbeff"/>
    <rect id="Rectangle_67" data-name="Rectangle 67" width="41.989" height="63.409" transform="translate(1030.908 676.723)" fill="none" stroke="#dbbeff" stroke-miterlimit="10" stroke-width="1.341"/>
    <g id="Group_130" data-name="Group 130" transform="translate(1012.201 799.135)">
      <rect id="Rectangle_68" data-name="Rectangle 68" width="179.872" height="112.429" fill="none" stroke="#b77fff" stroke-miterlimit="10" stroke-width="1.091"/>
      <rect id="Rectangle_69" data-name="Rectangle 69" width="91.786" height="5.895" transform="translate(15.914 24.397)" fill="#dbbeff"/>
      <rect id="Rectangle_70" data-name="Rectangle 70" width="91.786" height="5.895" transform="translate(15.914 42.095)" fill="#dbbeff"/>
      <rect id="Rectangle_71" data-name="Rectangle 71" width="91.786" height="5.895" transform="translate(15.914 59.792)" fill="#dbbeff"/>
      <rect id="Rectangle_72" data-name="Rectangle 72" width="91.786" height="5.895" transform="translate(15.914 77.49)" fill="#dbbeff"/>
      <path id="Path_128" data-name="Path 128" d="M342.5,371.787l-9.271-21.694a23.594,23.594,0,1,0,11.179-1.819Z" transform="translate(-197.879 -317.89)" fill="#dbbeff"/>
    </g>
    <g id="Group_131" data-name="Group 131" transform="translate(1011.893 513.363)">
      <rect id="Rectangle_73" data-name="Rectangle 73" width="179.872" height="112.428" fill="none" stroke="#b77fff" stroke-miterlimit="10" stroke-width="1.091"/>
      <rect id="Rectangle_74" data-name="Rectangle 74" width="126.522" height="5.895" transform="translate(24.606 42.64)" fill="#dbbeff"/>
      <rect id="Rectangle_75" data-name="Rectangle 75" width="91.787" height="5.895" transform="translate(41.973 60.483)" fill="#dbbeff"/>
    </g>
    <path id="Path_129" data-name="Path 129" d="M259.165,286.738v.016l-.133.14c-.327.346-3.911,13.217-4.042,13.7l12.115,7.02c.352-.352,9.737-9.861,9.877-10.315l.054-.187.013-.006,13.115,1.746.01.013,0,.194c.016.473,6.582,12.109,6.829,12.544l13.531-3.6c0-.5-.089-13.858-.311-14.277l-.092-.171,0-.013,10.509-8.039.016,0,.14.133c.346.324,13.217,3.908,13.7,4.042l7.02-12.115c-.352-.356-9.861-9.737-10.318-9.877l-.184-.054-.006-.016,1.746-13.112.013-.009.19-.006c.476-.016,12.112-6.578,12.547-6.829l-3.6-13.531c-.5,0-13.858.089-14.281.314l-.168.089h-.013L319.4,224.015V224l.133-.137c.327-.349,3.911-13.217,4.042-13.7l-12.115-7.023c-.352.356-9.734,9.864-9.877,10.318l-.054.184-.013.01L288.409,211.9l-.013-.013,0-.191c-.016-.476-6.582-12.112-6.829-12.544l-13.531,3.6c0,.5.089,13.858.311,14.281l.092.168,0,.016-10.509,8.036h-.016l-.137-.133c-.349-.324-13.22-3.911-13.7-4.042L237.048,233.2c.356.352,9.865,9.737,10.318,9.877l.184.054.01.013-1.749,13.115-.013.01-.19,0c-.476.016-12.112,6.582-12.544,6.829l3.6,13.531c.5,0,13.858-.089,14.281-.311l.168-.092.016,0Zm5.759-45.48a28.158,28.158,0,1,1,10.242,38.483A28.155,28.155,0,0,1,264.924,241.258Z" transform="translate(1107.475 156.93)" fill="none" stroke="#b77fff" stroke-miterlimit="10" stroke-width="1.401"/>
    <g id="Group_134" data-name="Group 134" transform="translate(1609.439 578.164)">
      <g id="Group_132" data-name="Group 132" transform="translate(0)">
        <path id="Path_130" data-name="Path 130" d="M148.542,295.041c-.3.489,44.052,61.152,99.825,29.695S148.542,295.041,148.542,295.041Z" transform="translate(-148.54 -212.733)" fill="#b77fff"/>
        <path id="Path_131" data-name="Path 131" d="M180.916,408.485c.565-.006,27.672-70.3-28.358-101.295S180.916,408.485,180.916,408.485Z" transform="translate(-27.847 -196.501)" fill="#b77fff"/>
        <path id="Path_132" data-name="Path 132" d="M142.813,277.817c-.4.245,5.21,58.951,55.681,56.291S142.813,277.817,142.813,277.817Z" transform="translate(-81.965 -250.154)" fill="#b77fff"/>
        <path id="Path_133" data-name="Path 133" d="M179.209,269.113c-.276-.378-57.535,10.671-50.278,61.275S179.209,269.113,179.209,269.113Z" transform="translate(-3.04 -269.104)" fill="#b77fff"/>
        <path id="Path_134" data-name="Path 134" d="M199.979,318.957c.241-.4-31.6-49.8-75.115-23.8S199.979,318.957,199.979,318.957Z" transform="translate(17.541 -228.877)" fill="#b77fff"/>
        <path id="Path_135" data-name="Path 135" d="M191.426,355.94c.416-.213-.838-59.18-51.363-60.348S191.426,355.94,191.426,355.94Z" transform="translate(-8.024 -211.533)" fill="#b77fff"/>
        <path id="Path_136" data-name="Path 136" d="M151.157,344.94c.025.47,53.817,23.2,75.337-23.072S151.157,344.94,151.157,344.94Z" transform="translate(-126.023 -188.964)" fill="#b77fff"/>
        <path id="Path_137" data-name="Path 137" d="M179.28,292.546s-25.545,21.815-29.514,45.83-7.813,123.992-7.813,123.992v59.824" transform="translate(-46.47 -218.121)" fill="none" stroke="#52538c" stroke-miterlimit="10" stroke-width="1.037"/>
      </g>
      <g id="Group_133" data-name="Group 133" transform="translate(58.255 299.693)">
        <path id="Path_138" data-name="Path 138" d="M142.8,365.876l1.067,11.917,7.826,87.465h51.492l7.826-87.465,1.067-11.917Z" transform="translate(-140.207 -358.33)" fill="#6328ff"/>
        <path id="Path_139" data-name="Path 139" d="M142.8,365.876l1.067,11.917H211.01l1.067-11.917Z" transform="translate(-140.207 -358.33)" fill="#6600fc"/>
        <rect id="Rectangle_76" data-name="Rectangle 76" width="74.556" height="14.107" fill="#6328ff"/>
      </g>
    </g>
    <ellipse id="Ellipse_9" data-name="Ellipse 9" cx="4.244" cy="4.692" rx="4.244" ry="4.692" transform="translate(1628.328 980.096)" fill="#6328ff"/>
    <ellipse id="Ellipse_10" data-name="Ellipse 10" cx="4.244" cy="4.692" rx="4.244" ry="4.692" transform="translate(1612.436 980.096)" fill="#6328ff"/>
    <ellipse id="Ellipse_11" data-name="Ellipse 11" cx="4.244" cy="4.692" rx="4.244" ry="4.692" transform="translate(1590.512 980.096)" fill="#6328ff"/>
    <ellipse id="Ellipse_12" data-name="Ellipse 12" cx="4.244" cy="4.692" rx="4.244" ry="4.692" transform="translate(1573.361 980.096)" fill="#6328ff"/>
    <path id="Path_140" data-name="Path 140" d="M165.334,305.04s16.036,59.456,19.888,72.524c2.883,9.794.432,26.844-23.967,26.844" transform="translate(1494.791 387.217)" fill="none" stroke="#a2aedb" stroke-linecap="round" stroke-linejoin="round" stroke-width="1.401"/>
    <path id="Path_141" data-name="Path 141" d="M205.355,281.562c-.149,1.565-.178,45.687,6.483,68.736,2.489,8.62,4.054,10.487,4.054,10.487s-24.348,6.55-33.422-11.052c-11.188-21.694-24.618-47.795-11.83-60.4C185.233,274.955,205.355,281.562,205.355,281.562Z" transform="translate(1451.801 332.859)" fill="#6328ff"/>
    <rect id="Rectangle_77" data-name="Rectangle 77" width="5.396" height="273.722" transform="translate(1458.125 940.477) rotate(175.36)" fill="#20284d"/>
    <path id="Path_142" data-name="Path 142" d="M276.214,284.334c2.334,12.852,4.254,32.473,23.355,32.479,14.2,0,42.534-.006,42.534-.006" transform="translate(973.885 342.184)" fill="none" stroke="#a2aedb" stroke-linecap="round" stroke-linejoin="round" stroke-width="1.401"/>
    <g id="Group_136" data-name="Group 136" transform="translate(1254.352 405.041)">
      <path id="Path_143" data-name="Path 143" d="M203.1,380.152l5.32,10.835-12.165,6.087L188.41,385.65Z" transform="translate(131.983 145.535)" fill="#f8b58f"/>
      <path id="Path_144" data-name="Path 144" d="M186.032,396.92l1.442-13.577H173.795V396.92Z" transform="translate(199.33 152.477)" fill="#f8b58f"/>
      <g id="Group_135" data-name="Group 135" transform="translate(0)">
        <path id="Path_145" data-name="Path 145" d="M308.937,268.879c.289.191-36.149,121.03-36.149,121.03s-1.079,4.111-6.734,4.883-43.95,0-43.95,0,9.052-13.366,24.443-12.595,17.192-.5,17.192-.5l14.223-132.355Z" transform="translate(-75.508 -138.957)" fill="#f4a087"/>
        <path id="Path_146" data-name="Path 146" d="M243.618,229.789l14.595,23.529s-19.278,22.364-19.278,21.592S226.6,245.1,226.6,245.1Z" transform="translate(-39.049 -181.487)" fill="#f4a086"/>
        <path id="Path_147" data-name="Path 147" d="M280.18,240.516s-19.084,16.846-33.736,12.22-19.532-11.731-13.106-20.259,25.186-10.842,34.441-11.871,10.28-6.94,17.221-5.912,13.738,5.912,14.195,14.649,0,33.533,0,33.533l-.057,4.508-6.556-9.509-.435-8.194-4.061.483Z" transform="translate(-92.826 -214.575)" fill="#242b58"/>
        <path id="Path_148" data-name="Path 148" d="M267.951,237.9s7.194-6.169,8.994-1.8-4.5,9.512-4.5,9.512,7.328,6.169,6.556,9.509-15.938,28.276-25.7,25.7-23.647-31.873-22.618-41.124S249.959,217.6,253.3,220.681,267.951,237.9,267.951,237.9Z" transform="translate(-72.691 -202.312)" fill="#f8b690"/>
        <path id="Path_149" data-name="Path 149" d="M284.512,228.751c-.257.771-24.634,24.024-38.042,16.709s-11.052-16.709-11.052-16.709l45.239-10.83Z" transform="translate(-92.853 -207.299)" fill="#242b58"/>
        <path id="Path_150" data-name="Path 150" d="M313.667,292.726c-.514-1.029-41.639-50.633-66.828-53.719s-35.984-1.543-35.984-1.543l-19.278,21.592s-9.464,40.172,19.278,85.592c28.787,45.493,61.075,58.7,61.075,58.7L326.777,300.18Z" transform="translate(8.308 -165.633)" fill="#cef0f2"/>
        <path id="Path_151" data-name="Path 151" d="M425.118,250.817l38.6,25.4s-40.254,34.187-78.344,49.608-118.8,37.013-127.024,30.073c-3.6-2.4-7.477-5.143-12.852-15.163,0,0-33.873-6.353-25.961-8.483,6.683-.514,49.093-9,52.436,8.226C361.935,318.366,385.375,287.2,425.118,250.817Z" transform="translate(-218.34 -135.754)" fill="#f8b690"/>
      </g>
      <path id="Path_152" data-name="Path 152" d="M214.041,295.268c-1.375-.8-49.176,89.646-40.689,121.525,17.078,64.142,86.963,153.48,86.963,153.48l14.693-5.5s-37.143-139.74-39.432-153.026,20.618-18.325,30.695-12.369l46.734,177.765h15.576s5.039-113.623,0-147.528-1.883-60.018,2.241-81.55-17.817-41.235-17.817-41.235Z" transform="translate(60.077 -39.09)" fill="#222b54"/>
      <path id="Path_153" data-name="Path 153" d="M230.839,382.95s10.963,7.305,10.722,10.718-10.722,9.744-10.722,9.744l-3.41-2.194-11.693,13.4h-28.99s-3.654-2.438,0-4.143,25.04-11.693,25.04-11.693l4.721-12.347C220.92,389.738,228.3,386.858,230.839,382.95Z" transform="translate(109.278 151.621)" fill="#52538c"/>
      <path id="Path_154" data-name="Path 154" d="M225.954,386.019s-4.458,7.55-13.677,3.41c0,0-12.388,6.334-17.017,8.039s-20.707,5.115-22.167,6.089-.959,4.388-.959,4.388h33.359s9.258-5.118,11.938-4.629,1.686,4.629,1.686,4.629h12.522s1.022-13.573,0-15.836C230.525,389.645,229.122,386.749,225.954,386.019Z" transform="translate(160.256 158.296)" fill="#52538c"/>
    </g>
    <path id="Path_155" data-name="Path 155" d="M182.99,360.438h79.525a15.214,15.214,0,0,0,15.17-15.17h0a15.214,15.214,0,0,0-15.17-15.17H182.99a15.214,15.214,0,0,0-15.17,15.17h0A15.214,15.214,0,0,0,182.99,360.438Z" transform="translate(1382.441 441.717)" fill="#6328ff"/>
    <g id="Group_137" data-name="Group 137" transform="translate(1407.969 450.398)">
      <path id="Path_156" data-name="Path 156" d="M198.65,413.186c6.816-1.6,12.6-5.962,18.167-10.214a29.071,29.071,0,0,0,4.515-3.965,24.264,24.264,0,0,0,4.3-8.461,7.578,7.578,0,0,0,.422-4.823,3.093,3.093,0,0,0-2.788-2.07c-1.146.124-1.88,1.479-2.6,2.318a75.842,75.842,0,0,0-5.175,6.886c-3.2,4.7-6.137,9.61-9.849,13.934A35.671,35.671,0,0,1,198.65,413.186Z" transform="translate(-72.029 107.771)" fill="#f8b690"/>
      <path id="Path_157" data-name="Path 157" d="M218.15,287.049c-.086.137-.171.273-.257.406-3.975,6.274-9.563,11.36-13.954,17.354-7.083,9.658-9.645,23.688-1.959,33.73,5.245,6.851,12.338,8.925,20.707,8.74a26.257,26.257,0,0,0,9.233-1.413,21.51,21.51,0,0,0,8.7-7.188c2.832-3.673,5.118-8.223,4.362-12.8-.606-3.667-3.048-6.715-5.013-9.871a31.027,31.027,0,0,1-3.715-8.226c-1.994-7.347-.457-15.182,1.851-22.437,2.292-7.2,5.512-14.29,6.575-21.827.318-2.238.9-5.877-.7-7.81-2.359-2.861-10.09-4.15-12.3-.673-1.394,2.194-2.029,5.829-3.032,8.293l-4.41,10.839A85.929,85.929,0,0,1,218.15,287.049Z" transform="translate(-86.548 -176.491)" fill="#232c54"/>
      <path id="Path_158" data-name="Path 158" d="M217.962,398.342c.381.3-8.277,8.712-8.277,8.712l-13-27.777,16.706-2.156Z" transform="translate(-57.468 93.587)" fill="#f8b690"/>
      <path id="Path_159" data-name="Path 159" d="M284.764,529.844s-91.081-130.558-87.89-148.121,43.569-56.989,79.721-70.241c0,0-8.594,90.36,5.242,139.546l21.488,76.4Z" transform="translate(-143.152 -49.171)" fill="#2e3961"/>
      <path id="Path_160" data-name="Path 160" d="M336.846,273.528a4.283,4.283,0,0,0-1.661,1.584c-2.159,3.556-3.88,7.474-5.8,11.163q-6.872,13.163-13.776,26.307-.824,1.572-1.651,3.146s-96.164-2.308-99.434,0-16.792,15.83-16.792,15.83,4.334,1.775,6.543,0c12.211-9.814,31.835-3.924,31.835-3.924q22.793,2.71,45.579,5.432,15.659,1.872,31.317,3.753,6.015.729,12.036,1.457c2.2.27,4.232,1.149,6.347,1.492,3.505.565,5.315-2.9,6.556-5.775a281.271,281.271,0,0,0,16.843-52.951,3.068,3.068,0,0,0,.032-1.708,2.974,2.974,0,0,0-1.311-1.311C349.911,275.766,341.218,271.172,336.846,273.528Z" transform="translate(-197.729 -133.139)" fill="#f49f86"/>
      <path id="Path_161" data-name="Path 161" d="M215.8,248.487c-.235.556,0,25.12,0,25.12s-3.334,11.341-11.4,10.249-11.779-5.232-11.779-5.232V253.548Z" transform="translate(-42.381 -186.178)" fill="#ee9c84"/>
      <path id="Path_162" data-name="Path 162" d="M210.095,237.146c-1.981.19-4.038.384-6.032.565-6.82.616-11.868,6.105-11.414,12.392l2.137,29.66c.581,8.039,9.658,13.182,17.69,9.966,10.449-4.181,18.967-8.883,19.211-9.56.368-1.016,0-32.914,0-32.914s-4.429-4.75-6.274-.34c-.645,1.546-1.292.635-1.857-1.2A12.665,12.665,0,0,0,210.095,237.146Z" transform="translate(-58.434 -210.98)" fill="#f8b690"/>
      <path id="Path_163" data-name="Path 163" d="M212.446,255.43c-6.067,4.864-15.433,11.258-23.431,8.328a7.117,7.117,0,0,1-.768,2.051c-5.74,8.848-13.036,17.036-15.843,27.2-3.432,12.43.429,25.583,4.464,37.829,1.689,5.124,4.816,9.728,6.366,14.76,1.86,6.048-.21,11.833-.187,17.811.041,10.8-2.565,21.437-4.819,31.917-1.365,6.362-2.61,12.753-3.807,19.151-1.156,6.172-3.5,13.271-3.432,19.513,3.426-.743,6.9-.448,10.41-.5l11.477-.162q15.268-.21,30.539-.425l54.218-.752c3.175-.044,4.064.025,3.162-3.229-4.1-14.786-12.442-27.818-17.4-42.378a133.868,133.868,0,0,1-7.366-36.838c-.425-9.2.311-18.414-.006-27.615a106.356,106.356,0,0,0-3.426-23.723c-1.667-6.251-3.73-14.516-7.626-19.713a70.875,70.875,0,0,0-14.6-14.278,59.651,59.651,0,0,0-8.674-5.324C220.558,258.487,213.431,254.639,212.446,255.43Z" transform="translate(-39.028 -171.309)" fill="#c7d3ff"/>
      <path id="Path_164" data-name="Path 164" d="M373.2,292.443c0-.308-47.753-13.173-47.753-13.173l-20.507,42.3s-94.412-15.481-99.644-14.608-16.573,3.051-18.535,5.451-3.051,18.1-3.051,18.1,1.962-2.616,4.359-6.54,3.924,3.924,10.249,1.743a99.682,99.682,0,0,0,13.084-5.886s89.618,46.88,110.334,40.994S373.2,292.443,373.2,292.443Z" transform="translate(-171.497 -119.228)" fill="#f7b690"/>
      <path id="Path_165" data-name="Path 165" d="M405.188,311s7.045,33.276-27.841,51.068-108.492,41.515-118.96,43.258c0,0-50.252,113.223-59.818,133.983-7.877,17.091-8.2,20.145-8.2,20.145l-19.891-2.375s28.606-140.241,37.676-161.869,64.447-73.27,87.344-82.684Z" transform="translate(-162.055 -50.217)" fill="#485896"/>
      <path id="Path_166" data-name="Path 166" d="M230.725,383.037c.572-.289,1.1-.048,2.168.422a21.933,21.933,0,0,1,6.836,4.305c2.026,2.038,1.841,5.248,2.546,7.918a48.692,48.692,0,0,0,3.877,10.023,17.955,17.955,0,0,1-6.477,2.819c-.283-4.94-5.531-8.4-8.864-11.334-4.451,4.34-8.928,8.709-12.573,13.744-1.327,1.835-2.635,3.835-4.673,4.819a12.163,12.163,0,0,1-2.632.81q-6.5,1.467-13,2.943c-1.3.292-8.3-.572-5.331-2.632,5.988-4.15,12.56-7.439,18.24-12.03,3.572-2.889,6.524-6.62,9.658-9.966q3.248-3.472,6.258-7.159c1.035-1.267,1.981-2.629,3.048-3.867A3.227,3.227,0,0,1,230.725,383.037Z" transform="translate(-70.371 106.181)" fill="#222b55"/>
      <path id="Path_167" data-name="Path 167" d="M161.334,252.57a5.513,5.513,0,0,0,.127.838c.794,6.064,3.93,9.242,10.163,9.575,6.356.3,12.63-1.5,18.694-3.092,3.68-.962,7.737,2.048,10.29,4.473,1.086,1.045,1.8,2.553,3.261,3.178,1.591.67,3.1-.251,4.435,1.381a5.234,5.234,0,0,1,.835,4.1,10.465,10.465,0,0,1-1.8,3.848,8.007,8.007,0,0,0-1.213,2.092,7.027,7.027,0,0,0,.124,3.721c.794,3.721.46,6.274.46,9.995a70.219,70.219,0,0,1-4.518,16.982c-3.6,9.575-8.156,18.986-9.325,29.152-.67,6.02.041,12.63,4.054,17.189,4.477,5.016,11.753,6.273,18.446,7.067,5.353.629,11.5,1.632,14.262,6.274a18.14,18.14,0,0,1,1.883,6.315c1.3,7.779,2.886,15.6,6.147,22.793a40.7,40.7,0,0,0,11.252,15.268c2.257,1.8,4.893,3.092,7.026,5.061a62.519,62.519,0,0,1,5.435,6.524,50.07,50.07,0,0,0,5.94,6.315,31.994,31.994,0,0,0,5.1,3.762,23.072,23.072,0,0,0,14.389,3.432c5.226-.587,9.995-3.388,13.8-7.07a32.918,32.918,0,0,0,8.029-12.63,31.051,31.051,0,0,0,1.13-17.021,49.47,49.47,0,0,0-5.521-13.217,66.133,66.133,0,0,0-9.452-13.719c-6.9-7.318-16.687-11.211-23-19.2a43.594,43.594,0,0,1-6.442-12.09,91.471,91.471,0,0,1-3.054-9.953c-4.057-16.227-4.181-33.041-6.734-49.519a100.307,100.307,0,0,0-6.274-23.589c-7.359-17.44-26.221-29.107-44.458-31.2-7.947-.921-18.151-1.422-26.809,1.13-6.147,1.8-11.5,5.229-14.554,11.166-.337.711-.629,1.422-.921,2.134A18.626,18.626,0,0,0,161.334,252.57Z" transform="translate(-37.443 -228.861)" fill="#232c54"/>
      <path id="Path_168" data-name="Path 168" d="M211.353,237.8h.241" transform="translate(-97.651 -209.412)" fill="#232c54"/>
      <path id="Path_169" data-name="Path 169" d="M161.666,249.359a5.453,5.453,0,0,0,.127.838c2.886,3.051,7.109,4.683,11,3.051a44.928,44.928,0,0,0,4.892-3.01c7.906-4.642,18.068-1.3,25.932,3.346,9.785,5.772,18.862,14.385,20.869,25.555,2.216,12.754-5.27,25.345-4.892,38.267.375,12.715,8.28,23.964,17.065,33.165,5.6,5.816,11.668,11.169,16.56,17.567a59.837,59.837,0,0,1,12.255,33.794c.333,8.867-1.213,18.487,2.175,26.475a31.994,31.994,0,0,0,5.1,3.762,23.072,23.072,0,0,0,14.389,3.432c5.226-.587,9.995-3.388,13.8-7.07a32.918,32.918,0,0,0,8.029-12.63,29.459,29.459,0,0,0,.752-10.122c-1.045-9.493-7.359-17.608-14.681-23.8-7.277-6.191-15.684-10.918-23-17.024A79.854,79.854,0,0,1,243.6,304.231c.01-5.058.5-10.118.232-15.179a39.4,39.4,0,0,0-3.159-12.36,83.647,83.647,0,0,0-4.223-9.452c-2.953-5.369-7.039-10.01-11.09-14.6-1.416-1.607-2.838-3.213-4.407-4.67a59.514,59.514,0,0,0-6.89-5.277,80.847,80.847,0,0,0-10.518-6.372c-4.4-2.118-9.61-4.324-14.436-5.146-9.547-1.619-19.11-1.676-24.8,7.363A16.463,16.463,0,0,0,161.666,249.359Z" transform="translate(-37.776 -225.65)" fill="#b77fff" opacity="0.493"/>
      <path id="Path_170" data-name="Path 170" d="M190.457,236.608a27.458,27.458,0,0,0,3.715,24.561c2.384,3.28,5.47,5.978,8.15,9.023s5.019,6.629,5.423,10.664c.381,3.81-1.013,7.582-2.807,10.96s-4.013,6.544-5.505,10.068a27.149,27.149,0,0,0-2.143,10.236,21.833,21.833,0,0,0,2.981,11.668,15.763,15.763,0,0,0,9.483,7.172" transform="translate(-25.045 -212.013)" fill="none" stroke="#354380" stroke-miterlimit="10" stroke-width="1.317"/>
    </g>
    <rect id="Rectangle_78" data-name="Rectangle 78" width="247.971" height="6.622" transform="translate(1212.951 661.219)" fill="#20284d"/>
    <rect id="Rectangle_79" data-name="Rectangle 79" width="5.396" height="273.722" transform="translate(1239.863 667.652) rotate(4.64)" fill="#20284d"/>
    <rect id="Rectangle_80" data-name="Rectangle 80" width="30.929" height="5.073" transform="translate(1377.043 656.141)" fill="#c8ccdb"/>
    <rect id="Rectangle_81" data-name="Rectangle 81" width="4.441" height="125.789" transform="translate(1256.613 615.193) rotate(171.386)" fill="#a2aedb"/>
    <rect id="Rectangle_82" data-name="Rectangle 82" width="9.739" height="147.395" transform="translate(1255.59 628.625) rotate(171.383)" fill="#c8ccdb"/>
    <g id="Group_140" data-name="Group 140" transform="translate(1351.9 786.619)">
      <g id="Group_138" data-name="Group 138" transform="translate(0)">
        <path id="Path_171" data-name="Path 171" d="M312.839,510.807s53.046-40.064,40.613-81.315-31.495-30.006-31.495-30.006-4.146-81.176-32.327-61.71-51.389,60.479-48.9,63.406-17.408-27.1-17.408,17.109,38.959,92.516,38.959,92.516C275.54,515.278,312.839,510.807,312.839,510.807Z" transform="translate(-223.319 -334.762)" fill="#b77fff"/>
        <path id="Path_172" data-name="Path 172" d="M257.687,341.269c2.035,1.778-20.338,104.762-12.976,134.133" transform="translate(-188.976 -320.608)" fill="none" stroke="#fff" stroke-linecap="round" stroke-linejoin="round" stroke-width="0.896"/>
        <path id="Path_173" data-name="Path 173" d="M283.244,361.819c.94.635-23.2,36.248-51.728,45.744" transform="translate(-177.273 -275.915)" fill="none" stroke="#fff" stroke-linecap="round" stroke-linejoin="round" stroke-width="0.896"/>
        <path id="Path_174" data-name="Path 174" d="M247.817,358.093S265.3,384.454,292.04,396.2" transform="translate(-237.797 -284.018)" fill="none" stroke="#fff" stroke-linecap="round" stroke-linejoin="round" stroke-width="0.896"/>
      </g>
      <g id="Group_139" data-name="Group 139" transform="translate(21.569 175.215)">
        <path id="Path_175" data-name="Path 175" d="M234.344,392.452l2.556,6.181,13.241,32.06,34.814-.044,13.905-32.016,2.658-6.181Z" transform="translate(-226.069 -384.507)" fill="#6328ff"/>
        <path id="Path_176" data-name="Path 176" d="M234.344,391.821v2L236.9,400h61.96l2.658-6.181v-2Z" transform="translate(-226.069 -385.878)" fill="#6600fc"/>
        <path id="Path_177" data-name="Path 177" d="M239.655,401.809l73.205-3.929,0-7.931-79.922.032Z" transform="translate(-232.934 -389.949)" fill="#6328ff"/>
      </g>
    </g>
    <g id="Group_141" data-name="Group 141" transform="translate(1011.893 358.203)">
      <rect id="Rectangle_83" data-name="Rectangle 83" width="15.393" height="114.447" transform="translate(63.769 8.119)" fill="#b77fff" opacity="0.501"/>
      <rect id="Rectangle_84" data-name="Rectangle 84" width="15.392" height="100.473" transform="translate(38.482 22.092)" fill="#b77fff" opacity="0.501"/>
      <rect id="Rectangle_85" data-name="Rectangle 85" width="15.392" height="122.171" transform="translate(12.094)" fill="#b77fff" opacity="0.501"/>
      <rect id="Rectangle_86" data-name="Rectangle 86" width="15.393" height="96.781" transform="translate(92.222 25.784)" fill="#b77fff" opacity="0.501"/>
      <rect id="Rectangle_87" data-name="Rectangle 87" width="15.393" height="105.953" transform="translate(120.675 16.612)" fill="#b77fff" opacity="0.501"/>
      <rect id="Rectangle_88" data-name="Rectangle 88" width="15.392" height="100.473" transform="translate(149.128 22.092)" fill="#b77fff" opacity="0.501"/>
      <path id="Path_178" data-name="Path 178" d="M481.915,316.825s-37.416-44.264-37.673-41.7-22.8,15.744-22.8,15.744l-47.827-63.574-18.691,44.766L315.894,202.38" transform="translate(-303.8 -194.26)" fill="none" stroke="#b77fff" stroke-linecap="round" stroke-linejoin="round" stroke-width="0.823"/>
      <path id="Path_179" data-name="Path 179" d="M494.009,202.38V316.827H315.894" transform="translate(-315.894 -194.261)" fill="none" stroke="#b77fff" stroke-linecap="round" stroke-linejoin="round" stroke-width="0.929"/>
    </g>
    <path id="Path_180" data-name="Path 180" d="M268.271,312.4l-.006.013-.159.108c-.391.273-6.645,12.077-6.874,12.522l10.334,9.445c.419-.27,11.62-7.553,11.852-7.969l.1-.168.013-.006,12.439,4.511.006.013-.038.187c-.086.47,3.842,13.239,3.994,13.715l13.989-.629c.1-.489,2.873-13.56,2.746-14.017l-.054-.184.006-.016,11.982-5.6.016,0,.1.159c.273.394,12.077,6.645,12.522,6.877l9.445-10.337c-.27-.419-7.553-11.62-7.969-11.852l-.168-.092,0-.016,4.508-12.439.013-.006.187.038c.47.086,13.239-3.842,13.716-3.991l-.629-13.989c-.489-.108-13.557-2.873-14.017-2.746l-.184.054-.013-.006-5.607-11.985,0-.016.162-.1c.391-.273,6.642-12.077,6.874-12.522l-10.337-9.445c-.419.27-11.617,7.553-11.852,7.969l-.092.168-.016.006-12.436-4.511-.01-.013.038-.187c.086-.47-3.842-13.239-3.991-13.716l-13.988.629c-.108.489-2.873,13.557-2.746,14.017l.054.184-.006.013-11.985,5.607-.013,0-.108-.159c-.27-.394-12.077-6.645-12.519-6.877L258.1,255.37c.27.419,7.556,11.617,7.969,11.852l.168.092.006.016-4.508,12.436-.016.01-.187-.038c-.47-.086-13.236,3.842-13.716,3.991l.629,13.989c.489.108,13.56,2.873,14.017,2.746l.184-.054.016.006Zm15.338-43.2a28.158,28.158,0,1,1,1.787,39.781A28.156,28.156,0,0,1,283.608,269.2Z" transform="translate(1045.174 227.541)" fill="none" stroke="#6328ff" stroke-miterlimit="10" stroke-width="1.401" opacity="0.376"/>
    <g id="Group_144" data-name="Group 144" transform="translate(1181.695 734.473)">
      <g id="Group_142" data-name="Group 142">
        <path id="Path_181" data-name="Path 181" d="M309.849,494.967c4.454-.406,9.458-2.9,14.484-5.753a281.417,281.417,0,0,0,4.721-37.464,237.153,237.153,0,0,0-23.342,4.67c4.34-1.13,13.938-7.077,23.732-12.01q.348-8.1.359-16.6c0-22.646-1.949-43.505-5.226-60.193a111.083,111.083,0,0,0-19.351,7.166c4.21-2.061,10.722-9.28,17.522-15.471-4.619-18.824-11.122-30.568-18.329-30.568-11.6,0-21.38,30.381-24.409,71.854,7.782,7.185,15.214,16.541,18.8,20.326-2.629-2.768-10.915-5.019-19.5-7.6q-.267,7.1-.273,14.487a351.409,351.409,0,0,0,2.734,44.715c8.569,5.41,16.782,11.963,21.237,13.236-6.658-1.9-13.36-3.651-20.088-5.305,4.492,27.879,12.439,46.423,21.5,46.423,7.531,0,14.293-12.817,18.945-33.149Q316.607,494.347,309.849,494.967Z" transform="translate(-204.465 -295.698)" fill="#222b54"/>
        <path id="Path_182" data-name="Path 182" d="M284.3,510.675c4.432.651,10.045-.956,15.792-2.972a396.311,396.311,0,0,0,16.243-41.82,205.311,205.311,0,0,0-24.015-.489c4.546-.209,15.678-4.629,26.682-7.839q2.862-9.206,5.524-18.96c7.061-25.993,11.677-50.427,13.712-70.4a101.424,101.424,0,0,0-20.935,3.375c4.711-1.308,13.258-7.966,21.761-13.366,1.4-22.767-1.219-37.876-8.188-39.683-11.211-2.908-30.133,29.511-45.995,76.359,5.283,10.2,9.547,22.8,11.833,28.044-1.68-3.838-8.988-8.5-16.481-13.614q-2.467,8.077-4.781,16.56a495.879,495.879,0,0,0-11.3,52.011c6.594,8.356,12.49,17.941,16.4,20.519-5.842-3.854-11.776-7.543-17.76-11.128-4.353,33.127-2.451,56.405,6.305,58.675,7.283,1.889,17.814-11.125,28.647-33.3Z" transform="translate(-155.397 -318.337)" fill="#7111ff"/>
        <path id="Path_183" data-name="Path 183" d="M378.031,466.97c3.505-2.708,6.394-7.3,9.118-12.182a237.156,237.156,0,0,0-15.341-31.031c-5.883,5.131-11.633,10.417-17.062,16.135,3.035-3.2,7.982-12.9,13.611-21.926q-3.876-6.348-8.239-12.817C348.464,387.928,336.1,373.12,324.782,362.2a114.26,114.26,0,0,0-12.452,15.878c2.454-3.835,4.169-12.836,6.655-21.208-13.541-11.823-25.009-17.249-31.019-13.363-9.677,6.255-2.2,34.622,16.617,67.8,10.185,1.267,21.2,4.378,26.139,5.324-3.622-.689-11.693,2.067-20.18,4.731q3.429,5.539,7.226,11.163a299.949,299.949,0,0,0,25.291,32.53c9.931-.508,20.154.051,24.526-1.384-6.534,2.143-13.023,4.426-19.484,6.794,18.091,18.776,34.263,28.593,41.823,23.71,6.283-4.061,5.328-17.449-1.257-35.419Q383.348,462.857,378.031,466.97Z" transform="translate(-283.731 -266.313)" fill="#94abff"/>
      </g>
      <g id="Group_143" data-name="Group 143" transform="translate(33.509 195.927)">
        <path id="Path_184" data-name="Path 184" d="M264.9,385.287l2.594,12.672,11.057,54.516H380.159l11.057-54.516,2.594-12.672Z" transform="translate(-257.112 -368.656)" fill="#6328ff"/>
        <path id="Path_185" data-name="Path 185" d="M264.9,383.634v5.247l2.594,12.672H391.217l2.594-12.672v-5.247Z" transform="translate(-257.112 -372.25)" fill="#6600fc"/>
        <rect id="Rectangle_89" data-name="Rectangle 89" width="148.41" height="21.776" fill="#6328ff"/>
      </g>
    </g>
    <rect id="Rectangle_90" data-name="Rectangle 90" width="58.899" height="11.378" rx="1.18" transform="translate(1575.418 966.52)" fill="#a2aedb"/>
    <line id="Line_3" data-name="Line 3" y2="169.53" transform="translate(1605.193 799.135)" fill="none" stroke="#a2aedb" stroke-miterlimit="10" stroke-width="2.945"/>
    <path id="Path_186" data-name="Path 186" d="M206.757,327.342v.013l-.13.1c-.352.289-3.438,12.75-3.553,13.217l12.315,11.563c.457-.14,12.7-4.007,12.969-4.378l.1-.133.013,0,16.309,9.544,0,.013-.07.152c-.194.413,2.432,12.979,2.534,13.449l16.113,5.073c.352-.324,9.706-9.121,9.785-9.569l.029-.165.009-.006,18.837,1.524.006.01,0,.165c.006.457,7.823,10.639,8.118,11.017l16.719-2.419c.175-.445,4.785-12.427,4.664-12.865l-.048-.162.006-.01,17.63-6.8.013,0,.073.149c.206.41,11.668,6.191,12.1,6.4l14.014-9.433c-.035-.476-1.079-13.274-1.381-13.614l-.111-.127v-.013l12.935-13.776h.013l.13.1c.362.279,13.2.518,13.677.521l8.531-14.576c-.238-.416-6.731-11.493-7.15-11.671l-.156-.064,0-.01,5.677-18.027.01-.006.162.035c.448.1,12.115-5.261,12.55-5.464l1.362-16.836c-.4-.27-11.052-7.432-11.509-7.41l-.165.01-.01-.006-2.705-18.7.006-.01.162-.041c.441-.1,8.633-9.995,8.934-10.366l-6.08-15.76c-.473-.073-13.179-1.9-13.582-1.683l-.143.079-.013,0L375.9,190.7v-.013l.13-.1c.352-.289,3.442-12.75,3.553-13.217l-12.315-11.56c-.457.14-12.7,4-12.966,4.375l-.1.137h-.013l-16.309-9.544,0-.013.07-.149c.194-.416-2.432-12.982-2.534-13.449L319.3,142.087c-.349.327-9.7,9.121-9.785,9.569l-.025.165-.013.009-18.833-1.524-.01-.01,0-.168c-.006-.454-7.823-10.639-8.118-11.017l-16.719,2.419c-.175.445-4.785,12.427-4.664,12.868l.048.159-.006.013-17.63,6.8-.013,0-.073-.149c-.2-.41-11.668-6.191-12.1-6.4l-14.014,9.433c.038.476,1.079,13.274,1.381,13.617l.111.124V178L205.9,191.774h-.013l-.13-.1c-.362-.279-13.2-.514-13.677-.521l-8.531,14.579c.238.413,6.731,11.49,7.15,11.668l.156.063.006.013-5.68,18.024-.01.006-.162-.035c-.448-.1-12.115,5.261-12.547,5.464L171.1,257.77c.394.27,11.049,7.432,11.506,7.41l.165-.01.01.006,2.708,18.7-.01.013-.162.038c-.441.108-8.633,9.995-8.934,10.366l6.08,15.76c.473.073,13.179,1.9,13.582,1.686l.146-.083.01,0Zm40.854-109.369a59.967,59.967,0,1,1,2.67,84.766A59.966,59.966,0,0,1,247.611,217.973Z" transform="translate(1238.146 26.342)" fill="#6127fa" opacity="0.731"/>
    <path id="Path_13525" data-name="Path 13525" d="M327.4,271.525a2.6,2.6,0,0,1-2.974,2.08,2.487,2.487,0,0,1-2.171-2.825,2.605,2.605,0,0,1,2.972-2.084A2.492,2.492,0,0,1,327.4,271.525Z" transform="translate(1228.924 225.654)" fill="#263238"/>
    <path id="Path_13526" data-name="Path 13526" d="M330.672,270.044c-.384.269-2.033-1.546-4.777-2.088-2.735-.58-5.033.43-5.263.034-.117-.179.322-.715,1.33-1.176a7.151,7.151,0,0,1,4.3-.44,6.864,6.864,0,0,1,3.719,2.079C330.688,269.267,330.856,269.927,330.672,270.044Z" transform="translate(1227.684 223.777)" fill="#263238"/>
    <path id="Path_13528" data-name="Path 13528" d="M325.218,281.178c.451.064-.138,3.045,1.99,5.668s5.364,2.931,5.3,3.351c0,.2-.823.439-2.171.207a7.571,7.571,0,0,1-4.462-2.629,6.585,6.585,0,0,1-1.477-4.715C324.537,281.792,325.018,281.122,325.218,281.178Z" transform="translate(1198.211 768.646) rotate(-76)" fill="#263238"/>
    <path id="Path_13525-2" data-name="Path 13525" d="M326.051,270.779a1.922,1.922,0,0,1-2.2,1.537,1.838,1.838,0,0,1-1.6-2.088,1.925,1.925,0,0,1,2.2-1.54A1.841,1.841,0,0,1,326.051,270.779Z" transform="translate(1112.055 182.949)" fill="#263238"/>
    <path id="Path_13529" data-name="Path 13529" d="M9.441,2.468c-.31.511-2.283-.154-4.72-.344C2.287,1.887.229,2.2.012,1.643-.081,1.377.357.925,1.24.547A7.851,7.851,0,0,1,4.9.032,7.856,7.856,0,0,1,8.423,1.176C9.227,1.7,9.58,2.223,9.441,2.468Z" transform="matrix(0.999, -0.035, 0.035, 0.999, 1431.82, 447.555)" fill="#263238"/>
    <path id="Path_13527" data-name="Path 13527" d="M333.494,279.941a9.682,9.682,0,0,0-2.4.045c-.372.036-.73.032-.841-.2a1.886,1.886,0,0,1,.027-1.127q.249-1.422.522-2.983c.706-4.241,1.139-7.7.967-7.725s-.882,3.388-1.587,7.628q-.248,1.565-.474,2.991a2.146,2.146,0,0,0,.1,1.465.927.927,0,0,0,.7.412,2.485,2.485,0,0,0,.635-.038A9.393,9.393,0,0,0,333.494,279.941Z" transform="translate(1097.729 193.199)" fill="#263238"/>
    <path id="Path_13528-2" data-name="Path 13528" d="M328.156,281.177c-.234.033.072,1.579-1.033,2.94s-2.783,1.521-2.751,1.738c0,.1.427.228,1.126.107a3.927,3.927,0,0,0,2.315-1.364,3.416,3.416,0,0,0,.766-2.446C328.509,281.5,328.259,281.147,328.156,281.177Z" transform="translate(1107.453 192.111)" fill="#263238"/>
    <path id="Path_14346" data-name="Path 14346" d="M326.051,270.779a1.922,1.922,0,0,1-2.2,1.537,1.838,1.838,0,0,1-1.6-2.088,1.925,1.925,0,0,1,2.2-1.54A1.841,1.841,0,0,1,326.051,270.779Z" transform="matrix(0.996, -0.087, 0.087, 0.996, 1074.887, 214.557)" fill="#263238"/>
    <path id="Path_14347" data-name="Path 14347" d="M9.441,2.468c-.31.511-2.283-.154-4.72-.344C2.287,1.887.229,2.2.012,1.643-.081,1.377.357.925,1.24.547A7.851,7.851,0,0,1,4.9.032,7.856,7.856,0,0,1,8.423,1.176C9.227,1.7,9.58,2.223,9.441,2.468Z" transform="translate(1416.496 450.285) rotate(-7)" fill="#263238"/>
  </g>
</svg>
