<svg xmlns="http://www.w3.org/2000/svg" width="977.996" height="599" viewBox="0 0 977.996 599">
  <g id="Group_13332" data-name="Group 13332" transform="translate(-845.09 -273)">
    <g id="Group_12954" data-name="Group 12954">
      <g id="Group_12952" data-name="Group 12952" transform="translate(800.647 223.056)">
        <g id="Group_12929" data-name="Group 12929" transform="translate(44.442 49.944)">
          <g id="Group_12928" data-name="Group 12928">
            <g id="Group_12924" data-name="Group 12924" transform="translate(97.278)">
              <path id="Path_13568" data-name="Path 13568" d="M197.735,528.09h6.945V485.919l26.328,26.328L215.163,528.09h6.546l12.572-12.571,12.572,12.571H253.4l-15.845-15.843,26.328-26.328V528.09h6.944V199.851h-6.944v8l-8-8h-6.546l14.542,14.541v.4l-29.6,29.6-29.6-29.6v-.4l14.541-14.541h-6.546l-8,8v-8h-6.945v87.017a41.24,41.24,0,0,1,6.945,1.794v-1.18l1.909,1.909A41.964,41.964,0,0,1,229.4,312.2l1.613,1.611-.731.731a40.606,40.606,0,0,1,1.391,5.153l2.612-2.61,29.6,29.6v.4l-29.6,29.6-16.85-16.85a41.972,41.972,0,0,1-3.759,2.787l17.337,17.335L204.68,406.281v-39.19a41.1,41.1,0,0,1-6.945,1.792V528.09Zm6.945-55.664V419.772L231.008,446.1,204.68,472.426Zm0-198.435V221.336l26.328,26.329L204.68,273.991Zm59.2-52.655v52.655l-26.328-26.326,26.328-26.329Zm0,66.146v52.655l-26.328-26.328,26.328-26.328Zm0,66.146v52.654l-26.328-26.328,26.328-26.326Zm0,66.145v52.654L237.554,446.1l26.328-26.328Zm-59.2-139.236,29.6-29.6,29.6,29.6v.4l-29.6,29.6-29.6-29.6v-.4Zm0,132.291,29.6-29.6,29.6,29.6v.4l-29.6,29.6-29.6-29.6v-.4Zm0,66.146,29.6-29.6,29.6,29.6v.4l-29.6,29.6-29.6-29.6Z" transform="translate(-65.458 24.635)" fill="#bfcce8" fill-rule="evenodd"/>
              <path id="Path_13569" data-name="Path 13569" d="M522.053,602.669H529V560.5l26.328,26.328-15.845,15.844h6.546L558.6,590.1l12.573,12.572h6.546L561.87,586.825,588.2,560.5v42.171h6.944V329.417a54.907,54.907,0,0,1-6.944-8.7V348.57L561.87,322.244l19.02-19.02a53.65,53.65,0,0,1-.94-5.608L558.6,318.969l-29.6-29.6v-.4l29.6-29.6,21.962,21.964q.517-2.678,1.283-5.264L561.87,256.1,588.2,229.77v32.475a54.907,54.907,0,0,1,6.944-8.7v-146.6a21.938,21.938,0,0,1-.508-4.681h0a21.935,21.935,0,0,1,.508-4.68V49.944H588.2V83.988L561.87,57.661l7.717-7.717h-6.546L558.6,54.387l-4.443-4.443h-6.547l7.717,7.717L529,83.988v-33.1a29.861,29.861,0,0,0-6.942,3.212V602.669ZM529,547.005V494.351l26.328,26.328L529,547.005Zm0-66.145V428.207l26.328,26.326L529,480.86Zm0-66.145V362.061l26.328,26.328L529,414.716Zm0-66.146V295.915l26.328,26.329L529,348.57Zm0-66.145V229.77L555.323,256.1,529,282.425Zm0-66.146V163.624l26.328,26.329L529,216.279Zm0-66.145V97.479l26.328,26.326L529,150.134Zm59.2-52.655v52.655L561.87,123.805,588.2,97.479Zm0,66.145v52.655L561.87,189.953,588.2,163.624Zm0,198.437v52.655L561.87,388.388,588.2,362.061Zm0,66.146V480.86L561.87,454.533,588.2,428.207Zm0,66.145v52.654L561.87,520.679,588.2,494.351ZM529,90.534l29.6-29.6,29.6,29.6v.4l-29.6,29.6L529,90.932v-.4Zm0,66.146,29.6-29.6,29.6,29.6v.4l-29.6,29.6-29.6-29.6v-.4Zm0,66.145,29.6-29.6,29.6,29.6v.4l-29.6,29.6-29.6-29.6v-.4Zm0,132.291,29.6-29.6,29.6,29.6v.4l-29.6,29.6-29.6-29.6v-.4Zm0,66.146,29.6-29.6,29.6,29.6v.4l-29.6,29.6L529,421.66v-.4Zm0,66.145,29.6-29.6,29.6,29.6v.4l-29.6,29.6-29.6-29.6v-.4Zm0,66.146,29.6-29.6,29.6,29.6v.4l-29.6,29.6-29.6-29.6Z" transform="translate(95.891 -49.944)" fill="#bfcce8" fill-rule="evenodd"/>
              <path id="Path_13570" data-name="Path 13570" d="M217.1,368.8H206.866v12.545L194.322,368.8h-9.645l22.19,22.191v.586L163.25,435.2,119.634,391.58v-.586l21.1-21.1a78.408,78.408,0,0,0-12.979,3.332l-8.122,8.121v-4.759a79.445,79.445,0,0,0-10.231,5.9V513.761a79.455,79.455,0,0,0,10.231,5.9V498.69l28.55,28.55q2.783.2,5.613.2h4.236l-38.4-38.4v-.587l43.616-43.616,43.616,43.616v.587l-38.4,38.4h9.645l28.754-28.752v28.752H217.1V368.8Zm0-167.651a43.581,43.581,0,0,0-24.343,19.258L206.866,206.3v72.653A43.088,43.088,0,0,0,217.1,283.7V201.152ZM119.634,478.813V401.227l38.794,38.791-38.794,38.794Zm87.232-77.586v77.586l-38.793-38.794Z" transform="translate(-109.403 25.282)" fill="#bfcce8" fill-rule="evenodd"/>
              <path id="Path_13571" data-name="Path 13571" d="M587.275,602.669h10.234V573.917l26.716,26.717q4.012-.728,7.938-1.707l-34.654-34.655v-.587l43.615-43.616,43.615,43.616v.587l-23.565,23.566a129.7,129.7,0,0,0,33.8-25.8V386.42a130.339,130.339,0,0,0-14.243-13.067l-39.606,39.6-43.615-43.615v-.585l21.723-21.726q-4.319-.6-8.724-.918l-13,13V345.642a53.943,53.943,0,0,1-10.234-1.748V602.669Zm0-363.6a53.948,53.948,0,0,1,10.234-1.751V184.062L636.3,222.856l-14.318,14.318h9.644l9.5-9.5,9.494,9.5h9.647l-14.318-14.318,38.791-38.794v50.177a56.25,56.25,0,0,0,10.234-4.638V131.821a56.251,56.251,0,0,0-10.234-4.638v37l-38.791-38.791,1.143-1.141H635.158l1.144,1.141-38.793,38.791V124.25H587.275V239.068Zm0-158.781h11.463a15.1,15.1,0,0,0,1.974-.13l-3.2-3.2v-.587L613.23,60.642a15.2,15.2,0,0,0-3.593-6.051L597.509,66.722V49.944H587.275V80.286Zm10.234,473.752V476.453L636.3,515.245l-38.793,38.794Zm0-97.465V378.99L636.3,417.781l-38.793,38.793Zm87.229-77.584v77.584l-38.791-38.793,38.791-38.791Zm0,97.463v77.586l-38.791-38.794,38.791-38.791ZM597.509,173.829l43.615-43.615,43.615,43.615v.587l-43.615,43.616-43.615-43.616v-.587Zm0,292.392L641.124,422.6l43.615,43.616v.586l-43.615,43.615-43.615-43.615Z" transform="translate(128.339 -49.944)" fill="#bfcce8" fill-rule="evenodd"/>
            </g>
            <g id="Group_12927" data-name="Group 12927" transform="translate(174.623 426.475)">
              <g id="Group_12925" data-name="Group 12925" transform="translate(10.197)">
                <rect id="Rectangle_1274" data-name="Rectangle 1274" width="80.04" height="59.477" rx="3.432" fill="#90a9d5"/>
                <rect id="Rectangle_1275" data-name="Rectangle 1275" width="80.039" height="59.477" rx="3.432" transform="translate(45.772)" fill="#b6c7e6"/>
                <path id="Rectangle_1276" data-name="Rectangle 1276" d="M1.96,0h53.6a1.96,1.96,0,0,1,1.96,1.96V18.231a1.961,1.961,0,0,1-1.961,1.961H1.961A1.961,1.961,0,0,1,0,18.231V1.96A1.96,1.96,0,0,1,1.96,0Z" transform="translate(57.032 19.643)" fill="#90a9d5"/>
                <path id="Rectangle_1277" data-name="Rectangle 1277" d="M.428,0H26.252a.428.428,0,0,1,.428.428V3.977a.428.428,0,0,1-.428.428H.427A.427.427,0,0,1,0,3.978V.428A.428.428,0,0,1,.428,0Z" transform="translate(63.028 23.069)" fill="#e6e4eb"/>
                <path id="Rectangle_1278" data-name="Rectangle 1278" d="M.427,0H13.4a.428.428,0,0,1,.428.428V3.977A.428.428,0,0,1,13.4,4.4H.428A.428.428,0,0,1,0,3.977V.427A.427.427,0,0,1,.427,0Z" transform="translate(63.028 30.046)" fill="#e6e4eb"/>
              </g>
              <g id="Group_12926" data-name="Group 12926" transform="translate(0 59.477)">
                <path id="Rectangle_1279" data-name="Rectangle 1279" d="M4.113,0H91.8a4.114,4.114,0,0,1,4.114,4.114V67.163A4.114,4.114,0,0,1,91.8,71.278H4.113A4.113,4.113,0,0,1,0,67.164V4.113A4.113,4.113,0,0,1,4.113,0Z" transform="translate(54.848)" fill="#90a9d5"/>
                <path id="Rectangle_1280" data-name="Rectangle 1280" d="M4.113,0H91.8a4.113,4.113,0,0,1,4.113,4.113v63.05A4.114,4.114,0,0,1,91.8,71.278H4.113A4.113,4.113,0,0,1,0,67.164V4.113A4.113,4.113,0,0,1,4.113,0Z" fill="#b6c7e6"/>
                <rect id="Rectangle_1281" data-name="Rectangle 1281" width="68.927" height="24.194" rx="2.349" transform="translate(13.493 23.542)" fill="#90a9d5"/>
                <rect id="Rectangle_1282" data-name="Rectangle 1282" width="31.969" height="5.281" rx="0.513" transform="translate(43.265 27.645)" fill="#e6e4eb"/>
                <rect id="Rectangle_1283" data-name="Rectangle 1283" width="16.57" height="5.281" rx="0.513" transform="translate(58.664 36.006)" fill="#e6e4eb"/>
              </g>
            </g>
            <path id="Path_13572" data-name="Path 13572" d="M468.448,173.114a22.505,22.505,0,1,1-4.9,7.324,22.6,22.6,0,0,1,4.9-7.324Zm8.115-2.97a20.564,20.564,0,1,0,7.826-1.547,20.5,20.5,0,0,0-7.826,1.547Zm-2.492-16.589a36.288,36.288,0,0,0-4.156,1.481,36.711,36.711,0,0,0-3.991,1.993,37.285,37.285,0,0,0-7.193,5.422,2.353,2.353,0,0,1-2.82.341c-3.311-1.911-6.791-3.8-10.035-5.794a1.369,1.369,0,0,0-.488-.151,1.521,1.521,0,0,0-.553.042,1.49,1.49,0,0,0-.509.247,1.46,1.46,0,0,0-.364.416c-2.414,3.652-4.835,8.371-7.071,12.244a1.418,1.418,0,0,0-.177.52,1.481,1.481,0,0,0,.043.571,1.445,1.445,0,0,0,.247.508,1.4,1.4,0,0,0,.415.365c2.979,1.969,6.817,3.94,9.972,5.762a2.341,2.341,0,0,1,1,1.116,2.367,2.367,0,0,1,.15.493l.207.069-.232.93c-.181.732-.338,1.465-.473,2.191-.129.71-.243,1.451-.337,2.225-.091.755-.16,1.5-.2,2.242-.045.722-.066,1.48-.066,2.267s.021,1.544.066,2.266c.043.74.112,1.49.2,2.245.094.773.208,1.514.337,2.222q.2,1.094.473,2.194a2.351,2.351,0,0,1-1.214,2.663l-8.834,5.1,0,0-1.047.6a1.424,1.424,0,0,0-.416.365,1.525,1.525,0,0,0-.289,1.078,1.408,1.408,0,0,0,.177.52l6.538,11.33,0,0,.529.915a1.441,1.441,0,0,0,.364.416,1.5,1.5,0,0,0,1.075.288,1.408,1.408,0,0,0,.518-.175c3.163-1.987,6.733-3.886,10-5.768a2.359,2.359,0,0,1,2.811.338l0,0a36.765,36.765,0,0,0,15.439,8.924,2.362,2.362,0,0,1,1.715,2.275l0,11.525a1.39,1.39,0,0,0,.106.541,1.481,1.481,0,0,0,.779.78,1.413,1.413,0,0,0,.544.108h14.142A1.4,1.4,0,0,0,492,239.7a1.48,1.48,0,0,0,.467-.313,1.5,1.5,0,0,0,.313-.467,1.391,1.391,0,0,0,.106-.541V226.858a2.389,2.389,0,0,1,1.819-2.3,35.977,35.977,0,0,0,4.154-1.48,37.141,37.141,0,0,0,11.185-7.416,2.364,2.364,0,0,1,2.938-.268l9.866,5.7a1.364,1.364,0,0,0,.524.174,1.5,1.5,0,0,0,.568-.04,1.416,1.416,0,0,0,.873-.663c2.344-4.088,4.725-8.158,7.071-12.245a1.378,1.378,0,0,0,.175-.521,1.513,1.513,0,0,0-.288-1.075,1.363,1.363,0,0,0-.407-.365l-9.982-5.762a2.348,2.348,0,0,1-1-1.116,2.464,2.464,0,0,1-.126-.38l-.259-.052.26-1.059c.183-.731.34-1.463.475-2.191q.2-1.065.337-2.225.137-1.132.205-2.245.065-1.083.066-2.266c0-.786-.022-1.542-.066-2.264-.045-.738-.114-1.487-.205-2.242q-.144-1.175-.337-2.231c-.135-.726-.292-1.457-.475-2.188a2.356,2.356,0,0,1,1.213-2.663l9.887-5.707a1.347,1.347,0,0,0,.41-.364,1.424,1.424,0,0,0,.246-.509,1.465,1.465,0,0,0,.042-.568,1.378,1.378,0,0,0-.175-.521c-2.414-3.59-4.831-8.385-7.071-12.245a1.463,1.463,0,0,0-.365-.416,1.484,1.484,0,0,0-.508-.247,1.522,1.522,0,0,0-.568-.042,1.393,1.393,0,0,0-.521.178l-9.988,5.765a2.343,2.343,0,0,1-1.5.3,2.381,2.381,0,0,1-1.349-.668,37.509,37.509,0,0,0-3.42-2.916,36.836,36.836,0,0,0-7.763-4.482,36.28,36.28,0,0,0-4.226-1.5,2.361,2.361,0,0,1-1.716-2.275l0-11.525a1.433,1.433,0,0,0-.1-.542,1.461,1.461,0,0,0-.316-.464,1.414,1.414,0,0,0-.466-.314,1.4,1.4,0,0,0-.541-.106H477.32a1.412,1.412,0,0,0-.544.106,1.44,1.44,0,0,0-.885,1.321v11.525a2.356,2.356,0,0,1-.508,1.463,2.393,2.393,0,0,1-1.312.839Zm-4.972-.437a39.154,39.154,0,0,0-11.812,7.832.269.269,0,0,1-.159.073.274.274,0,0,1-.172-.033q-5.036-2.907-10.074-5.818a3.461,3.461,0,0,0-1.259-.4,3.581,3.581,0,0,0-1.325.1,3.536,3.536,0,0,0-1.232.606,3.425,3.425,0,0,0-.9,1.029c-2.433,3.94-4.746,8.211-7.073,12.241a3.489,3.489,0,0,0-.437,1.3,3.532,3.532,0,0,0,.091,1.37,3.492,3.492,0,0,0,.607,1.234,3.426,3.426,0,0,0,1.029.9c3.211,1.984,6.7,3.867,9.979,5.764a.267.267,0,0,1,.114.13.272.272,0,0,1,.016.175l-.229.931.012,0q-.151.678-.279,1.378-.22,1.2-.361,2.357t-.214,2.365q-.072,1.222-.073,2.389t.073,2.387c.049.813.121,1.6.214,2.368s.216,1.556.361,2.354.314,1.566.5,2.315a.259.259,0,0,1-.018.181.279.279,0,0,1-.123.135c-3.667,1.959-7.392,4.263-11.017,6.357l.129.162-.112.139a3.547,3.547,0,0,0-.7,2.6,3.458,3.458,0,0,0,.439,1.3l7.6,13.16.139-.084c.076.067.156.133.237.195a3.536,3.536,0,0,0,1.232.606,3.577,3.577,0,0,0,1.367.091,3.508,3.508,0,0,0,1.268-.418c3.321-1.763,6.746-3.895,10.027-5.791a.3.3,0,0,1,.166-.028.3.3,0,0,1,.165.075A38.991,38.991,0,0,0,473.6,226.59a.292.292,0,0,1,.147.1.259.259,0,0,1,.055.169v11.525a3.516,3.516,0,0,0,1.036,2.483,3.556,3.556,0,0,0,1.14.764,3.474,3.474,0,0,0,1.342.27h14.142a3.484,3.484,0,0,0,1.342-.27,3.529,3.529,0,0,0,1.9-1.906,3.505,3.505,0,0,0,.27-1.34V226.858a.275.275,0,0,1,.055-.175.283.283,0,0,1,.156-.1l.046-.016a38.668,38.668,0,0,0,4.443-1.578,39.122,39.122,0,0,0,11.814-7.832.263.263,0,0,1,.163-.076.3.3,0,0,1,.181.045l9.979,5.761a3.46,3.46,0,0,0,1.3.437,3.542,3.542,0,0,0,2.6-.7,3.5,3.5,0,0,0,.887-1c2.622-4.215,5.1-8.835,7.6-13.165l-.135-.081a3.124,3.124,0,0,0,.06-.332,3.582,3.582,0,0,0-.09-1.367,3.505,3.505,0,0,0-.61-1.232,3.443,3.443,0,0,0-1.024-.9l-9.984-5.764a.269.269,0,0,1-.112-.129.291.291,0,0,1-.016-.181l.259-1.056-.015,0c.09-.41.172-.828.252-1.25.147-.8.268-1.586.361-2.357s.166-1.554.214-2.368.075-1.61.075-2.387-.025-1.572-.075-2.387-.12-1.6-.214-2.372-.213-1.548-.361-2.354-.313-1.563-.5-2.309a.3.3,0,0,1,.02-.187.286.286,0,0,1,.127-.129l9.969-5.756a3.4,3.4,0,0,0,1.024-.9,3.529,3.529,0,0,0,.277-3.87c-2.377-4.4-5.1-8.838-7.615-13.191l-.142.084c-.075-.069-.154-.133-.234-.2a3.541,3.541,0,0,0-2.6-.7,3.467,3.467,0,0,0-1.3.431l-.74.424,0,.007-9.258,5.343a.276.276,0,0,1-.337-.043l-.024-.024a38.911,38.911,0,0,0-16.284-9.4.269.269,0,0,1-.144-.1.244.244,0,0,1-.057-.169V139.729a3.51,3.51,0,0,0-1.038-2.483,3.565,3.565,0,0,0-1.137-.764,3.483,3.483,0,0,0-1.342-.27H477.32a3.473,3.473,0,0,0-1.342.27,3.625,3.625,0,0,0-1.143.764,3.509,3.509,0,0,0-1.033,2.483v11.525a.308.308,0,0,1-.057.177.287.287,0,0,1-.156.094l-.045.016A39.26,39.26,0,0,0,469.1,153.118Z" transform="translate(149.673 -7.025)" fill="#bfcce8" fill-rule="evenodd"/>
            <path id="Path_13573" data-name="Path 13573" d="M78.267,248.6a22.529,22.529,0,1,1-4.894,7.326,22.588,22.588,0,0,1,4.894-7.326Zm8.115-2.968a20.573,20.573,0,1,0,7.827-1.547,20.494,20.494,0,0,0-7.827,1.547ZM83.89,229.039a36.684,36.684,0,0,0-8.145,3.474,37.238,37.238,0,0,0-7.194,5.422,2.353,2.353,0,0,1-2.82.341c-3.309-1.911-6.791-3.8-10.035-5.794a1.36,1.36,0,0,0-.487-.151,1.493,1.493,0,0,0-1.062.289,1.423,1.423,0,0,0-.365.416c-2.414,3.652-4.835,8.371-7.071,12.244a1.419,1.419,0,0,0-.177.52,1.51,1.51,0,0,0,.043.571,1.416,1.416,0,0,0,.663.873c2.979,1.968,6.815,3.94,9.973,5.762a2.348,2.348,0,0,1,1.143,1.607l.205.07-.231.93q-.27,1.1-.473,2.191c-.129.708-.243,1.451-.335,2.225-.091.755-.162,1.5-.205,2.242s-.066,1.48-.066,2.267.022,1.544.066,2.266c.043.74.114,1.489.205,2.245.093.773.207,1.514.337,2.222.133.729.292,1.462.473,2.192a2.359,2.359,0,0,1-1.217,2.666l-8.832,5.1,0,0-1.047.6a1.4,1.4,0,0,0-.663.873,1.51,1.51,0,0,0-.043.571,1.435,1.435,0,0,0,.177.521l6.54,11.327,0,0,.529.917a1.417,1.417,0,0,0,.365.415,1.461,1.461,0,0,0,.508.249,1.489,1.489,0,0,0,.568.04,1.378,1.378,0,0,0,.517-.177c3.164-1.987,6.733-3.885,10-5.767a2.354,2.354,0,0,1,2.809.337l0,0a37.159,37.159,0,0,0,7.192,5.421,36.457,36.457,0,0,0,8.247,3.5,2.358,2.358,0,0,1,1.715,2.275l0,11.525a1.392,1.392,0,0,0,.106.541,1.486,1.486,0,0,0,.78.782,1.426,1.426,0,0,0,.542.1h14.142a1.437,1.437,0,0,0,.542-.1,1.516,1.516,0,0,0,.466-.313,1.539,1.539,0,0,0,.313-.469,1.393,1.393,0,0,0,.108-.541V302.341a2.382,2.382,0,0,1,1.818-2.3,36.725,36.725,0,0,0,8.146-3.476,37.229,37.229,0,0,0,7.194-5.421,2.365,2.365,0,0,1,2.937-.27l9.867,5.7a1.383,1.383,0,0,0,.521.174,1.5,1.5,0,0,0,.569-.04,1.448,1.448,0,0,0,.508-.249,1.4,1.4,0,0,0,.365-.415c2.344-4.088,4.725-8.158,7.071-12.245a1.432,1.432,0,0,0,.177-.523,1.488,1.488,0,0,0-.043-.566,1.423,1.423,0,0,0-.246-.509,1.36,1.36,0,0,0-.407-.364l-9.982-5.762a2.345,2.345,0,0,1-.994-1.116,2.192,2.192,0,0,1-.126-.382l-.261-.052.262-1.057c.18-.731.338-1.463.473-2.192.13-.707.243-1.451.337-2.224.091-.755.162-1.5.205-2.245q.065-1.083.066-2.266c0-.786-.022-1.542-.066-2.264-.043-.74-.114-1.488-.205-2.242q-.144-1.175-.337-2.233-.2-1.089-.473-2.186a2.347,2.347,0,0,1,.15-1.56,2.379,2.379,0,0,1,1.062-1.1l9.885-5.707a1.34,1.34,0,0,0,.412-.365,1.406,1.406,0,0,0,.246-.508,1.494,1.494,0,0,0,.043-.568,1.425,1.425,0,0,0-.177-.521c-2.414-3.59-4.831-8.385-7.071-12.245a1.422,1.422,0,0,0-.365-.416,1.47,1.47,0,0,0-.508-.247,1.523,1.523,0,0,0-.568-.042,1.4,1.4,0,0,0-.523.178l-9.987,5.765a2.334,2.334,0,0,1-1.5.3,2.377,2.377,0,0,1-1.349-.665,36.859,36.859,0,0,0-7.166-5.4,36.674,36.674,0,0,0-8.245-3.5,2.363,2.363,0,0,1-1.713-2.273l0-11.526a1.406,1.406,0,0,0-.108-.542,1.456,1.456,0,0,0-.314-.464,1.395,1.395,0,0,0-1.006-.421H87.139a1.4,1.4,0,0,0-.542.106,1.438,1.438,0,0,0-.887,1.321v11.526A2.365,2.365,0,0,1,85.2,228.2a2.393,2.393,0,0,1-1.312.837Zm-4.972-.437a39.154,39.154,0,0,0-11.812,7.832.272.272,0,0,1-.157.075.29.29,0,0,1-.174-.034q-5.036-2.907-10.072-5.818a3.487,3.487,0,0,0-1.261-.4,3.551,3.551,0,0,0-2.558.705,3.465,3.465,0,0,0-.9,1.029c-2.433,3.94-4.744,8.211-7.073,12.241a3.487,3.487,0,0,0-.437,1.3,3.543,3.543,0,0,0,.7,2.6,3.446,3.446,0,0,0,1.029.9c3.211,1.983,6.7,3.867,9.981,5.764a.266.266,0,0,1,.112.13.271.271,0,0,1,.016.175l-.231.931.013,0c-.1.452-.192.912-.279,1.379-.145.8-.268,1.584-.361,2.356s-.165,1.553-.214,2.365-.073,1.611-.073,2.388.025,1.574.073,2.387.121,1.6.214,2.368.216,1.556.361,2.354.314,1.565.5,2.315a.27.27,0,0,1-.019.181.262.262,0,0,1-.123.133c-3.667,1.96-7.392,4.263-11.017,6.358l.129.163-.111.139a3.537,3.537,0,0,0-.7,2.6,3.439,3.439,0,0,0,.439,1.3l7.6,13.16.141-.085c.076.069.154.135.235.2a3.563,3.563,0,0,0,1.232.606,3.564,3.564,0,0,0,2.636-.325c3.323-1.766,6.745-3.9,10.027-5.791a.277.277,0,0,1,.168-.03.294.294,0,0,1,.163.075,39.038,39.038,0,0,0,7.589,5.719,38.733,38.733,0,0,0,8.72,3.706.285.285,0,0,1,.145.1.265.265,0,0,1,.055.171v11.525a3.471,3.471,0,0,0,.27,1.34,3.565,3.565,0,0,0,1.906,1.906,3.479,3.479,0,0,0,1.342.27h14.142a3.471,3.471,0,0,0,1.34-.27,3.6,3.6,0,0,0,1.143-.764,3.534,3.534,0,0,0,.764-1.143,3.471,3.471,0,0,0,.27-1.34V302.341a.262.262,0,0,1,.213-.271l.045-.016a38.674,38.674,0,0,0,8.663-3.687,38.911,38.911,0,0,0,7.594-5.723.286.286,0,0,1,.165-.078.3.3,0,0,1,.178.045l9.981,5.764a3.492,3.492,0,0,0,1.3.436,3.589,3.589,0,0,0,1.369-.091,3.537,3.537,0,0,0,1.232-.606,3.481,3.481,0,0,0,.888-1c2.622-4.217,5.1-8.834,7.6-13.165l-.135-.079c.025-.112.043-.222.058-.334a3.549,3.549,0,0,0-.091-1.367,3.5,3.5,0,0,0-.606-1.231,3.414,3.414,0,0,0-1.026-.9l-9.984-5.764a.262.262,0,0,1-.112-.129.3.3,0,0,1-.016-.181l.259-1.054-.015,0c.09-.41.174-.827.252-1.252.147-.8.268-1.584.361-2.354s.165-1.556.214-2.369.073-1.61.073-2.387-.024-1.572-.073-2.387-.12-1.6-.214-2.372-.213-1.55-.361-2.354-.313-1.562-.5-2.309a.3.3,0,0,1,.019-.186.269.269,0,0,1,.127-.13l9.97-5.756a3.4,3.4,0,0,0,1.024-.9,3.537,3.537,0,0,0,.7-2.6,3.5,3.5,0,0,0-.421-1.271c-2.377-4.4-5.1-8.838-7.615-13.191l-.141.084c-.076-.069-.154-.135-.237-.2a3.538,3.538,0,0,0-1.232-.606,3.581,3.581,0,0,0-1.367-.091,3.448,3.448,0,0,0-1.3.431l-.738.424,0,.007-9.259,5.343a.277.277,0,0,1-.177.036.282.282,0,0,1-.16-.079l-.024-.024A38.926,38.926,0,0,0,105,227a.288.288,0,0,1-.145-.1.251.251,0,0,1-.057-.168V215.212a3.5,3.5,0,0,0-1.038-2.483,3.531,3.531,0,0,0-1.138-.764,3.471,3.471,0,0,0-1.34-.27H87.139a3.479,3.479,0,0,0-1.342.27,3.617,3.617,0,0,0-1.143.764,3.506,3.506,0,0,0-1.033,2.483v11.526a.3.3,0,0,1-.057.175.282.282,0,0,1-.154.094l-.045.016A38.893,38.893,0,0,0,78.919,228.6Z" transform="translate(-44.442 30.528)" fill="#bfcce8" fill-rule="evenodd"/>
            <path id="Path_13574" data-name="Path 13574" d="M128.927,292.518Zm4.973-18.942a9.571,9.571,0,1,1-2.8,6.767,9.544,9.544,0,0,1,2.8-6.767Zm2.068-9.485a16.851,16.851,0,0,0-7.041,4.078.585.585,0,0,1-.7.084l-4.448-2.565-.024-.016a1.11,1.11,0,0,0-1.481.419l-.018.03-3.128,5.419a1.111,1.111,0,0,0,.4,1.507l.03.018,4.41,2.546a.59.59,0,0,1,.279.648h0a17.038,17.038,0,0,0,0,8.167.584.584,0,0,1-.31.666l-4.409,2.546v0a1.113,1.113,0,0,0-.4,1.508l3.146,5.448h0a1.111,1.111,0,0,0,1.5.4l.034-.018,4.415-2.55a.589.589,0,0,1,.7.087,17.158,17.158,0,0,0,3.29,2.48,16.881,16.881,0,0,0,3.775,1.6.586.586,0,0,1,.427.565v5.129a1.107,1.107,0,0,0,1.1,1.1h6.3a1.107,1.107,0,0,0,1.1-1.1v-5.129a.588.588,0,0,1,.452-.572,16.862,16.862,0,0,0,3.75-1.6,17.122,17.122,0,0,0,3.292-2.48.587.587,0,0,1,.731-.067L157.555,295a1.11,1.11,0,0,0,1.5-.4l.019-.03,3.128-5.422h0a1.11,1.11,0,0,0-.4-1.5l-4.443-2.565a.59.59,0,0,1-.277-.648h0a17.046,17.046,0,0,0,0-8.167.583.583,0,0,1,.31-.665l4.41-2.547a1.111,1.111,0,0,0,.4-1.505l-.018-.033-3.128-5.418h0a1.106,1.106,0,0,0-1.5-.4v0l-4.446,2.565a.586.586,0,0,1-.714-.1,17,17,0,0,0-3.278-2.468,16.832,16.832,0,0,0-3.774-1.6.588.588,0,0,1-.428-.565V258.39a1.1,1.1,0,0,0-1.1-1.1h-6.3a1.1,1.1,0,0,0-1.1,1.1v5.129A.587.587,0,0,1,135.968,264.091Z" transform="translate(-7.359 53.21)" fill="#bfcce8" fill-rule="evenodd"/>
            <path id="Path_13575" data-name="Path 13575" d="M265.95,174.428a1.641,1.641,0,0,0-3.283,0v3.859h-3.859a1.641,1.641,0,1,0,0,3.283h3.859v3.861a1.641,1.641,0,0,0,3.283,0V181.57h3.859a1.641,1.641,0,0,0,0-3.283H265.95Z" transform="translate(61.388 11.17)" fill="#bfcce8" fill-rule="evenodd"/>
            <path id="Path_13576" data-name="Path 13576" d="M333.616,114.348Zm4.975-18.942a9.571,9.571,0,1,1-2.8,6.766,9.542,9.542,0,0,1,2.8-6.766Zm2.068-9.485a16.876,16.876,0,0,0-3.751,1.6A17.107,17.107,0,0,0,333.616,90a.583.583,0,0,1-.7.085l-4.448-2.567-.024-.015a1.107,1.107,0,0,0-1.48.419l-.019.03-3.128,5.418a1.109,1.109,0,0,0,.4,1.508l.03.019,4.41,2.546a.584.584,0,0,1,.277.648h0a16.662,16.662,0,0,0-.371,2.022,17.033,17.033,0,0,0,.371,6.144.587.587,0,0,1-.312.666l-4.407,2.546h0a1.108,1.108,0,0,0-.4,1.506l3.146,5.449h0a1.106,1.106,0,0,0,1.5.406l.033-.018,4.416-2.55a.589.589,0,0,1,.7.085,16.984,16.984,0,0,0,3.292,2.48,16.747,16.747,0,0,0,3.775,1.6.588.588,0,0,1,.427.566v5.129a1.107,1.107,0,0,0,1.1,1.1H348.5a1.107,1.107,0,0,0,1.1-1.1V119a.592.592,0,0,1,.452-.574,16.793,16.793,0,0,0,3.75-1.6,16.982,16.982,0,0,0,3.292-2.48.583.583,0,0,1,.729-.066l4.418,2.549a1.109,1.109,0,0,0,1.505-.406l.019-.03,3.128-5.419h0a1.111,1.111,0,0,0-.4-1.5l-4.443-2.565a.589.589,0,0,1-.277-.648h0a16.726,16.726,0,0,0,.37-2.022,17.171,17.171,0,0,0,0-4.124,16.7,16.7,0,0,0-.37-2.02.588.588,0,0,1,.31-.668l4.41-2.546a1.111,1.111,0,0,0,.4-1.5l-.018-.033-3.13-5.418h0a1.106,1.106,0,0,0-1.505-.4h0L357.8,90.082a.587.587,0,0,1-.714-.1,17.012,17.012,0,0,0-3.278-2.469,16.817,16.817,0,0,0-3.775-1.6.588.588,0,0,1-.427-.565V80.22a1.1,1.1,0,0,0-1.1-1.1H342.21a1.1,1.1,0,0,0-1.1,1.1v5.129A.589.589,0,0,1,340.659,85.921Z" transform="translate(94.474 -35.429)" fill="#bfcce8" fill-rule="evenodd"/>
            <path id="Path_13577" data-name="Path 13577" d="M692.644,74.309a1.641,1.641,0,1,0-3.282,0v3.859H685.5a1.641,1.641,0,1,0,0,3.283h3.859v3.861a1.641,1.641,0,1,0,3.282,0V81.451h3.861a1.641,1.641,0,0,0,0-3.283h-3.861Z" transform="translate(273.668 -38.639)" fill="#bfcce8" fill-rule="evenodd"/>
            <path id="Path_13578" data-name="Path 13578" d="M53.782,360.235a1.641,1.641,0,1,0-3.281,0v3.859H46.642a1.641,1.641,0,1,0,0,3.283H50.5v3.859a1.641,1.641,0,1,0,3.281,0v-3.859h3.861a1.641,1.641,0,0,0,0-3.283H53.782Z" transform="translate(-44.166 103.609)" fill="#bfcce8" fill-rule="evenodd"/>
            <path id="Path_13579" data-name="Path 13579" d="M403.572,172.317Zm4.976-18.94a9.571,9.571,0,1,1-2.8,6.766,9.547,9.547,0,0,1,2.8-6.766Zm2.068-9.487a16.852,16.852,0,0,0-3.751,1.6,17.046,17.046,0,0,0-3.292,2.48.581.581,0,0,1-.7.085l-4.448-2.567-.024-.015a1.114,1.114,0,0,0-1.481.418l-.018.031-3.128,5.418a1.109,1.109,0,0,0,.4,1.508l.03.018,4.412,2.546a.588.588,0,0,1,.274.648h0a16.97,16.97,0,0,0-.373,2.022,17.374,17.374,0,0,0,0,4.124,17.024,17.024,0,0,0,.373,2.022.589.589,0,0,1-.312.666l-4.409,2.546h0a1.108,1.108,0,0,0-.4,1.506l3.146,5.451h0a1.108,1.108,0,0,0,.669.511,1.1,1.1,0,0,0,.836-.108l.033-.018,4.416-2.549a.587.587,0,0,1,.7.085,16.983,16.983,0,0,0,3.292,2.48,16.744,16.744,0,0,0,3.775,1.6.59.59,0,0,1,.427.566V182.1a1.1,1.1,0,0,0,1.1,1.1h6.292a1.1,1.1,0,0,0,1.1-1.1v-5.129a.59.59,0,0,1,.452-.574,16.851,16.851,0,0,0,7.04-4.076.587.587,0,0,1,.731-.067L432.2,174.8a1.108,1.108,0,0,0,1.505-.4l.018-.031,3.13-5.421h0a1.092,1.092,0,0,0,.106-.834,1.106,1.106,0,0,0-.509-.671l-4.443-2.564a.587.587,0,0,1-.277-.648h0a16.432,16.432,0,0,0,.37-2.022,17.175,17.175,0,0,0,0-4.124,16.383,16.383,0,0,0-.37-2.022.586.586,0,0,1,.31-.666l4.41-2.546a1.111,1.111,0,0,0,.4-1.505l-.019-.033-3.127-5.419h0a1.116,1.116,0,0,0-1.507-.4h0l-4.449,2.567a.584.584,0,0,1-.713-.1,17.057,17.057,0,0,0-3.277-2.468,16.854,16.854,0,0,0-3.777-1.6.588.588,0,0,1-.427-.565v-5.13a1.1,1.1,0,0,0-1.1-1.1h-6.292a1.1,1.1,0,0,0-1.1,1.1v5.13A.586.586,0,0,1,410.616,143.89Z" transform="translate(129.278 -6.589)" fill="#bfcce8" fill-rule="evenodd"/>
            <path id="Path_13580" data-name="Path 13580" d="M363.307,144.83a1.641,1.641,0,1,0-3.283,0v3.859h-3.859a1.642,1.642,0,0,0,0,3.284h3.859v3.859a1.641,1.641,0,0,0,3.283,0v-3.859h3.859a1.642,1.642,0,0,0,0-3.284h-3.859Z" transform="translate(109.823 -3.555)" fill="#bfcce8" fill-rule="evenodd"/>
            <path id="Path_13581" data-name="Path 13581" d="M367.773,266.2a1.641,1.641,0,0,0-3.281,0v3.859h-3.861a1.642,1.642,0,0,0,0,3.284h3.861V277.2a1.641,1.641,0,1,0,3.281,0v-3.859h3.861a1.642,1.642,0,0,0,0-3.284h-3.861Z" transform="translate(112.046 56.827)" fill="#bfcce8" fill-rule="evenodd"/>
            <path id="Path_13582" data-name="Path 13582" d="M271.722,211.843a1.641,1.641,0,1,0-3.283,0V215.7h-3.859a1.641,1.641,0,1,0,0,3.283h3.859v3.859a1.641,1.641,0,1,0,3.283,0v-3.859h3.859a1.641,1.641,0,1,0,0-3.283h-3.859Z" transform="translate(64.259 29.784)" fill="#bfcce8" fill-rule="evenodd"/>
          </g>
          <path id="Path_13583" data-name="Path 13583" d="M636.055,205.358a1.642,1.642,0,0,0-3.284,0v3.859h-3.858a1.641,1.641,0,1,0,0,3.283h3.858v3.859a1.642,1.642,0,0,0,3.284,0V212.5h3.859a1.641,1.641,0,0,0,0-3.283h-3.859Z" transform="translate(245.515 26.558)" fill="#bfcce8" fill-rule="evenodd"/>
        </g>
        <g id="Group_12932" data-name="Group 12932" transform="translate(463.805 276.759)">
          <g id="Group_12930" data-name="Group 12930" transform="translate(0 66.108)">
            <path id="Path_13584" data-name="Path 13584" d="M475.181,285.652a42.624,42.624,0,0,1,17.489,12.6c4.361,5.3,57.723,107.528,61.152,114.181s3.419,23.481-4.668,33.835c-3.137,4.022-12.161,15.276-22.022,27.541H495.164c11.609-17.419,26.765-40.2,27.851-42.032,1.776-3,2.667-5.9-.577-10.959s-45.961-57.145-45.961-57.145S455.477,304.97,475.181,285.652Z" transform="translate(-253.709 -225.602)" fill="#0f1630" stroke="#0e1632" stroke-miterlimit="22.926" stroke-width="0.216" fill-rule="evenodd"/>
            <path id="Path_13585" data-name="Path 13585" d="M473.162,280.161s53.808,7.649,56.128,8.223,6.248,5.987,8.364,9.638,4.6,56.173,5.809,70.88-3.54,78.821-2.126,96.041c.234,2.857.672,6.878,1.241,11.6H381.621c-2.065-19.042-16.419-78.623-17.593-92.939-1.2-14.705-7.3-66.931-5.807-70.878s4.488-9.927,6.682-10.872,54.669-17.3,54.669-17.3l26.9,2.967Z" transform="translate(-307.817 -228.334)" fill="#cec9d0" fill-rule="evenodd"/>
            <path id="Path_13586" data-name="Path 13586" d="M455.551,280.161l8.9,1.27a7.7,7.7,0,0,1-1.843,3.651c-20.905,23.96-42.268,25.712-66.8,5.475a7.677,7.677,0,0,1-2.421-3.324c5.141-1.607,8.576-2.678,8.576-2.678l26.9,2.967Z" transform="translate(-290.206 -228.334)" fill="#fff" fill-rule="evenodd"/>
            <path id="Path_13587" data-name="Path 13587" d="M443.291,245.552l.46,13.4s2.24,27.334,2.58,31.485c.165,2.005,2.487,4.731,6.37,6.948-17.591,20.162-32.951,21.422-53.59,4.392,3.473-2.821,5.319-5.887,5.156-7.893-.34-4.15-2.582-31.485-2.582-31.485L399.961,249.1s10.8.843,22,2.36C432.768,248.143,443.291,245.552,443.291,245.552Z" transform="translate(-287.357 -245.552)" fill="#e8685b" fill-rule="evenodd"/>
            <path id="Path_13588" data-name="Path 13588" d="M442.435,280.585s-6.221,26.888-6.683,32.359-7.771,60.559-7.007,69.87c.346,4.236,8.763,47.281,17.925,93.519h73.31c-1.8-11.27-3.341-20.988-4.171-26.474-2.979-19.728-4.976-60.731-4.326-86.054s-5.643-63.323-6.391-66.931-7.935-8.113-10.162-8.951Z" transform="translate(-272.643 -228.123)" fill="#0f1630" fill-rule="evenodd"/>
            <path id="Path_13589" data-name="Path 13589" d="M434.407,315.418c-2.206,18.151-6.24,51.325-5.662,58.364,0,0,35.657-38.823,35.116-42.65s-15.048-32.388-15.048-32.388S442.58,305.91,434.407,315.418Z" transform="translate(-272.643 -219.09)" fill="#3d4155" fill-rule="evenodd"/>
            <path id="Path_13590" data-name="Path 13590" d="M439.309,280.9s1.577-1.411,2.141-1.459,10.238,3.229,10.238,3.229,14.112,22.187,14.344,25.02-34.655,31.377-34.655,31.377l3.092-26.1s5.057-25.514,6.627-31.811Z" transform="translate(-271.305 -228.693)" fill="#545a6c" fill-rule="evenodd"/>
            <path id="Path_13591" data-name="Path 13591" d="M382.2,294.614a42.621,42.621,0,0,0-15.2,15.285c-3.441,5.935-39.449,115.49-41.746,122.614s.448,23.725,10.111,32.623c1.047.964,2.637,2.408,4.638,4.219h39.9c-10.568-11.333-20.135-21.621-21.1-22.771-2.24-2.667-3.59-5.385-1.214-10.911s36.043-63.864,36.043-63.864S404.783,310.465,382.2,294.614Z" transform="translate(-324.484 -221.144)" fill="#0f1630" fill-rule="evenodd"/>
            <path id="Path_13592" data-name="Path 13592" d="M415.921,284s10.515,25.516,11.863,30.841,17.525,58.483,18.29,67.795c.338,4.141-.894,46.119-2.361,92H371.19c-.031-4.789-.067-8.81-.1-11.679-.273-19.948-4.978-60.73-9.744-85.609s-4.741-63.4-4.588-67.079,6.507-9.3,8.569-10.486Z" transform="translate(-308.453 -226.426)" fill="#0f1630" fill-rule="evenodd"/>
            <path id="Path_13593" data-name="Path 13593" d="M415.115,316.711c5.129,17.551,14.511,49.626,15.089,56.662,0,0-41.5-32.5-41.593-36.364s9.575-34.405,9.575-34.405S405.5,308.661,415.115,316.711Z" transform="translate(-292.582 -217.168)" fill="#3d4155" fill-rule="evenodd"/>
            <path id="Path_13594" data-name="Path 13594" d="M404.71,284a7.891,7.891,0,0,0-2.348-1.092c-.566.045-9.577,4.852-9.577,4.852s-10.313,24.188-10.08,27.022,39.3,25.315,39.3,25.315l-7.3-25.249s-9.142-24.348-11.716-30.306Z" transform="translate(-295.521 -226.969)" fill="#545a6c" fill-rule="evenodd"/>
          </g>
          <g id="Group_12931" data-name="Group 12931" transform="translate(80.805 67.013)">
            <path id="Path_13595" data-name="Path 13595" d="M387.063,251.013c-.271.061-.535.132-.8.213l-.008,0h0a11.072,11.072,0,1,0,9.4,1.378c.578,3.229.427,7.3-3.69,8.085l-.458-6.366C391.328,251.747,388.821,250.782,387.063,251.013Z" transform="translate(-378.445 -243.756)" fill="#e8685b" fill-rule="evenodd"/>
            <path id="Path_13596" data-name="Path 13596" d="M441.156,246.156c.277.013.55.033.821.064h.009a11.072,11.072,0,1,1-9,3.056c.017,3.279.9,7.26,5.091,7.284l-.7-6.343C437.093,247.649,439.386,246.246,441.156,246.156Z" transform="translate(-352.981 -246.156)" fill="#e8685b" fill-rule="evenodd"/>
          </g>
          <path id="Path_13597" data-name="Path 13597" d="M418.857,211.862h0a38.009,38.009,0,0,0-34.293,41.181l3.13,34.327a38.009,38.009,0,0,0,41.18,34.3h0a38.007,38.007,0,0,0,34.294-41.181l-3.13-34.327A38.01,38.01,0,0,0,418.857,211.862Z" transform="translate(-294.675 -196.283)" fill="#f4ad85" fill-rule="evenodd"/>
          <path id="Path_13598" data-name="Path 13598" d="M386.894,229.708a37.522,37.522,0,0,0-2.335,16.893l3.13,34.326a38.026,38.026,0,0,0,37.58,34.452c-21.94-1.688-26-27.617-27.678-41.268s3.438-16.712,5.472-17.389,33.894-5.966,40.943-6.779,10.595,3.1,10.595,3.1l2.964-4.317-2.848-9.219s2.432.079,5.3.009a37.756,37.756,0,0,0-1.391-7.136,60.1,60.1,0,0,1-12.45-5.619c-8.4-5.422-48.536,1.357-55.042,1.357A10.194,10.194,0,0,0,386.894,229.708Z" transform="translate(-294.676 -189.84)" fill="#ed9072" fill-rule="evenodd"/>
          <path id="Path_13599" data-name="Path 13599" d="M464.372,269.494s.229,2.523.445,4.865,2.625,4.758,4.422,4.593l-.487-5.315s.406-3.991,5.247-4.431c13.3-18.433,8.864-45.364-8.274-57.973s-51.279-10.4-57.044-7.878-10.969,13.172-10.969,13.172-5.46-4.045-9.93-1.276S370.329,249,371,256.39s16.311,20.724,16.311,20.724c4.84-.442,5.959,3.408,5.959,3.408l.485,5.316c1.8-.163,3.733-2.974,3.521-5.318l-.445-4.865c.169-.093.334-.192.5-.289C401.91,272.392,401,263.31,401,263.31l-4.217-5.9,8.371-11.011,9.63-3.169,21.882.839s25.8,3.208,23.542,10.716S464.372,269.494,464.372,269.494Z" transform="translate(-301.353 -201.406)" fill="#0e1632" fill-rule="evenodd"/>
          <path id="Path_13600" data-name="Path 13600" d="M464.372,263.279c.262,2.892,2.2,15.806,5.563,15.5,10.039-21.145,19.309-43.215,4.355-64.878-1.76,13.94-15.646,22.443-29.552,25.369,7.357,1.6,16.881,4.612,15.471,9.3-2.257,7.512,4.163,14.71,4.163,14.71Zm-92.4-19.59a21.918,21.918,0,0,0-.963,6.486c.52,5.695,19.475,33.188,23.683,39.437,2.191-.2,2.484-16.486,2.147-20.171.169-.094.332-.19.5-.289,4.576-2.974,3.667-12.056,3.667-12.056l-4.217-5.9,8.371-11.013,9.187-3.022c-4.624-1.866-5.96-3.826-5.96-3.826C389.391,252.548,378.369,251.5,371.967,243.688Z" transform="translate(-301.353 -195.191)" fill="#010518" fill-rule="evenodd"/>
          <path id="Path_13601" data-name="Path 13601" d="M383.406,265.948s-15.875-34.419,16.059-40.3c0,0,8.453-16.688,25.387-12.5s27.536,4.067,35.131-3.416c0,0,4.356,8.2-.933,15.364,16.031,12.438,10.463,28.387,3.9,36.994-2.628-17.838-49.621,2.019-55.765-15.128C406.578,263.341,389.4,259.265,383.406,265.948Z" transform="translate(-297.134 -197.267)" fill="#0e1632" fill-rule="evenodd"/>
          <path id="Path_13602" data-name="Path 13602" d="M383.366,259.427a49.747,49.747,0,0,1-3.825-14.995c6.173-.587,14.18-5.02,24.581-15.544,0,0,4.248,6.243,23.863,7.049,11.913.49,27.058-3.919,35.6-13.1,10.207,11.63,5.162,25.08-.668,32.731-2.628-17.838-49.62,2.019-55.765-15.128C406.538,256.82,389.362,252.744,383.366,259.427Z" transform="translate(-297.094 -190.747)" fill="#010518" fill-rule="evenodd"/>
        </g>
        <g id="Group_12936" data-name="Group 12936" transform="translate(910.169 335.634)">
          <g id="Group_12933" data-name="Group 12933" transform="translate(3.493)">
            <path id="Path_13603" data-name="Path 13603" d="M722.822,254.237c-6.715-25.176-30.175-11.332-40.214,10.222s-33.045,105.626-52.934,127.4c-7.709,8.437-5.351,9.147,1.736,5.038C666.759,376.4,732.065,288.891,722.822,254.237Z" transform="translate(-624.89 -240.722)" fill="#491dbe" fill-rule="evenodd"/>
            <path id="Path_13604" data-name="Path 13604" d="M624.924,395.176c-.243,1.131.822,1.185,2.838.35C681.352,350.2,709.81,248.883,709.9,248.558a1.049,1.049,0,1,0-2.019-.575C707.792,248.31,678.944,351.011,624.924,395.176Z" transform="translate(-624.89 -237.489)" fill="#0076bd" fill-rule="evenodd"/>
          </g>
          <g id="Group_12934" data-name="Group 12934" transform="translate(0.489 19.075)">
            <path id="Path_13605" data-name="Path 13605" d="M664.435,261.325c-11.71-18.355-26.9-1.4-29.447,18.3s.371,92.483-9.969,114.848c-4.007,8.669-1.951,8.639,2.655,3.575C650.652,372.8,680.555,286.591,664.435,261.325Z" transform="translate(-622.884 -253.46)" fill="#6127fa" fill-rule="evenodd"/>
            <path id="Path_13606" data-name="Path 13606" d="M622.89,398.13c.091.964.952.735,2.347-.439,31.232-49.642,28.3-137.535,28.286-137.816a.876.876,0,1,0-1.752.051C651.78,260.209,654.757,349.3,622.89,398.13Z" transform="translate(-622.881 -250.692)" fill="#05304b" fill-rule="evenodd"/>
          </g>
          <g id="Group_12935" data-name="Group 12935" transform="translate(0 89.304)">
            <path id="Path_13607" data-name="Path 13607" d="M722.653,300.457c20.239,2.11,12.42,21.895-2.981,32.268s-77.449,38.367-91.816,56.361c-5.569,6.977-6.4,5.243-4.1-.725C635.254,358.6,694.8,297.552,722.653,300.457Z" transform="translate(-622.557 -300.357)" fill="#6127fa" fill-rule="evenodd"/>
            <path id="Path_13608" data-name="Path 13608" d="M623.377,390.331c-.843.325-1.012-.49-.616-2.146,28.429-46.864,103.115-81.168,103.353-81.28a.82.82,0,0,1,.69,1.487C726.566,308.5,650.86,343.276,623.377,390.331Z" transform="translate(-622.557 -297.137)" fill="#05304b" fill-rule="evenodd"/>
          </g>
        </g>
        <g id="Group_12937" data-name="Group 12937" transform="translate(656.835 74.448)">
          <path id="Path_13609" data-name="Path 13609" d="M498.062,283.536l-5.026,44.157s7.6,103.413,11.332,147.173h56.395l1.238-176Z" transform="translate(-433.659 41.764)" fill="#0e1632" fill-rule="evenodd"/>
          <path id="Path_13610" data-name="Path 13610" d="M517.188,309.2l-2.483,15.607,4.942,137.424H588.4c1.147-9.512,2.182-17.645,3.021-23.508,5.163-36.145,6.93-86.38,6.908-98.27s-13.793-29.532-18.527-30.824S517.188,309.2,517.188,309.2Z" transform="translate(-422.879 54.394)" fill="#0e1632" fill-rule="evenodd"/>
          <path id="Path_13611" data-name="Path 13611" d="M524.7,168.638s-2.348-4.37-4.2-3.551-64.1,92.418-66.214,100.3-1.242,21.852,10.807,41.241,37.827,66.979,38.736,68,15-8.522,16.5-11.191c0,0,.617-.878-.286-2.661s-31.549-74.375-33.49-79.586,52.66-69.834,55.264-75S554.454,173.909,524.7,168.638Z" transform="translate(-453.386 -17.215)" fill="#171c3a" fill-rule="evenodd"/>
          <path id="Path_13612" data-name="Path 13612" d="M552.265,149.9l-27.109,19.364s-19.34,75.721-19.415,79.162-7.48,45.2-7.48,45.2,27.109,10.758,30.982.43,47.336-84.341,49.486-95.96-3.013-39.158-5.595-42.17S552.265,149.9,552.265,149.9Z" transform="translate(-431.06 -24.718)" fill="#c9c4d1" fill-rule="evenodd"/>
          <path id="Path_13613" data-name="Path 13613" d="M531.677,158.422s-24.552,8.639-26.81,9.93-15.52,49.615-16.6,54.133,6.026,87.351,6.026,94.668-9.252,98.756-9.469,100.262a2.706,2.706,0,0,0,2.8,3.227c2.152,0,26.25-45.4,28.186-50.56s-4.332-83.045-4.332-83.045L527.865,175.58Z" transform="translate(-437.758 -20.48)" fill="#171c3a" fill-rule="evenodd"/>
          <path id="Path_13614" data-name="Path 13614" d="M597.791,166.6s35.19,35.468,36.48,37.62S598.988,327.5,598.558,333.1s18.075,88,18.72,90.15a4.158,4.158,0,0,1-.538,2.152c-.646,1.291-2.152,2.044-2.9,2.583s-86.815-13.341-93.7-17.645-21.73-71.215-21.73-80.251,5.205-43.622,5.205-43.622l42.345-71.7S576.546,168.881,597.791,166.6Z" transform="translate(-430.988 -16.412)" fill="#1c2344" fill-rule="evenodd"/>
          <path id="Path_13615" data-name="Path 13615" d="M569.28,162.876s40.763,41.045,42.054,43.2S576.05,329.356,575.621,334.949s18.075,88,18.72,90.15a4.159,4.159,0,0,1-.538,2.152c-.645,1.291-2.152,2.044-2.905,2.583-.388.276-23.28-3.251-46.388-7.33,20.046-28.893,19-76.762,17.25-79.673-2.032-3.392-12.744-10.71-11.117-11.254s12.607-.813,13.421-3.524,16.261-88.492,16.261-88.492l10.312-6.953s4.611-33.351,1.357-38.231c-3.242-4.861-24.713-23.336-24.888-23.485C569.773,169.582,566.8,163.143,569.28,162.876Z" transform="translate(-408.051 -18.264)" fill="#101937" fill-rule="evenodd"/>
          <path id="Path_13616" data-name="Path 13616" d="M595.747,188.111a61.385,61.385,0,0,1,9.013,9.057c3.687,4.808,49.6,100.792,50.553,109.789s-2.411,24.15-18.955,43.308-53,66.83-54.171,67.8-14.954-11.923-16.139-15.107c0,0-.526-1.066.771-2.865s47.4-76.018,50.424-81.389-45.623-85.581-47.583-91.693S562.244,188.747,595.747,188.111Z" transform="translate(-397.388 -5.71)" fill="#383d5d" fill-rule="evenodd"/>
          <path id="Path_13617" data-name="Path 13617" d="M567.479,127.4c.249,13.415-3.23,27.271-2.351,40.705.18,2.74,1.492,3.651,4.873,5.848,4.683,6.968-8.124,29-16.546,30.315-.557.087-14.276-10.671-23.993-13.169-4.987-1.28-9.094,5.089-9.469,4.816-2.02-1.469,2.324-12.866.909-17.191,1.709-.458,3.232-4.275,4.445-5.39,7.872-7.261,5.3-25.386-1.146-32.234C519.385,135.986,567.479,127.4,567.479,127.4Z" transform="translate(-420.52 -35.915)" fill="#ed9072" fill-rule="evenodd"/>
          <path id="Path_13618" data-name="Path 13618" d="M572.98,168.366c-1.071,3.034-27.081,37.75-27.081,37.75s-.93,1.247-2.29-.334-17.385-23.95-17.385-23.95l35.59-26.519-.813-6.1C561.524,148.656,574.081,165.248,572.98,168.366Z" transform="translate(-417.148 -25.068)" fill="#fff" fill-rule="evenodd"/>
          <path id="Path_13619" data-name="Path 13619" d="M529.842,154.486c.009-.018-.039-.052-.136-.06-12.166-.858-14.009,33.611-11.871,40.368.015.045,7.393-11.281,12.48-15.787C532.617,176.971,525.415,161.4,529.842,154.486Z" transform="translate(-421.703 -22.476)" fill="#fff" fill-rule="evenodd"/>
          <path id="Path_13620" data-name="Path 13620" d="M582.026,155.381s-45.5,56.411-48.733,61.143-27.969,63.042-31.412,75.52c0,0,38.083-47.55,43.462-51.852s25.285-20.871,25.285-20.871a2.878,2.878,0,0,0,.268-1.83c-.268-.752-5.807-13.284-5.807-13.284s16.567,2.474,18.072,2.366,8.945-37.071,9.159-38.146S582.026,155.381,582.026,155.381Z" transform="translate(-429.259 -21.993)" fill="#383d5d" fill-rule="evenodd"/>
          <path id="Path_13621" data-name="Path 13621" d="M537.13,154.4s-12.037,2.79-13.973,3.865-17.212,26.464-17.642,28.616a1.351,1.351,0,0,0,.644,1.453,44.633,44.633,0,0,1,4.359,2.743c.32.322-5.327.967-5.327.967s-.644.244-.536,1.238-2.04,95.747-2.04,95.747,18.78-104.773,21.56-111.67,10.253-17.8,10.253-17.8Z" transform="translate(-428.893 -22.478)" fill="#383d5d" fill-rule="evenodd"/>
          <path id="Path_13622" data-name="Path 13622" d="M515.538,114.362a10.731,10.731,0,1,1-10.671,10.791A10.733,10.733,0,0,1,515.538,114.362Z" transform="translate(-427.773 -42.4)" fill="#e8685b" fill-rule="evenodd"/>
          <path id="Path_13623" data-name="Path 13623" d="M563.363,114.089a10.731,10.731,0,1,1-10.671,10.789A10.731,10.731,0,0,1,563.363,114.089Z" transform="translate(-403.981 -42.536)" fill="#e8685b" fill-rule="evenodd"/>
          <path id="Path_13624" data-name="Path 13624" d="M545.575,77.529h0c20.215-.123,36.846,17.814,36.96,39.862l.186,36.427c.111,22.046-16.336,40.182-36.551,40.307h0c-20.215.123-36.848-17.814-36.961-39.859l-.186-36.43C508.912,95.79,525.359,77.652,545.575,77.529Z" transform="translate(-425.706 -60.724)" fill="#f4ad85" fill-rule="evenodd"/>
          <path id="Path_13625" data-name="Path 13625" d="M581.106,103.017a43.089,43.089,0,0,1,1.43,10.828l.186,36.428c.1,20.272-13.795,37.237-31.751,39.932-1.763.184-2.895.3-3.139.322h-.017c20.074-1.987,24.324-28.357,24.324-36.308V133.57c0-19.511-10.8-21.549-18.187-21.549H517.3a7.161,7.161,0,0,0-6.442,4.358l-1.827-1.388,0-.7a41.743,41.743,0,0,1,11.853-29.639c18.4,3.6,49.01,9.71,51.12,11.029C573.144,96.4,576.891,99.471,581.106,103.017Z" transform="translate(-425.706 -57.18)" fill="#ed9072" fill-rule="evenodd"/>
          <path id="Path_13626" data-name="Path 13626" d="M506.315,105.025l6.6,6.628s3.164-12.323,29.785-8.522-24.547-24.742-30.342-21.625S501.516,93.786,506.315,105.025Z" transform="translate(-428.006 -58.865)" fill="#01020e" fill-rule="evenodd"/>
          <path id="Path_13627" data-name="Path 13627" d="M578.495,113.063s-26.2,2.874-39.534-5.593-24.622-12.392-28.041-7.791c-3.242,4.364,9.8,16.145,4.551,36.184-.284,1.087-.97,19.622-1.37,20.758-.127-7.252-2.45-25.782-4.853-30.42-7.172-13.843-18.389-24.251-3.82-45.01,8.945-12.741,24.135-18.711,31.19-12.265,23,21.005,54.653-6.286,54.846,28.521,0,0,17.055,5.743,1.206,40.639-3.586.019-4.7,2.734-4.684,5.032l.141,18.63C575.319,161.75,575.058,128.175,578.495,113.063Z" transform="translate(-431.028 -66.307)" fill="#0e1632" fill-rule="evenodd"/>
        </g>
        <g id="Group_12940" data-name="Group 12940" transform="translate(742.103 436.724)">
          <g id="Group_12938" data-name="Group 12938" transform="translate(29.561)">
            <path id="Rectangle_1284" data-name="Rectangle 1284" d="M4.352,0h78.47a4.352,4.352,0,0,1,4.352,4.352V136.146a4.353,4.353,0,0,1-4.353,4.353H4.352A4.352,4.352,0,0,1,0,136.147V4.352A4.352,4.352,0,0,1,4.352,0Z" transform="translate(14.837)" fill="#e2e1e7"/>
            <rect id="Rectangle_1285" data-name="Rectangle 1285" width="70.941" height="140.499" rx="3.662" transform="translate(91.644)" fill="#fff"/>
            <path id="Path_13628" data-name="Path 13628" d="M530.066,348.937h76.807c0-13.764,14.837-15.285,14.837-15.285H544.9S530.066,335.173,530.066,348.937Z" transform="translate(-530.066 -295.579)" fill="#fff" fill-rule="evenodd"/>
            <rect id="Rectangle_1286" data-name="Rectangle 1286" width="88.069" height="36.467" rx="2.865" transform="translate(10.546 117.887)" fill="#b92f6d"/>
            <path id="Path_13629" data-name="Path 13629" d="M592.809,386.95h17.456c.394,0,4.647.165,7.029,5.363,2.5,5.452,2.236,10.9,9.654,10.9h3.193c7.42,0,7.211-5.58,9.654-10.9s6.637-5.358,7.031-5.363h16.564a4.3,4.3,0,0,1,4.29,4.29v27.885a4.3,4.3,0,0,1-4.29,4.292H592.809a4.3,4.3,0,0,1-4.29-4.292V391.24A4.3,4.3,0,0,1,592.809,386.95Z" transform="translate(-500.986 -269.063)" fill="#e74d91" fill-rule="evenodd"/>
            <path id="Path_13630" data-name="Path 13630" d="M530.066,381.081h76.807c0-13.765,14.837-15.283,14.837-15.283H544.9S530.066,367.316,530.066,381.081Z" transform="translate(-530.066 -279.587)" fill="#fff" fill-rule="evenodd"/>
            <path id="Path_13631" data-name="Path 13631" d="M674.693,365.757H604.84c0-13.765-13.576-15.284-13.576-15.284h69.85S674.693,351.992,674.693,365.757Z" transform="translate(-499.62 -287.21)" fill="#acabbb" fill-rule="evenodd"/>
            <path id="Path_13632" data-name="Path 13632" d="M599.47,318.42h53.54a2.367,2.367,0,0,1,2.362,2.36h0a2.367,2.367,0,0,1-2.362,2.36H599.47a2.366,2.366,0,0,1-2.358-2.36h0A2.366,2.366,0,0,1,599.47,318.42Z" transform="translate(-496.711 -303.157)" fill="#e2e1e7" fill-rule="evenodd"/>
            <path id="Path_13633" data-name="Path 13633" d="M599.47,335.787h53.54a2.367,2.367,0,0,1,2.362,2.36h0a2.369,2.369,0,0,1-2.362,2.362H599.47a2.368,2.368,0,0,1-2.358-2.362h0A2.366,2.366,0,0,1,599.47,335.787Z" transform="translate(-496.711 -294.517)" fill="#e2e1e7" fill-rule="evenodd"/>
            <path id="Path_13634" data-name="Path 13634" d="M599.47,372.053h53.54a2.367,2.367,0,0,1,2.362,2.36h0a2.367,2.367,0,0,1-2.362,2.36H599.47a2.366,2.366,0,0,1-2.358-2.36h0A2.366,2.366,0,0,1,599.47,372.053Z" transform="translate(-496.711 -276.474)" fill="#e2e1e7" fill-rule="evenodd"/>
            <path id="Path_13635" data-name="Path 13635" d="M548.337,317.143h51.719a2.367,2.367,0,0,1,2.36,2.36h0a2.367,2.367,0,0,1-2.36,2.36H548.337a2.367,2.367,0,0,1-2.36-2.36h0A2.366,2.366,0,0,1,548.337,317.143Z" transform="translate(-522.15 -303.792)" fill="#acabbb" fill-rule="evenodd"/>
            <rect id="Rectangle_1287" data-name="Rectangle 1287" width="56.44" height="4.721" rx="1.576" transform="translate(23.826 71.927)" fill="#acabbb"/>
            <path id="Path_13636" data-name="Path 13636" d="M548.337,381.288h51.719a2.367,2.367,0,0,1,2.36,2.36h0a2.367,2.367,0,0,1-2.36,2.36H548.337a2.367,2.367,0,0,1-2.36-2.36h0A2.366,2.366,0,0,1,548.337,381.288Z" transform="translate(-522.15 -271.88)" fill="#acabbb" fill-rule="evenodd"/>
          </g>
          <g id="Group_12939" data-name="Group 12939" transform="translate(0 60.943)">
            <rect id="Rectangle_1288" data-name="Rectangle 1288" width="52.756" height="85.026" rx="2.634" transform="translate(8.978)" fill="#e2e1e7"/>
            <path id="Rectangle_1289" data-name="Rectangle 1289" d="M2.216,0h38.5A2.215,2.215,0,0,1,42.93,2.215V82.81a2.216,2.216,0,0,1-2.216,2.216H2.216A2.216,2.216,0,0,1,0,82.81V2.216A2.216,2.216,0,0,1,2.216,0Z" transform="translate(55.46)" fill="#fff"/>
            <path id="Path_13637" data-name="Path 13637" d="M510.326,373.559h46.481c0-8.328,8.979-9.249,8.979-9.249H519.3S510.326,365.231,510.326,373.559Z" transform="translate(-510.326 -341.269)" fill="#fff" fill-rule="evenodd"/>
            <path id="Rectangle_1290" data-name="Rectangle 1290" d="M1.733,0H51.563A1.734,1.734,0,0,1,53.3,1.734v18.6a1.734,1.734,0,0,1-1.734,1.734H1.734A1.734,1.734,0,0,1,0,20.333V1.733A1.733,1.733,0,0,1,1.733,0Z" transform="translate(6.382 71.343)" fill="#b92f6d"/>
            <path id="Path_13638" data-name="Path 13638" d="M548.3,396.565h10.563a4.979,4.979,0,0,1,4.256,3.245c1.514,3.3,1.352,6.6,5.84,6.6h1.933c4.489,0,4.364-3.377,5.843-6.6s4.016-3.244,4.254-3.245h10.024a2.6,2.6,0,0,1,2.6,2.6v16.874a2.6,2.6,0,0,1-2.6,2.6H548.3a2.605,2.605,0,0,1-2.6-2.6V399.162A2.605,2.605,0,0,1,548.3,396.565Z" transform="translate(-492.728 -325.222)" fill="#e74d91" fill-rule="evenodd"/>
            <path id="Path_13639" data-name="Path 13639" d="M510.326,393.013h46.481c0-8.331,8.979-9.249,8.979-9.249H519.3S510.326,384.682,510.326,393.013Z" transform="translate(-510.326 -331.591)" fill="#fff" fill-rule="evenodd"/>
            <path id="Path_13640" data-name="Path 13640" d="M597.849,383.739H555.578c0-8.331-8.217-9.249-8.217-9.249h42.273S597.849,375.408,597.849,383.739Z" transform="translate(-491.901 -336.205)" fill="#acabbb" fill-rule="evenodd"/>
            <path id="Path_13641" data-name="Path 13641" d="M552.328,355.092h32.4a1.432,1.432,0,0,1,1.429,1.429h0a1.432,1.432,0,0,1-1.429,1.429h-32.4a1.434,1.434,0,0,1-1.429-1.429h0A1.434,1.434,0,0,1,552.328,355.092Z" transform="translate(-490.141 -345.855)" fill="#e2e1e7" fill-rule="evenodd"/>
            <path id="Path_13642" data-name="Path 13642" d="M552.328,365.6h32.4a1.43,1.43,0,0,1,1.429,1.427h0a1.432,1.432,0,0,1-1.429,1.429h-32.4a1.433,1.433,0,0,1-1.429-1.429h0A1.431,1.431,0,0,1,552.328,365.6Z" transform="translate(-490.141 -340.626)" fill="#e2e1e7" fill-rule="evenodd"/>
            <path id="Path_13643" data-name="Path 13643" d="M552.328,387.549h32.4a1.431,1.431,0,0,1,1.429,1.429h0a1.432,1.432,0,0,1-1.429,1.429h-32.4a1.434,1.434,0,0,1-1.429-1.429h0A1.433,1.433,0,0,1,552.328,387.549Z" transform="translate(-490.141 -329.708)" fill="#e2e1e7" fill-rule="evenodd"/>
            <path id="Rectangle_1291" data-name="Rectangle 1291" d="M.954,0H33.2a.953.953,0,0,1,.953.953V1.9a.953.953,0,0,1-.953.953H.954A.954.954,0,0,1,0,1.9V.954A.954.954,0,0,1,.954,0Z" transform="translate(14.42 8.078)" fill="#acabbb"/>
            <path id="Rectangle_1292" data-name="Rectangle 1292" d="M.953,0H33.2a.953.953,0,0,1,.953.953V1.9a.953.953,0,0,1-.953.953H.954A.954.954,0,0,1,0,1.9V.953A.953.953,0,0,1,.953,0Z" transform="translate(14.42 43.528)" fill="#acabbb"/>
            <path id="Path_13644" data-name="Path 13644" d="M521.384,393.138h31.3a1.432,1.432,0,0,1,1.427,1.429h0A1.433,1.433,0,0,1,552.683,396h-31.3a1.433,1.433,0,0,1-1.429-1.429h0A1.432,1.432,0,0,1,521.384,393.138Z" transform="translate(-505.536 -326.927)" fill="#acabbb" fill-rule="evenodd"/>
          </g>
        </g>
        <g id="Group_12942" data-name="Group 12942" transform="translate(147.175 378.753)">
          <path id="Path_13645" data-name="Path 13645" d="M183.48,271.772l61.366.29a1.464,1.464,0,0,1,1.465,1.463l-.015,6.42a1.465,1.465,0,0,1-1.465,1.466l-61.365-.29A1.464,1.464,0,0,1,182,279.656l.013-6.42a1.465,1.465,0,0,1,1.465-1.465Zm59.9,3.215-58.437-.283-.009,3.491,58.437.283Z" transform="translate(-78.739 -268.394)" fill="#481cbb" fill-rule="evenodd"/>
          <g id="Group_12941" data-name="Group 12941" transform="translate(21.581)">
            <path id="Path_13646" data-name="Path 13646" d="M129.27,363.857l81.076-92.385a1.465,1.465,0,0,1,2.067-.141l4.826,4.235a1.466,1.466,0,0,1,.139,2.067L136.3,370.019a1.465,1.465,0,0,1-2.067.139l-4.826-4.235a1.466,1.466,0,0,1-.141-2.066ZM211.584,274.5l-79.143,90.185,2.624,2.3L214.208,276.8Z" transform="translate(-126.733 -268.793)" fill="#6127fa" fill-rule="evenodd"/>
            <path id="Path_13647" data-name="Path 13647" d="M185.911,269.582a8.171,8.171,0,1,1-7.076,9.135A8.171,8.171,0,0,1,185.911,269.582Z" transform="translate(-101.928 -269.516)" fill="#6127fa" fill-rule="evenodd"/>
            <path id="Path_13648" data-name="Path 13648" d="M129.171,334.99l57.007,108.9a1.465,1.465,0,0,0,1.975.623l5.688-2.977a1.466,1.466,0,0,0,.623-1.977l-57.007-108.9a1.463,1.463,0,0,0-1.974-.623l-5.689,2.979a1.463,1.463,0,0,0-.623,1.974Zm58.924,106.245-55.647-106.3,3.092-1.619,55.649,106.3Z" transform="translate(-126.685 -239.489)" fill="#6127fa" fill-rule="evenodd"/>
            <path id="Path_13649" data-name="Path 13649" d="M168.761,413.016a8.172,8.172,0,1,0-4.725-10.547A8.172,8.172,0,0,0,168.761,413.016Z" transform="translate(-109.525 -205.99)" fill="#481cbb" fill-rule="evenodd"/>
            <path id="Path_13650" data-name="Path 13650" d="M134.6,328.053a8.171,8.171,0,1,1-7.077,9.135A8.172,8.172,0,0,1,134.6,328.053Z" transform="translate(-127.456 -240.427)" fill="#6127fa" fill-rule="evenodd"/>
          </g>
          <rect id="Rectangle_1293" data-name="Rectangle 1293" width="134.532" height="20.642" rx="6.892" transform="translate(0 200.104)" fill="#481cbb"/>
          <rect id="Rectangle_1294" data-name="Rectangle 1294" width="134.532" height="20.642" rx="6.892" transform="translate(40.577 200.104)" fill="#481cbb"/>
          <path id="Path_13651" data-name="Path 13651" d="M220.41,291.021h30.017a15.88,15.88,0,0,0,15.835-15.833H204.577A15.879,15.879,0,0,0,220.41,291.021Z" transform="translate(-67.508 -266.694)" fill="#fff" fill-rule="evenodd"/>
          <path id="Path_13652" data-name="Path 13652" d="M218.69,286.812h18.036a9.542,9.542,0,0,0,9.514-9.514H209.176A9.542,9.542,0,0,0,218.69,286.812Z" transform="translate(-65.22 -265.645)" fill="#dff0f2" fill-rule="evenodd"/>
          <path id="Path_13653" data-name="Path 13653" d="M212.432,270.336h50.207a12.146,12.146,0,0,1,12.112,12.11H200.322A12.145,12.145,0,0,1,212.432,270.336Z" transform="translate(-69.624 -269.108)" fill="#481cbb" fill-rule="evenodd"/>
          <path id="Path_13654" data-name="Path 13654" d="M212.432,270.336h22.958a12.147,12.147,0,0,1,12.11,12.11H200.322A12.145,12.145,0,0,1,212.432,270.336Z" transform="translate(-69.624 -269.108)" fill="#6127fa" fill-rule="evenodd"/>
        </g>
        <g id="Group_12943" data-name="Group 12943" transform="translate(886.788 133.77)">
          <path id="Path_13655" data-name="Path 13655" d="M616.145,126.868a1.108,1.108,0,0,1-1.8-1.285,46.914,46.914,0,1,1-7.365,38.592,1.108,1.108,0,1,1,2.152-.529,44.758,44.758,0,1,0,7.017-36.779Z" transform="translate(-606.944 -105.921)" fill="#0e1632" fill-rule="evenodd"/>
          <path id="Path_13656" data-name="Path 13656" d="M662.171,124.207c-1.243,1.08-4.609,4.54-6.733,11.874,1.842,1.228,6.92,5.111,4.538,9.237l-9.908,17.151c-2.409,4.009-8.244,1.583-10.217.61-5.3,5.517-6.608,10.167-6.917,11.767a15.519,15.519,0,0,0,9.093,1.921c3.661-.442,6.255-2.371,7.234-4.066l19.24-33.324c.96-1.71,1.313-4.9-.123-8.262a15.5,15.5,0,0,0-6.207-6.908ZM653.4,136.26c2.643-9.783,7.589-13.59,8.1-13.964a.959.959,0,0,1,1.083-.075,17.665,17.665,0,0,1,7.547,8.148c1.694,3.961,1.216,7.824.027,9.943l-19.25,33.342c-1.216,2.105-4.344,4.488-8.662,5.009a17.638,17.638,0,0,1-10.792-2.445.955.955,0,0,1-.518-.925c0-.018.508-6.475,8.018-14.03a.953.953,0,0,1,1.186-.186c.019.01,6.359,3.67,8.3.4l9.877-17.112c1.842-3.188-3.929-6.7-4.439-7.007A.957.957,0,0,1,653.4,136.26Z" transform="translate(-595.008 -97.878)" fill="#0e1632" fill-rule="evenodd"/>
          <text id="_24" data-name="24" transform="translate(7.161 52.185)" fill="#0e1632" font-size="35" font-family="OpenSans-Extrabold, Open Sans" font-weight="800"><tspan x="0" y="0">24</tspan></text>
        </g>
        <g id="Group_12945" data-name="Group 12945" transform="translate(616.102 96.931)">
          <path id="Path_13657" data-name="Path 13657" d="M442.074,85.647h63.945a9.994,9.994,0,0,1,9.964,9.964v55.7a1.111,1.111,0,0,1-1.9.786L497.1,135.117h-55.03a9.993,9.993,0,0,1-9.964-9.964V95.611A9.993,9.993,0,0,1,442.074,85.647Z" transform="translate(-423.237 -79.169)" fill="#bfcce8" fill-rule="evenodd"/>
          <g id="Group_12944" data-name="Group 12944" transform="translate(0 0)">
            <path id="Path_13658" data-name="Path 13658" d="M437.466,81.321h63.946A11.312,11.312,0,0,1,512.693,92.6v55.7a2.428,2.428,0,0,1-1.5,2.243h0a2.408,2.408,0,0,1-2.643-.524l-16.6-16.6H437.466a11.307,11.307,0,0,1-11.281-11.282V92.6a11.31,11.31,0,0,1,11.281-11.282Zm63.946,2.634H437.466a8.679,8.679,0,0,0-8.648,8.648v29.54a8.679,8.679,0,0,0,8.648,8.648h55.577l17.016,17.019V92.6a8.674,8.674,0,0,0-8.647-8.648Z" transform="translate(-426.185 -81.321)" fill="#fff" fill-rule="evenodd"/>
            <path id="Path_13659" data-name="Path 13659" d="M433.6,89.155a.72.72,0,1,1,0-1.441H498.61a.72.72,0,1,1,0,1.441Z" transform="translate(-422.853 -78.14)" fill="#fff" fill-rule="evenodd"/>
            <path id="Path_13660" data-name="Path 13660" d="M433.6,93.847a.72.72,0,1,1,0-1.441h6.887a.72.72,0,0,1,0,1.441Zm16.055,0a.72.72,0,1,1,0-1.441H498.61a.72.72,0,1,1,0,1.441Z" transform="translate(-422.853 -75.806)" fill="#fff" fill-rule="evenodd"/>
            <path id="Path_13661" data-name="Path 13661" d="M433.6,98.538a.72.72,0,1,1,0-1.441H498.61a.72.72,0,1,1,0,1.441Z" transform="translate(-422.853 -73.472)" fill="#fff" fill-rule="evenodd"/>
            <path id="Path_13662" data-name="Path 13662" d="M445.675,104.9a.72.72,0,1,1,0-1.441H492.6a.72.72,0,1,1,0,1.441Z" transform="translate(-416.847 -70.308)" fill="#fff" fill-rule="evenodd"/>
            <path id="Path_13663" data-name="Path 13663" d="M459.669,109.987a.72.72,0,0,1,0-1.441h25.973a.72.72,0,1,1,0,1.441Z" transform="translate(-409.885 -67.777)" fill="#fff" fill-rule="evenodd"/>
            <path id="Path_13664" data-name="Path 13664" d="M449.73,109.987a.72.72,0,1,1,0-1.441h9.286a.72.72,0,1,1,0,1.441Z" transform="translate(-414.83 -67.777)" fill="#fff" fill-rule="evenodd"/>
          </g>
        </g>
        <path id="Path_13665" data-name="Path 13665" d="M688.177,416.822a1.642,1.642,0,0,0-3.284,0v3.859h-3.858a1.641,1.641,0,1,0,0,3.283h3.858v3.861a1.642,1.642,0,0,0,3.284,0v-3.861h3.859a1.641,1.641,0,0,0,0-3.283h-3.859Z" transform="translate(315.888 181.706)" fill="#bfcce8" fill-rule="evenodd"/>
        <g id="Group_12948" data-name="Group 12948" transform="translate(237.97 558.001)">
          <g id="Group_12946" data-name="Group 12946" transform="translate(0 14.556)">
            <path id="Path_13666" data-name="Path 13666" d="M278.613,398.934h-55.6a8.31,8.31,0,0,0,0,16.621h55.6a8.31,8.31,0,0,0,0-16.621Z" transform="translate(-153.268 -398.934)" fill="#0076bd" fill-rule="evenodd"/>
            <path id="Path_13667" data-name="Path 13667" d="M174.323,399.581H245.43a7.364,7.364,0,0,1,7.342,7.341h0a7.366,7.366,0,0,1-7.342,7.345H174.323Z" transform="translate(-173.354 -398.612)" fill="#fff" fill-rule="evenodd"/>
            <path id="Path_13668" data-name="Path 13668" d="M174.645,398.934a.968.968,0,1,0,0,1.936h71.107a6.374,6.374,0,0,1,0,12.748H174.645a.968.968,0,1,0,0,1.936h71.107a8.31,8.31,0,0,0,0-16.621Z" transform="translate(-173.676 -398.934)" fill="#004a82" fill-rule="evenodd"/>
            <path id="Path_13669" data-name="Path 13669" d="M258.43,407.244a8.334,8.334,0,0,0-8.311-8.31h7.228a8.31,8.31,0,0,1,0,16.621h-7.228a8.334,8.334,0,0,0,8.311-8.311Z" transform="translate(-135.646 -398.934)" fill="#004a82" fill-rule="evenodd"/>
            <path id="Path_13670" data-name="Path 13670" d="M251.437,407.244a8.334,8.334,0,0,0-8.313-8.31h7.23a8.31,8.31,0,0,1,0,16.621h-7.23a8.334,8.334,0,0,0,8.313-8.311Z" transform="translate(-139.126 -398.934)" fill="#004a82" fill-rule="evenodd"/>
          </g>
          <g id="Group_12947" data-name="Group 12947" transform="translate(8.31)">
            <path id="Path_13671" data-name="Path 13671" d="M186.5,389.214h48.691a7.278,7.278,0,0,1,0,14.556H186.5a7.278,7.278,0,0,1,0-14.556Z" transform="translate(-179.225 -389.214)" fill="#e74d91" fill-rule="evenodd"/>
            <path id="Path_13672" data-name="Path 13672" d="M279.636,389.78H217.37a6.448,6.448,0,0,0-6.429,6.43h0a6.448,6.448,0,0,0,6.429,6.43h62.266Z" transform="translate(-163.446 -388.932)" fill="#fff" fill-rule="evenodd"/>
            <path id="Path_13673" data-name="Path 13673" d="M279.918,389.214a.848.848,0,0,1,0,1.7H217.652a5.582,5.582,0,0,0,0,11.164h62.266a.848.848,0,1,1,0,1.7H217.652a7.278,7.278,0,0,1,0-14.556Z" transform="translate(-163.728 -389.214)" fill="#b92f6d" fill-rule="evenodd"/>
            <path id="Path_13674" data-name="Path 13674" d="M187.686,396.492a7.3,7.3,0,0,1,7.278-7.278h-6.331a7.278,7.278,0,0,0,0,14.556h6.331a7.3,7.3,0,0,1-7.278-7.278Z" transform="translate(-178.165 -389.214)" fill="#b92f6d" fill-rule="evenodd"/>
            <path id="Path_13675" data-name="Path 13675" d="M193.81,396.492a7.3,7.3,0,0,1,7.278-7.278h-6.33a7.278,7.278,0,0,0,0,14.556h6.33a7.3,7.3,0,0,1-7.278-7.278Z" transform="translate(-175.118 -389.214)" fill="#b92f6d" fill-rule="evenodd"/>
          </g>
        </g>
        <g id="Group_12949" data-name="Group 12949" transform="translate(446.021 432.123)">
          <path id="Rectangle_1295" data-name="Rectangle 1295" d="M5.072,0H249.256a5.072,5.072,0,0,1,5.072,5.072V10.12a5.07,5.07,0,0,1-5.07,5.07H5.07A5.07,5.07,0,0,1,0,10.12V5.072A5.072,5.072,0,0,1,5.072,0Z" transform="translate(0 143.765)" fill="#a8a6b5"/>
          <path id="Path_13676" data-name="Path 13676" d="M559.334,413.681H320.195a8.159,8.159,0,0,1-6.655-3.582,7.094,7.094,0,0,1,6.225-3.579H558.9a8.163,8.163,0,0,1,6.653,3.579A7.089,7.089,0,0,1,559.334,413.681Z" transform="translate(-312.145 -254.726)" fill="#96929f" fill-rule="evenodd"/>
          <path id="Path_13677" data-name="Path 13677" d="M547.654,448.92H356.383a9.242,9.242,0,0,1-9.309-9.937l7.83-123.891a10.767,10.767,0,0,1,10.565-9.936H556.74a9.242,9.242,0,0,1,9.308,9.936l-7.831,123.891A10.765,10.765,0,0,1,547.654,448.92Z" transform="translate(-295.471 -305.155)" fill="#96929f" fill-rule="evenodd"/>
          <path id="Path_13678" data-name="Path 13678" d="M545.781,448.92H360.151a9.242,9.242,0,0,1-9.308-9.937l7.83-123.891a10.766,10.766,0,0,1,10.563-9.936h185.63a9.242,9.242,0,0,1,9.307,9.936l-7.831,123.891A10.764,10.764,0,0,1,545.781,448.92Z" transform="translate(-293.597 -305.155)" fill="#fff" fill-rule="evenodd"/>
          <path id="Path_13679" data-name="Path 13679" d="M533.21,448.92h-19.1L355.758,322.357l.46-7.266a10.461,10.461,0,0,1,2.267-5.822L533.21,448.92ZM379.932,305.155,552.669,443.217a10.314,10.314,0,0,0,1.219-4.235l1.219-19.265L411.769,305.155Z" transform="translate(-291.142 -305.155)" fill="#f0eef0" fill-rule="evenodd"/>
          <path id="Rectangle_1296" data-name="Rectangle 1296" d="M5.072,0H53.577A5.072,5.072,0,0,1,58.65,5.072V10.12a5.07,5.07,0,0,1-5.07,5.07H5.07A5.07,5.07,0,0,1,0,10.12V5.072A5.072,5.072,0,0,1,5.072,0Z" transform="translate(0 143.765)" fill="#fff"/>
          <path id="Path_13680" data-name="Path 13680" d="M547.205,406.216H348.211a4.1,4.1,0,0,1-4.024-3.8h0a3.546,3.546,0,0,1,3.569-3.8H546.75a4.1,4.1,0,0,1,4.025,3.8h0A3.546,3.546,0,0,1,547.205,406.216Z" transform="translate(-296.901 -258.656)" fill="#d2ced6" fill-rule="evenodd"/>
        </g>
        <g id="Group_12950" data-name="Group 12950" transform="translate(76.076 296.152)">
          <path id="Path_13681" data-name="Path 13681" d="M359.022,340.582c-1.468-7.3-1.1-11.389.3-18.316l-31.358-2.648,43.645-19.128s9.264-11.366,13.629-22.528-7.474-39.551-11.925-46.595-13.695-5.989-19.784-2.177c0,0-9.142-13.777-20.056-14.7s-45.6,2.276-55.68,27.734,6.135,50.9-10.093,77.091a6.524,6.524,0,0,0,.677,6.1c2.107,2.793,27.695,32.613,86.01,20.6,0,0,4.648-1.078,4.63-5.436Z" transform="translate(34.761 -214.357)" fill="#0e1632" fill-rule="evenodd"/>
          <path id="Path_13682" data-name="Path 13682" d="M317.925,329.292c3.212-35.067,5.476-65.546,5.476-65.546l-2.976-9.882s-26.853,21.7-45.919-1.131c.906,15.665,3.145,31.439-6.8,47.49a6.524,6.524,0,0,0,.677,6.1l.085.114.031.037.073.093.078.1.046.06.138.165.009.009.165.2.048.055.138.159.117.135.09.1.2.225.027.027.246.268.055.06.214.226.148.157.139.144.1.1.21.213.329.332.229.222.172.172c5.58,5.4,18.576,15.379,40.474,18.845l.064.009q2.848.449,5.9.744Z" transform="translate(34.761 -195.264)" fill="#010518" fill-rule="evenodd"/>
          <path id="Path_13683" data-name="Path 13683" d="M354.152,310.279c-1.993-9.921-.6-13.909,2.18-27.16l-49.9-7.853-21.807,4.226a146.18,146.18,0,0,1-7.606,27c13.277,8.218,36.731,16.591,72.5,9.22,0,0,4.648-1.078,4.63-5.436Z" transform="translate(39.631 -184.054)" fill="#010518" fill-rule="evenodd"/>
          <path id="Path_13684" data-name="Path 13684" d="M305.735,300.58c13.808,4.331,32.686,9.509,48.962,17.512,1.125.554-1.168,4.886-.124,5.466a38.159,38.159,0,0,1,7.142,5.806c7.6,7.517,23.072,66.353,21.691,72.214-2.222,9.43-21.766,35.335-21.766,35.335-3.882,7.5-8.693,18.415-13.419,30.214H251.15c6.761-21.979,9.277-36.867,9.457-50.286h0c5.183-45.618-19.345-55.542-19.345-55.542l25.4-59.779c9.882-3.5,29.591-2.183,29.591-2.183C301.467,299.331,301.07,299.116,305.735,300.58Z" transform="translate(21.842 -172.2)" fill="#6127fa" fill-rule="evenodd"/>
          <path id="Path_13685" data-name="Path 13685" d="M329.577,459.02h-13.7c2.553-6.833,14.43-39.145,16.97-46.041-11.546-2.01-27.44-4.765-30.242-5.431s-13.533,5.464-13.533,5.464l1.192-6.974-11.522,11.6,19.7-36.788s32.145,7.26,38.975,8.5,2.664.3,3.934.2c3.8-10.685-2.421-13.674-1.683-18.845s.957-55.322.957-55.322c4.154,2.152,6.03,6.83,8.381,14.211,1.545,4.856,9.753,36.776,13.151,55.655.809,4.491,1.448,7.851,1.852,10.532C356.392,415.2,339.294,434.754,329.577,459.02Z" transform="translate(40.487 -164.094)" fill="#491dbe" fill-rule="evenodd"/>
          <path id="Path_13686" data-name="Path 13686" d="M306.781,263.287l-4.859,14.6s-7.351,34.455-9.051,38.923c-.591,1.551-2.535,2.025-5.524,1.953,4.3,6.159,12.654,15.556,24.728,17.844,7.711,1.462,13.1.022,16.763-2.137-2.579-1.361-5.044-2.979-5.033-4.307.1-11.758,2.125-32.454,8.5-36.28C339.6,289.5,306.781,263.287,306.781,263.287Z" transform="translate(44.768 -190.014)" fill="#e8685b" fill-rule="evenodd"/>
          <path id="Path_13687" data-name="Path 13687" d="M291.273,300.357a30.693,30.693,0,0,1-6.957-.271c2.971,4.281,7.765,9.091,15.456,13.964,19.039,12.064,28.207,5.49,31.106,2.39a21.248,21.248,0,0,1-4.641-2.978h0c-17.768,8.681-34.962-13.1-34.962-13.1Z" transform="translate(43.261 -171.706)" fill="#fff" fill-rule="evenodd"/>
          <path id="Path_13688" data-name="Path 13688" d="M322.113,311.539s7.592,76.411,6.67,82.864-12.992,38.251-23.574,66.543H323.4c3.594-6.924,6.34-12.332,6.839-13.635.325-.842,1.581-3.286,3.311-6.487,3.109-5.756,7.753-13.963,11.252-19.709,11.155-18.311,11.125-14.036,7.264-35.486-3.4-18.879-13.825-53.811-15.372-58.668C334.347,319.579,324.082,311,322.113,311.539Z" transform="translate(53.655 -166.02)" fill="#1c2344" fill-rule="evenodd"/>
          <path id="Path_13689" data-name="Path 13689" d="M318.583,385.367c-2.5,6.99-5.41,14.951-8.426,23.123,5.532.478,9.949,1.033,11.514,1.647,5.532,2.173,6.11,4.651,6.11,4.651.323-.842,1.58-3.286,3.309-6.487,3.11-5.756,7.753-13.963,11.252-19.709,3.356-5.509,5.7-8.972,7.228-11.706-2.147,1.884-5.569,4.728-7.236,5.232C340.321,382.73,324.816,384.622,318.583,385.367Z" transform="translate(56.117 -133.498)" fill="#0e1632" fill-rule="evenodd"/>
          <path id="Path_13690" data-name="Path 13690" d="M303.958,299.351S317.89,366.841,319.8,386.46s-4.226,33.659-11.128,48.4c-2.327,4.969-9.788,17.648-18.976,32.665H246.8l4.588-106.016-12.3-2.851c.731-5.325,1.328-9.735,1.737-12.826l24.219-42.82S274.173,295.606,303.958,299.351Z" transform="translate(20.76 -172.598)" fill="#1c2344" fill-rule="evenodd"/>
          <path id="Path_13691" data-name="Path 13691" d="M277.881,323.745c-6.844,27.484-2.092,38.881-2.092,38.881l3.666-17.1s3.467,25.243,7.324,28.462c1.915,1.6,24.716,5.971,33.261,7.564a71.681,71.681,0,0,1-4.2,28.276c-6.132.63-43.028-4.567-44.79,7.353-.879,5.945-.681-13.182-.681-13.182l-2.183,55.437H246.8l4.588-106.016-12.3-2.851.033-.25.034-.246.034-.247.033-.246h0l.034-.243.033-.243.033-.24.033-.24.033-.238.031-.237.031-.235h0l.031-.234.033-.232.03-.231h0l.033-.228.03-.228h0l.031-.226h0l.03-.225h0l.031-.225h0l.03-.22h0l.03-.22h0l.028-.22h0l.03-.216v0l.03-.216h0l.028-.214h0l.028-.211h0l.028-.211h0l.028-.208h0l.028-.208h0l.028-.205h0l.027-.2v0l.027-.2h0l.028-.2h0l.027-.2h0l.027-.2h0l.025-.2h0l.027-.192h0l.025-.192h0l.027-.19h0l.025-.19h0l.024-.187h0l.025-.186h0l.025-.184v0l.024-.181h0l.025-.18v0l.024-.18h0l.024-.177h0l.022-.175h0l.024-.172h0l.022-.172h0l.022-.171v0l.022-.166h0l.024-.166h0l.021-.165h0l.021-.162h0l.022-.159h0l.021-.16h0l.021-.156h0l.021-.154h0l.02-.153h0l.021-.151v0l.019-.148v0l.019-.145h0l.019-.145,13.115-23.186Z" transform="translate(20.76 -164.508)" fill="#0e1632" fill-rule="evenodd"/>
          <path id="Path_13692" data-name="Path 13692" d="M244.78,332.169c-7.853,21.459-9.99,95.054-3.519,134.564h34.457c-14.093-78.427,15.507-134.525,9-154.4C274.31,280.517,249.943,318.065,244.78,332.169Z" transform="translate(19.941 -171.807)" fill="#383d5d" fill-rule="evenodd"/>
          <path id="Path_13693" data-name="Path 13693" d="M337.969,279.326l3.84-1.683a110.748,110.748,0,0,0,11.174-17.122c-.914,1.74-6.965,12.321-15.824,5.855-9.632-7.035-10.02,4.1-10.02,4.1s5.827,6.619,9.211,8.166c.437.2.988.431,1.619.68ZM353.1,260.291l0-.008h0Z" transform="translate(64.565 -191.509)" fill="#010518" fill-rule="evenodd"/>
          <path id="Path_13694" data-name="Path 13694" d="M335.668,268.748a10.984,10.984,0,1,0,9.794,12.058A10.988,10.988,0,0,0,335.668,268.748Z" transform="translate(62.781 -187.326)" fill="#e8685b" fill-rule="evenodd"/>
          <path id="Path_13695" data-name="Path 13695" d="M284.029,263.522c-.274.012-.545.036-.815.067h-.007a10.987,10.987,0,1,0,8.951,2.973c0,3.254-.846,7.209-5,7.261l.651-6.3C288.069,264.975,285.785,263.6,284.029,263.522Z" transform="translate(37.916 -189.897)" fill="#e8685b" fill-rule="evenodd"/>
          <path id="Path_13696" data-name="Path 13696" d="M327.1,229.486h0a37.733,37.733,0,0,0-41.3,33.546l-3.522,34.01a37.732,37.732,0,0,0,33.547,41.3h0a37.731,37.731,0,0,0,41.3-33.546l3.522-34.01A37.731,37.731,0,0,0,327.1,229.486Z" transform="translate(42.148 -206.93)" fill="#f4ad85" fill-rule="evenodd"/>
          <path id="Path_13697" data-name="Path 13697" d="M285.185,262.356,282.28,290.4a37.77,37.77,0,0,0,23.981,39.007c-21.9-9.07-10.671-47.131-10.671-47.131,4.434-.755,11.427-9.019,15.493-13.829s7.212-9.662,14.228-9.52,21.841,3.825,21.841,3.825c3.1,7.329,8.8,12.66,12.056,15.273l1.438-13.882a37.328,37.328,0,0,0-.713-12.077c-.908-.533-1.839-1.072-2.823-1.626C326.977,233.5,301.4,247.2,285.185,262.356Z" transform="translate(42.148 -200.29)" fill="#ed9072" fill-rule="evenodd"/>
          <path id="Path_13698" data-name="Path 13698" d="M345.025,253.146l-6.086,2.585a17.95,17.95,0,0,0-12.268-1.974s-13.359-4.91-20.438-2.174-2.914-7.094-1.617-7.525,14.705-1.28,20.556-.156,14.656,2.5,14.656,2.5Z" transform="translate(52.167 -199.936)" fill="#010518" fill-rule="evenodd"/>
          <path id="Path_13699" data-name="Path 13699" d="M283.609,262.307l3.606.633s2.5,11.4-4.573,11.489l.651-6.3a3.567,3.567,0,0,0-.073-1.207Z" transform="translate(42.428 -190.501)" fill="#010518" fill-rule="evenodd"/>
          <path id="Path_13700" data-name="Path 13700" d="M337.284,262.509c-5.5-7.42-14.485-8.937-21.473,1.484-6.381,9.521-15.862,26-31.814,24.652l-.079-.292.037,0,.9-10.631s-1.343.35-2.974.734a68.613,68.613,0,0,1-.551-19.051c1.848-13.359,20.433-32.873,41.4-33.625s36.132,11.7,39.136,18.8,5.969,23.208,5.969,23.208l-3.688,5.276-3.974,10.487c-9.644-9.382-8.654-18.255-12.846-22.725C345.057,258.41,341.662,258.4,337.284,262.509Z" transform="translate(41.553 -208.688)" fill="#0e1632" fill-rule="evenodd"/>
          <path id="Path_13701" data-name="Path 13701" d="M313.432,253.491c-6.327,9.574-15.4,22.552-29.634,21.353l-.079-.292.037,0,.9-10.631s-1.343.35-2.974.734c-.141-.918-.274-1.879-.4-2.872C297.353,266.452,313.379,253.533,313.432,253.491Z" transform="translate(41.753 -194.887)" fill="#010518" fill-rule="evenodd"/>
          <path id="Path_13702" data-name="Path 13702" d="M314.22,310.482s9.789,80.313,9.6,82.92-2.794,15.167-2.794,15.167,4.726-7.923,5.885-14.49,4.25-51,4.25-51l-5.214-2.8,4.829-.291-7.971-24.95a7.048,7.048,0,0,0-2.17-2.576c-1.255-.726-5.83-3.02-5.9-3.055a2.991,2.991,0,0,0-1.79.216S313.886,310.274,314.22,310.482Z" transform="translate(57.5 -167.091)" fill="#484e6a" fill-rule="evenodd"/>
          <path id="Path_13703" data-name="Path 13703" d="M286.909,299.313s13.931,67.489,15.841,87.108a69.616,69.616,0,0,1-1.207,21.747c2.567-20.068-25.675-67.287-25.675-67.287l7.339-3.479-9.851-4.442s4.54-25.4,4.829-29.649c.281-4.132-1.908-4.9-2.031-4.94C279.4,298.519,282.971,298.819,286.909,299.313Z" transform="translate(37.809 -172.559)" fill="#484e6a" fill-rule="evenodd"/>
          <path id="Path_13704" data-name="Path 13704" d="M111.564,441.74h12.2a8.864,8.864,0,0,0,8.84-8.837h0a8.867,8.867,0,0,0-8.84-8.84H91.54a7.037,7.037,0,0,1-7.016-7.013h0a7.038,7.038,0,0,1,7.016-7.017h851.2a7.038,7.038,0,0,1,7.016,7.017h0a7.038,7.038,0,0,1-7.016,7.013H898.556a8.865,8.865,0,0,0-8.838,8.84h0a8.862,8.862,0,0,0,8.838,8.837h10.355a14.07,14.07,0,0,1,14.029,14.03h0a14.073,14.073,0,0,1-14.029,14.03H111.564a14.076,14.076,0,0,1-14.03-14.03h0a14.072,14.072,0,0,1,14.03-14.03ZM72.583,410.033a7.016,7.016,0,1,1-7.016,7.017A7.018,7.018,0,0,1,72.583,410.033Z" transform="translate(-65.567 -117.007)" fill="#6127fa" fill-rule="evenodd"/>
        </g>
        <g id="Group_12951" data-name="Group 12951" transform="translate(482.539 221.46)">
          <path id="Path_13705" data-name="Path 13705" d="M412.22,164.479H348.276a11.31,11.31,0,0,0-11.282,11.282v55.7a2.428,2.428,0,0,0,1.5,2.242h0a2.41,2.41,0,0,0,2.645-.524l16.594-16.6H412.22A11.315,11.315,0,0,0,423.5,205.3v-29.54a11.312,11.312,0,0,0-11.284-11.282Zm-63.943,2.633H412.22a8.679,8.679,0,0,1,8.65,8.65V205.3a8.677,8.677,0,0,1-8.65,8.648H356.644l-17.016,17.018V175.761a8.679,8.679,0,0,1,8.648-8.65Z" transform="translate(-336.994 -164.479)" fill="#1a293d" fill-rule="evenodd"/>
          <path id="Path_13706" data-name="Path 13706" d="M409.421,172.312a.72.72,0,0,0,0-1.439h-65.01a.72.72,0,1,0,0,1.439Z" transform="translate(-333.662 -161.298)" fill="#1a293d" fill-rule="evenodd"/>
          <path id="Path_13707" data-name="Path 13707" d="M409.421,177a.72.72,0,0,0,0-1.439h-6.887a.72.72,0,0,0,0,1.439Zm-16.055,0a.72.72,0,1,0,0-1.439H344.411a.72.72,0,1,0,0,1.439Z" transform="translate(-333.662 -158.964)" fill="#1a293d" fill-rule="evenodd"/>
          <path id="Path_13708" data-name="Path 13708" d="M409.421,181.7a.72.72,0,0,0,0-1.441h-65.01a.72.72,0,0,0,0,1.441Z" transform="translate(-333.662 -156.63)" fill="#1a293d" fill-rule="evenodd"/>
          <path id="Path_13709" data-name="Path 13709" d="M391.343,188.056a.72.72,0,0,0,0-1.441H344.411a.72.72,0,0,0,0,1.441Z" transform="translate(-333.662 -153.466)" fill="#1a293d" fill-rule="evenodd"/>
          <path id="Path_13710" data-name="Path 13710" d="M370.387,193.145a.72.72,0,1,0,0-1.441H344.411a.72.72,0,0,0,0,1.441Z" transform="translate(-333.662 -150.935)" fill="#1a293d" fill-rule="evenodd"/>
          <path id="Path_13711" data-name="Path 13711" d="M374.782,193.145a.72.72,0,0,0,0-1.441h-9.287a.72.72,0,1,0,0,1.441Z" transform="translate(-323.173 -150.935)" fill="#1a293d" fill-rule="evenodd"/>
        </g>
      </g>
    </g>
    <path id="Path_13523" data-name="Path 13523" d="M342.724,274.037a2.6,2.6,0,0,1-2.974,2.082,2.486,2.486,0,0,1-2.169-2.825,2.6,2.6,0,0,1,2.97-2.084A2.49,2.49,0,0,1,342.724,274.037Z" transform="translate(922.707 328.588)" fill="#263238"/>
    <path id="Path_13524" data-name="Path 13524" d="M345.979,272.8c-.382.269-2.029-1.546-4.775-2.087-2.735-.58-5.033.43-5.263.034-.117-.179.326-.715,1.33-1.178a7.14,7.14,0,0,1,4.3-.437,6.851,6.851,0,0,1,3.719,2.077C346,272.026,346.164,272.684,345.979,272.8Z" transform="translate(921.457 326.898)" fill="#263238"/>
    <path id="Path_13525" data-name="Path 13525" d="M327.4,271.525a2.6,2.6,0,0,1-2.974,2.08,2.487,2.487,0,0,1-2.171-2.825,2.605,2.605,0,0,1,2.972-2.084A2.492,2.492,0,0,1,327.4,271.525Z" transform="translate(910.924 326.654)" fill="#263238"/>
    <path id="Path_13526" data-name="Path 13526" d="M330.672,270.044c-.384.269-2.033-1.546-4.777-2.088-2.735-.58-5.033.43-5.263.034-.117-.179.322-.715,1.33-1.176a7.151,7.151,0,0,1,4.3-.44,6.864,6.864,0,0,1,3.719,2.079C330.688,269.267,330.856,269.927,330.672,270.044Z" transform="translate(909.684 324.777)" fill="#263238"/>
    <path id="Path_13528" data-name="Path 13528" d="M325.218,281.178c.451.064-.138,3.045,1.99,5.668s5.364,2.931,5.3,3.351c0,.2-.823.439-2.171.207a7.571,7.571,0,0,1-4.462-2.629,6.585,6.585,0,0,1-1.477-4.715C324.537,281.792,325.018,281.122,325.218,281.178Z" transform="matrix(0.719, -0.695, 0.695, 0.719, 808.604, 656.652)" fill="#263238"/>
    <path id="Path_13527" data-name="Path 13527" d="M329.63,291.067c.019-.157,1.785-.111,4.619.087.716.069,1.406.062,1.62-.393a3.637,3.637,0,0,0-.053-2.172q-.48-2.741-1.007-5.75c-1.36-8.175-2.2-14.839-1.865-14.89s1.7,6.532,3.059,14.7q.478,3.017.913,5.765a4.136,4.136,0,0,1-.186,2.823,1.788,1.788,0,0,1-1.357.794,4.79,4.79,0,0,1-1.224-.073C331.339,291.558,329.611,291.226,329.63,291.067Z" transform="translate(913.793 334.305)" fill="#263238"/>
    <path id="Path_14348" data-name="Path 14348" d="M337.58,274.037a2.6,2.6,0,0,0,2.974,2.082,2.486,2.486,0,0,0,2.169-2.825,2.6,2.6,0,0,0-2.97-2.084A2.49,2.49,0,0,0,337.58,274.037Z" transform="translate(1037.793 304.945)" fill="#263238"/>
    <path id="Path_14349" data-name="Path 14349" d="M335.993,272.8c.382.269,2.029-1.546,4.775-2.087,2.735-.58,5.033.43,5.263.034.117-.179-.326-.715-1.33-1.178a7.14,7.14,0,0,0-4.3-.437,6.851,6.851,0,0,0-3.719,2.077C335.972,272.026,335.807,272.684,335.993,272.8Z" transform="translate(1037.375 303.254)" fill="#263238"/>
    <path id="Path_14350" data-name="Path 14350" d="M322.258,271.525a2.6,2.6,0,0,0,2.974,2.08,2.487,2.487,0,0,0,2.171-2.825,2.605,2.605,0,0,0-2.972-2.084A2.492,2.492,0,0,0,322.258,271.525Z" transform="translate(1080.219 303.012)" fill="#263238"/>
    <path id="Path_14351" data-name="Path 14351" d="M320.683,270.044c.384.269,2.033-1.546,4.777-2.088,2.735-.58,5.033.43,5.263.034.117-.179-.322-.715-1.33-1.176a7.151,7.151,0,0,0-4.3-.44,6.864,6.864,0,0,0-3.719,2.079C320.667,269.267,320.5,269.927,320.683,270.044Z" transform="translate(1079.766 301.133)" fill="#263238"/>
    <path id="Path_14352" data-name="Path 14352" d="M.847,9.32C1.3,9.257.709,6.276,2.837,3.652S8.2.721,8.141.3c0-.2-.823-.439-2.171-.207A7.571,7.571,0,0,0,1.509,2.724,6.585,6.585,0,0,0,.031,7.438C.166,8.707.647,9.377.847,9.32Z" transform="matrix(-0.719, -0.695, 0.695, -0.719, 1397.068, 616.648)" fill="#263238"/>
    <path id="Path_14353" data-name="Path 14353" d="M337.078,291.066c-.019-.157-1.785-.111-4.619.087-.716.069-1.406.062-1.62-.393a3.636,3.636,0,0,1,.053-2.172q.48-2.741,1.007-5.75c1.36-8.175,2.2-14.839,1.865-14.89s-1.7,6.531-3.059,14.7q-.478,3.017-.913,5.765a4.136,4.136,0,0,0,.186,2.823,1.788,1.788,0,0,0,1.357.794,4.79,4.79,0,0,0,1.224-.073C335.369,291.558,337.1,291.226,337.078,291.066Z" transform="translate(1060.303 310.66)" fill="#263238"/>
    <path id="Path_14354" data-name="Path 14354" d="M337.58,274.037a2.6,2.6,0,0,0,2.974,2.082,2.486,2.486,0,0,0,2.169-2.825,2.6,2.6,0,0,0-2.97-2.084A2.49,2.49,0,0,0,337.58,274.037Z" transform="translate(1213.793 100.945)" fill="#263238"/>
    <path id="Path_14355" data-name="Path 14355" d="M335.993,272.8c.382.269,2.029-1.546,4.775-2.087,2.735-.58,5.033.43,5.263.034.117-.179-.326-.715-1.33-1.178a7.14,7.14,0,0,0-4.3-.437,6.851,6.851,0,0,0-3.719,2.077C335.972,272.026,335.807,272.684,335.993,272.8Z" transform="translate(1213.375 99.254)" fill="#263238"/>
    <path id="Path_14356" data-name="Path 14356" d="M322.258,271.525a2.6,2.6,0,0,0,2.974,2.08,2.487,2.487,0,0,0,2.171-2.825,2.605,2.605,0,0,0-2.972-2.084A2.492,2.492,0,0,0,322.258,271.525Z" transform="translate(1256.219 99.012)" fill="#263238"/>
    <path id="Path_14357" data-name="Path 14357" d="M320.683,270.044c.384.269,2.033-1.546,4.777-2.088,2.735-.58,5.033.43,5.263.034.117-.179-.322-.715-1.33-1.176a7.151,7.151,0,0,0-4.3-.44,6.864,6.864,0,0,0-3.719,2.079C320.667,269.267,320.5,269.927,320.683,270.044Z" transform="translate(1255.766 97.133)" fill="#263238"/>
    <path id="Path_14358" data-name="Path 14358" d="M.847,9.32C1.3,9.257.709,6.276,2.837,3.652S8.2.721,8.141.3c0-.2-.823-.439-2.171-.207A7.571,7.571,0,0,0,1.509,2.724,6.585,6.585,0,0,0,.031,7.438C.166,8.707.647,9.377.847,9.32Z" transform="matrix(-0.719, -0.695, 0.695, -0.719, 1573.068, 412.648)" fill="#263238"/>
    <path id="Path_14359" data-name="Path 14359" d="M337.078,291.066c-.019-.157-1.785-.111-4.619.087-.716.069-1.406.062-1.62-.393a3.636,3.636,0,0,1,.053-2.172q.48-2.741,1.007-5.75c1.36-8.175,2.2-14.839,1.865-14.89s-1.7,6.531-3.059,14.7q-.478,3.017-.913,5.765a4.136,4.136,0,0,0,.186,2.823,1.788,1.788,0,0,0,1.357.794,4.79,4.79,0,0,0,1.224-.073C335.369,291.558,337.1,291.226,337.078,291.066Z" transform="translate(1236.303 106.66)" fill="#263238"/>
  </g>
</svg>
