<svg xmlns="http://www.w3.org/2000/svg" xmlns:xlink="http://www.w3.org/1999/xlink" width="54.934" height="54.929" viewBox="0 0 54.934 54.929">
  <defs>
    <filter id="Path_11287" x="0" y="0" width="54.934" height="54.929" filterUnits="userSpaceOnUse">
      <feOffset dy="3" input="SourceAlpha"/>
      <feGaussianBlur stdDeviation="3" result="blur"/>
      <feFlood flood-opacity="0.161"/>
      <feComposite operator="in" in2="blur"/>
      <feComposite in="SourceGraphic"/>
    </filter>
  </defs>
  <g id="play-button" transform="translate(9 5.998)">
    <path id="Path_11286" data-name="Path 11286" d="M21.685,15.51,14.016,9.935a.925.925,0,0,0-1.469.746V21.827a.922.922,0,0,0,.505.825.931.931,0,0,0,.42.1.919.919,0,0,0,.543-.179L21.685,17a.917.917,0,0,0,0-1.492Z" transform="translate(2.874 2.234)" fill="#6127fa"/>
    <g transform="matrix(1, 0, 0, 1, -9, -6)" filter="url(#Path_11287)">
      <path id="Path_11287-2" data-name="Path 11287" d="M18.468,0A18.464,18.464,0,1,0,36.934,18.47,18.465,18.465,0,0,0,18.468,0Zm0,33.848a15.383,15.383,0,1,1,15.38-15.38A15.38,15.38,0,0,1,18.468,33.85Z" transform="translate(9 6)" fill="#6127fa"/>
    </g>
  </g>
</svg>
