<svg xmlns="http://www.w3.org/2000/svg" width="659.029" height="716.837" viewBox="0 0 659.029 716.837">
  <g id="Group_13391" data-name="Group 13391" transform="translate(-1130.97 -161.494)">
    <ellipse id="Shadow" cx="69.383" cy="40.058" rx="69.383" ry="40.058" transform="translate(1462.451 738.15)" fill="#effafa"/>
    <ellipse id="Shadow-2" data-name="Shadow" cx="69.383" cy="40.058" rx="69.383" ry="40.058" transform="translate(1642.961 714.43)" fill="#effafa"/>
    <ellipse id="Shadow-3" data-name="Shadow" cx="69.383" cy="40.058" rx="69.383" ry="40.058" transform="translate(1263.439 798.215)" fill="#effafa"/>
    <g id="Group_13337" data-name="Group 13337" transform="translate(1144.245 617.291)">
      <path id="Path_14360" data-name="Path 14360" d="M127.184,390.522s-1.819-42.357-19.57-65.925-39.525-26.966-50.329-20.333c-7.873,4.834-6.811,19.184,6.818,28.562s39.9,33.219,44.009,48.8Z" transform="translate(-52.357 -301.272)" fill="#6127fa"/>
      <g id="Group_13336" data-name="Group 13336" transform="translate(20.482 13.131)">
        <path id="Path_14361" data-name="Path 14361" d="M107.263,379.052a1.1,1.1,0,0,1-1.03-1.149c1.824-38.432-31.9-62.4-41.031-66.709a1.1,1.1,0,0,1,.937-1.989c9.412,4.448,44.17,29.154,42.29,68.8a1.1,1.1,0,0,1-1.15,1.046Z" transform="translate(-64.572 -309.103)" fill="#fff"/>
      </g>
    </g>
    <g id="Group_13340" data-name="Group 13340" transform="translate(1130.97 670.865)">
      <path id="Path_14362" data-name="Path 14362" d="M124.108,355.526c-2.467-.355-4.854-.793-6.477-2.581-2.067-2.279-1.891-5.741-2.844-8.667-1.559-4.792-6.29-8.042-11.223-9.073S93.5,335.021,88.6,336.223c-9.89,2.426-19.4-3.66-29.312-2.941a19.809,19.809,0,0,0-10.036,3.141c-2.9,2.044-5.005,5.45-4.8,8.994a11.49,11.49,0,0,0,4.083,7.629,34.141,34.141,0,0,0,7.509,4.69l8.7,4.433a15.573,15.573,0,0,1,4.043,2.622c2.15,2.143,3.64,6.29,3.038,9.264-.671,3.318-3.392,5.909-4.2,9.2-1.063,4.318,1.575,8.926,5.359,11.258s8.444,2.77,12.883,2.513,8.828-1.144,13.273-1.222a15.781,15.781,0,0,1,8.657,1.881c3.105,1.928,4.91,5.393,6.083,8.853.755,2.223,1.336,4.569,2.721,6.466a12.468,12.468,0,0,0,5.907,4.108,20.092,20.092,0,0,0,13.847-.025c3.665-1.405,5.458-5.549,6.828-9.133a31.856,31.856,0,0,0,1.93-11.711,75,75,0,0,0-6.823-29.748c-2.062-4.3-5.059-8.589-9.59-10.078A27.293,27.293,0,0,0,124.108,355.526Z" transform="translate(-44.44 -333.223)" fill="#6127fa"/>
      <g id="Group_13338" data-name="Group 13338" transform="translate(10.333 7.327)">
        <path id="Path_14363" data-name="Path 14363" d="M129.543,398.622a.975.975,0,0,1-.924-.656c-10.337-29.657-59.3-55.472-77.2-58.429a.978.978,0,1,1,.319-1.93c18.242,3.013,68.157,29.387,78.727,59.714a.976.976,0,0,1-.6,1.246A.936.936,0,0,1,129.543,398.622Z" transform="translate(-50.602 -337.592)" fill="#fff"/>
      </g>
      <g id="Group_13339" data-name="Group 13339" transform="translate(44.301 41.627)">
        <path id="Path_14364" data-name="Path 14364" d="M71.839,368.54a.979.979,0,0,1-.6-1.756,49.445,49.445,0,0,1,27.193-8.736h.022a.979.979,0,0,1,.022,1.958,48.212,48.212,0,0,0-26.042,8.33A.983.983,0,0,1,71.839,368.54Z" transform="translate(-70.86 -358.048)" fill="#fff"/>
      </g>
    </g>
    <path id="Path_14365" data-name="Path 14365" d="M99.421,630.128a8.107,8.107,0,0,1-3.548-6.415l0-349.438a8.358,8.358,0,0,1,3.783-6.551L510.752,30.39a8.111,8.111,0,0,1,7.331-.134,8.109,8.109,0,0,1,3.548,6.415l0,349.438a8.358,8.358,0,0,1-3.783,6.551L106.75,629.994A8.108,8.108,0,0,1,99.421,630.128Z" transform="translate(1121.338 132.049)" fill="#455a64"/>
    <path id="Path_14366" data-name="Path 14366" d="M106.033,513.421a.57.57,0,0,1-.156.052,1.5,1.5,0,0,1-.367.139,1.336,1.336,0,0,1-.28.089,2.3,2.3,0,0,1-.523.121,1.133,1.133,0,0,1-.35.07,5.409,5.409,0,0,1-.577.087,7.3,7.3,0,0,1-4.35-.751,8.07,8.07,0,0,1-3.546-6.41l-.017-304.646,7.11,4.106V510.906c0,1.712.857,2.706,2.1,2.706a1.692,1.692,0,0,0,.506-.069.155.155,0,0,0,.089-.018A1.444,1.444,0,0,0,106.033,513.421Z" transform="translate(1121.335 248.949)" fill="#27debf"/>
    <path id="Path_14367" data-name="Path 14367" d="M106.033,513.421a.57.57,0,0,1-.156.052,1.5,1.5,0,0,1-.367.139,1.336,1.336,0,0,1-.28.089,2.3,2.3,0,0,1-.523.121,1.133,1.133,0,0,1-.35.07,5.409,5.409,0,0,1-.577.087,7.3,7.3,0,0,1-4.35-.751,8.07,8.07,0,0,1-3.546-6.41l-.017-304.646,7.11,4.106V510.906c0,1.712.857,2.706,2.1,2.706a1.692,1.692,0,0,0,.506-.069.155.155,0,0,0,.089-.018A1.444,1.444,0,0,0,106.033,513.421Z" transform="translate(1121.335 248.949)" fill="#e9e1fe"/>
    <path id="Path_14368" data-name="Path 14368" d="M102.977,206.278l-7.11-4.105v67.66l7.11,4.138Z" transform="translate(1121.334 248.949)" fill="#27debf"/>
    <path id="Path_14369" data-name="Path 14369" d="M102.977,206.278l-7.11-4.105v67.66l7.11,4.138Z" transform="translate(1121.334 248.949)" fill="#6127fa"/>
    <path id="Path_14370" data-name="Path 14370" d="M104.077,177.335a7.694,7.694,0,0,0-1.1,3.721v44.811l-7.11-4.106V176.968a4.086,4.086,0,0,1,.017-.453,8.8,8.8,0,0,1,.158-.944,9.213,9.213,0,0,1,.944-2.341Z" transform="translate(1121.335 229.361)" fill="#263238"/>
    <path id="Path_14371" data-name="Path 14371" d="M518.756,34.842V55.054L217.415,229.026c-2.078,1.206-3.773.226-3.773-2.183V219.19c0-2.41-1.7-3.389-3.791-2.183l-91.767,52.985a8.351,8.351,0,0,0-3.791,6.551V284.2a8.381,8.381,0,0,1-3.774,6.551l-10.411,6.01V276.543a8.379,8.379,0,0,1,3.774-6.551l411.1-237.335C517.063,31.453,518.756,32.431,518.756,34.842Z" transform="translate(1124.204 133.873)" fill="#37474f"/>
    <path id="Path_14372" data-name="Path 14372" d="M518.775,375.03a8.351,8.351,0,0,1-3.791,6.551l-411.1,237.335c-2.079,1.206-3.774.226-3.774-2.183V287.509l10.411-6.01c2.079-1.206,5.47-19.55,7.566-20.755l90.233-52.1c2.1-1.206,7.021,12.338,9.1,11.132L518.756,45.806V70.4Z" transform="translate(1124.204 143.121)" fill="#6127fa"/>
    <path id="Path_14373" data-name="Path 14373" d="M518.775,375.03a8.351,8.351,0,0,1-3.791,6.551l-411.1,237.335c-2.079,1.206-3.774.226-3.774-2.183V287.509l10.411-6.01c2.079-1.206,5.47-19.55,7.566-20.755l90.233-52.1c2.1-1.206,7.021,12.338,9.1,11.132L518.756,45.806V70.4Z" transform="translate(1124.204 143.121)" fill="#fff" opacity="0.9"/>
    <g id="Path_14374" data-name="Path 14374" transform="translate(1124.204 143.121)" fill="none" stroke-miterlimit="10" opacity="0">
      <path d="M518.775,375.03a8.351,8.351,0,0,1-3.791,6.551l-411.1,237.335c-2.079,1.206-3.774.226-3.774-2.183V287.509l10.411-6.01c2.079-1.206,5.47-19.55,7.566-20.755l90.233-52.1c2.1-1.206,7.021,12.338,9.1,11.132L518.756,45.806V70.4Z" stroke="none"/>
      <path d="M 102.1989059448242 618.4322509765625 C 102.5413665771484 618.4322509765625 102.9497528076172 618.3004150390625 103.3814392089844 618.0501098632812 L 514.4849243164062 380.7146911621094 C 516.2681274414062 379.6889953613281 517.774658203125 377.0859375 517.774658203125 375.0304565429688 L 517.7562255859375 70.40285491943359 L 517.7562255859375 47.53799438476562 L 217.9173583984375 220.6428527832031 C 217.6759033203125 220.7830047607422 217.4123687744141 220.8540802001953 217.1340637207031 220.8540802001953 C 215.5734405517578 220.8540802001953 214.2380523681641 218.6380004882812 212.0121307373047 214.7210845947266 C 211.2939758300781 213.4574737548828 210.5514373779297 212.1508483886719 209.8846740722656 211.1549987792969 C 209.1934356689453 210.1225433349609 208.7992401123047 209.7533416748047 208.6225433349609 209.6240386962891 L 118.6061401367188 261.5968933105469 C 118.5058441162109 261.6900024414062 118.063362121582 262.2206726074219 117.184211730957 264.86376953125 C 116.5654449462891 266.7239990234375 115.8955993652344 269.1144714355469 115.2478256225586 271.4263000488281 C 113.2302856445312 278.6264038085938 112.2829818725586 281.6316833496094 111.0181350708008 282.3650817871094 L 101.1070556640625 288.0860290527344 L 101.1070556640625 616.7330322265625 C 101.1070556640625 617.2439575195312 101.2134399414062 618.4322509765625 102.1989059448242 618.4322509765625 M 102.1989135742188 619.4321899414062 C 100.9604263305664 619.4321899414062 100.1070556640625 618.442626953125 100.1070556640625 616.7330322265625 L 100.1070556640625 287.5086059570312 L 110.5182113647461 281.4989929199219 C 112.5974426269531 280.2933959960938 115.9878997802734 261.9493103027344 118.0839004516602 260.7436828613281 L 208.3169860839844 208.6457672119141 C 208.4064025878906 208.5943450927734 208.5011749267578 208.5697174072266 208.6004486083984 208.5697174072266 C 210.7287902832031 208.5697174072266 215.0208740234375 219.8540649414062 217.1340637207031 219.8540649414062 C 217.2327728271484 219.8540649414062 217.3265228271484 219.8295135498047 217.415283203125 219.7779998779297 L 518.7562255859375 45.80600357055664 L 518.7562255859375 70.40285491943359 L 518.774658203125 375.0303955078125 C 518.774658203125 377.4416198730469 517.0794677734375 380.3760070800781 514.9835205078125 381.58154296875 L 103.8814392089844 618.9161376953125 C 103.2774963378906 619.266357421875 102.7059173583984 619.4321899414062 102.1989135742188 619.4321899414062 Z" stroke="none" fill="#27debf"/>
    </g>
    <path id="Path_14375" data-name="Path 14375" d="M100.107,302.177v67.692l418.65-241.675V60.475Z" transform="translate(1124.204 153.049)" fill="#b194fd"/>
    <path id="Path_14376" data-name="Path 14376" d="M518.756,45.806V70.4l-418.649,241.7v-24.6l7.775-4.5c2.079-1.206,2.778-3.038,3.774-6.551l2.636-9.159c.832-3.179,1.7-5.346,3.791-6.551l90.233-52.1c2.1-1.206,3.731-1.338,5.326,1.3l3.235,5.872c1.187,2.049,1.781,3.256,3.86,2.051Z" transform="translate(1124.204 143.121)" fill="#f0f0f0"/>
    <path id="Path_14380" data-name="Path 14380" d="M113.557,191.85l-5.938,3.429,2.264-4.355a1.083,1.083,0,0,0,.045-1.063c-.174-.208-.476-.062-.674.319l-3.221,6.2-.008.023a1.446,1.446,0,0,0-.087.23c-.008.025-.02.049-.027.075a1.4,1.4,0,0,0-.042.32.856.856,0,0,0,.042.272.274.274,0,0,0,.027.044.4.4,0,0,0,.087.131l.008.013,3.221,2.477a.272.272,0,0,0,.314,0,.953.953,0,0,0,.361-.459c.174-.407.154-.86-.045-1.011l-2.264-1.741,5.938-3.429a1.255,1.255,0,0,0,.478-1.011C114.035,191.9,113.822,191.7,113.557,191.85Z" transform="translate(1128.104 240.553)" fill="#455a64" opacity="0.5"/>
    <path id="Path_14381" data-name="Path 14381" d="M113.6,192l5.938-3.427-2.264-1.741c-.2-.153-.22-.605-.045-1.011s.476-.61.674-.459l3.221,2.477.008.013a.372.372,0,0,1,.087.129.4.4,0,0,1,.027.045.859.859,0,0,1,.04.272,1.4,1.4,0,0,1-.04.32c-.007.027-.018.05-.027.075a1.509,1.509,0,0,1-.087.23l-.008.023-3.221,6.2a.87.87,0,0,1-.315.362.262.262,0,0,1-.359-.044,1.083,1.083,0,0,1,.045-1.063l2.264-4.355-5.938,3.429c-.265.153-.478-.054-.478-.461A1.258,1.258,0,0,1,113.6,192Z" transform="translate(1133.016 237.537)" fill="#455a64" opacity="0.5"/>
    <path id="Path_14382" data-name="Path 14382" d="M127.7,179.2c-.037-.359-.347-.312-.506.075l-.813,1.989c-1.387-.151-3.067,1.2-4.2,3.607-1.471,3.114-1.471,6.8,0,8.213a2.1,2.1,0,0,0,2.668.158,7.3,7.3,0,0,0,2.666-3.238,1.018,1.018,0,0,0,0-1.04c-.186-.179-.49-.005-.676.391-1.1,2.321-2.884,3.357-3.982,2.3s-1.1-3.808,0-6.132c.781-1.655,1.9-2.633,2.886-2.693l-.612,1.5c-.159.389-.015.751.235.589l2.421-1.581a.78.78,0,0,0,.272-.664Z" transform="translate(1138.396 233.238)" fill="#455a64" opacity="0.5"/>
    <path id="Path_14383" data-name="Path 14383" d="M164.787,152.079l2.163-4.581a1.392,1.392,0,0,0,0-1.427c-.255-.246-.669-.007-.926.535l-2.165,4.583L161.7,149.1c-.257-.245-.671-.007-.927.535a1.392,1.392,0,0,0,0,1.427l2.165,2.083-2.165,4.583a1.392,1.392,0,0,0,0,1.427.364.364,0,0,0,.463.027,1.268,1.268,0,0,0,.464-.562l2.163-4.583,2.165,2.083a.362.362,0,0,0,.463.029,1.261,1.261,0,0,0,.463-.563,1.389,1.389,0,0,0,0-1.425Z" transform="translate(1165.13 210.914)" fill="#455a64" opacity="0.5"/>
    <path id="Path_14384" data-name="Path 14384" d="M129.727,267.628v-7.655a8.36,8.36,0,0,1,3.783-6.551L473.647,57.145c2.089-1.206,3.783-.228,3.783,2.185l0,7.653a8.363,8.363,0,0,1-3.781,6.551L133.51,269.811C131.421,271.017,129.727,270.039,129.727,267.628Z" transform="translate(1144.251 150.447)" fill="#fff"/>
    <g id="Group_13342" data-name="Group 13342" transform="translate(1610.516 210.988)">
      <path id="Path_14385" data-name="Path 14385" d="M332.666,72.384a.735.735,0,0,1-.278-.054.873.873,0,0,1-.473-.979l.379-3.171a.05.05,0,0,1,.007-.025l-1.534-1.108a.865.865,0,0,1-.335-.716,1.535,1.535,0,0,1,.562-1.2l2.222-1.714a.547.547,0,0,0,.151-.253l.993-3.256a1.237,1.237,0,0,1,.981-.946.728.728,0,0,1,.719.434h0l.9,1.9,2.014-.773a.73.73,0,0,1,.827.188,1.211,1.211,0,0,1,.029,1.353l-1.606,3.015a.53.53,0,0,0-.07.278l.379,2.73a1.552,1.552,0,0,1-.429,1.229.9.9,0,0,1-.748.3l-1.987-.247-1.933,2.584A.975.975,0,0,1,332.666,72.384Zm-1.241-6.09,1.533,1.107a.934.934,0,0,1,.327.9l-.314,2.616,1.657-2.108a.952.952,0,0,1,.852-.421l1.989.246c-.03-.032.091-.26.07-.4l-.381-2.731a1.514,1.514,0,0,1,.178-.88l1.6-3.013-1.838.706a.73.73,0,0,1-.954-.382l-.828-1.757-.008.028-.993,3.256a1.515,1.515,0,0,1-.5.751l-2.22,1.712A.6.6,0,0,0,331.425,66.294Z" transform="translate(-330.431 -58.963)" fill="#e0e0e0"/>
    </g>
    <path id="Path_14389" data-name="Path 14389" d="M102.977,191.6v24.6l-7.11-4.105v-24.58Z" transform="translate(1121.334 239.027)" fill="#e0e0e0"/>
    <text id="About_us" data-name="About us" transform="translate(1512.34 343.527) rotate(-31)" fill="#6127fa" font-size="34" font-family="Rubik-Medium, Rubik" font-weight="500"><tspan x="0" y="0">About us</tspan></text>
    <path id="Path_14390" data-name="Path 14390" d="M111.075,281.494l115.79-66.851V403.4L110.739,470.059Z" transform="translate(1131.399 257.389)" fill="#b194fd" opacity="0.1"/>
    <g id="Group_13348" data-name="Group 13348" transform="translate(1378.695 351.242)">
      <path id="Path_14391" data-name="Path 14391" d="M197.263,240.768l139.682-80.645c2.807-1.62,5.082-.391,5.082,2.748a11.126,11.126,0,0,1-5.069,8.642L197.246,253.066c-2.8,1.635-5.067.332-5.067-2.909v-.585A11.235,11.235,0,0,1,197.263,240.768Z" transform="translate(-192.177 -131.234)" fill="#b194fd" opacity="0.15"/>
      <path id="Path_14392" data-name="Path 14392" d="M195.808,276.575,426.94,143.131c2.005-1.157,3.63-.335,3.63,1.838A7.784,7.784,0,0,1,426.939,151L195.808,284.439c-2,1.157-3.63.335-3.63-1.836A7.784,7.784,0,0,1,195.808,276.575Z" transform="translate(-192.178 -142.606)" fill="#b194fd" opacity="0.1"/>
      <path id="Path_14393" data-name="Path 14393" d="M195.808,285.99,426.94,152.548c2.005-1.157,3.63-.335,3.63,1.836a7.787,7.787,0,0,1-3.632,6.03L195.808,293.856c-2,1.157-3.63.335-3.63-1.838A7.79,7.79,0,0,1,195.808,285.99Z" transform="translate(-192.178 -136.233)" fill="#b194fd" opacity="0.1"/>
      <path id="Path_14394" data-name="Path 14394" d="M195.808,295.407,426.94,161.965c2.005-1.159,3.63-.335,3.63,1.836a7.784,7.784,0,0,1-3.632,6.028L195.808,303.271c-2,1.159-3.63.335-3.63-1.836A7.787,7.787,0,0,1,195.808,295.407Z" transform="translate(-192.178 -129.86)" fill="#b194fd" opacity="0.1"/>
      <path id="Path_14395" data-name="Path 14395" d="M195.808,304.825,426.94,171.381c2.005-1.157,3.63-.335,3.63,1.838a7.784,7.784,0,0,1-3.632,6.028L195.808,312.689c-2,1.157-3.63.335-3.63-1.836A7.784,7.784,0,0,1,195.808,304.825Z" transform="translate(-192.178 -123.487)" fill="#b194fd" opacity="0.1"/>
      <path id="Path_14396" data-name="Path 14396" d="M195.808,298.257l161.26-93.843c2.005-1.159,3.63-.335,3.63,1.836a7.788,7.788,0,0,1-3.63,6.03l-161.26,93.843c-2,1.157-3.63.335-3.63-1.838A7.789,7.789,0,0,1,195.808,298.257Z" transform="translate(-192.178 -101.131)" fill="#b194fd" opacity="0.1"/>
      <path id="Path_14397" data-name="Path 14397" d="M195.808,333.075,426.94,199.631c2.005-1.157,3.63-.335,3.63,1.838a7.784,7.784,0,0,1-3.632,6.028L195.808,340.939c-2,1.157-3.63.335-3.63-1.836A7.784,7.784,0,0,1,195.808,333.075Z" transform="translate(-192.178 -104.368)" fill="#b194fd" opacity="0.1"/>
      <path id="Path_14398" data-name="Path 14398" d="M195.808,342.49,426.94,209.048c2.005-1.157,3.63-.335,3.63,1.836a7.787,7.787,0,0,1-3.632,6.03L195.808,350.356c-2,1.157-3.63.335-3.63-1.838A7.79,7.79,0,0,1,195.808,342.49Z" transform="translate(-192.178 -97.994)" fill="#b194fd" opacity="0.1"/>
      <path id="Path_14399" data-name="Path 14399" d="M195.808,351.907,426.94,218.465c2.005-1.159,3.63-.335,3.63,1.836a7.784,7.784,0,0,1-3.632,6.028L195.808,359.771c-2,1.159-3.63.335-3.63-1.836A7.787,7.787,0,0,1,195.808,351.907Z" transform="translate(-192.178 -91.621)" fill="#b194fd" opacity="0.1"/>
      <path id="Path_14400" data-name="Path 14400" d="M195.808,327.47,280.726,277.9c2.005-1.157,3.63-.335,3.63,1.836a7.785,7.785,0,0,1-3.63,6.03l-84.918,49.564c-2,1.157-3.63.335-3.63-1.836A7.784,7.784,0,0,1,195.808,327.47Z" transform="translate(-192.178 -51.393)" fill="#b194fd" opacity="0.1"/>
    </g>
    <g id="Group_13351" data-name="Group 13351" transform="translate(1644.818 461.93)">
      <path id="Path_14401" data-name="Path 14401" d="M397.253,283.18C409.54,243.3,421.5,217.037,409.317,208.9h0c-11.347,2.1-16.429,7.713-18.84,22.67-2.53,15.691-7.789,37.543-10.857,50.165A148.857,148.857,0,0,1,368.295,312.2a6.446,6.446,0,0,1-3.349,2.949c-3.788,1.481-5.606,3.417-8.694,5.622-2.418,1.727-4.2,1.92-4.09,2.646.143.932,1.234,2.614,3.8,2.337a23.225,23.225,0,0,0,5.285-1.7s-2.237,6-6.62,9.665c-5.939,4.967-5.052,9.937,4.512,10.515,3.424.208,11.36-2.914,18.713-15.442a123.545,123.545,0,0,0,6.553-14.442C389.544,301.526,394.795,291.16,397.253,283.18Z" transform="translate(-350.888 -208.423)" fill="#ffa8a7"/>
      <path id="Path_14402" data-name="Path 14402" d="M398.17,208.627s-9.457-.493-15.183,5.825-12.422,44.085-12.422,44.085,6.276,8.624,22.818,5.092Z" transform="translate(-337.571 -208.618)" fill="#27debf"/>
      <path id="Path_14403" data-name="Path 14403" d="M398.17,208.627s-9.457-.493-15.183,5.825-12.422,44.085-12.422,44.085,6.276,8.624,22.818,5.092Z" transform="translate(-337.571 -208.618)" fill="#b194fd"/>
    </g>
    <g id="Group_13352" data-name="Group 13352" transform="translate(1662.625 533.697)">
      <rect id="Rectangle_1819" data-name="Rectangle 1819" width="12.696" height="22.637" transform="translate(74.334 196.128)" fill="#ffa8a7"/>
      <path id="Path_14404" data-name="Path 14404" d="M392.537,377.333l-12.689.455-.635-23.956,13.324-.454Z" transform="translate(-349.525 -182.413)" fill="#ffa8a7"/>
      <path id="Path_14405" data-name="Path 14405" d="M441.534,251.554c0,12.628-1.859,114.248-1.859,114.248.3,3.634,3.566,10.332,2.859,24.288-.962,18.958-2.245,68.774-2.245,68.774a16.115,16.115,0,0,1-14.135.292s-12.009-69-14.285-87.787c-1.985-16.4-5.352-71.6-5.352-71.6l-6.883,64.186a78.157,78.157,0,0,1,1.573,21.015c-.592,8.689-4.675,53.944-4.675,53.944s-5.976,4.224-14.659,1.169c0,0-7.224-68.156-7.369-76.128-.168-9.09,4.222-112.539,4.222-112.539Z" transform="translate(-352.716 -251.418)" fill="#37474f"/>
      <path id="Path_14406" data-name="Path 14406" d="M413.946,378.761v-1.891c-1.216.55-4.038,11.766-9.075,16.552-4,3.8-9.467,8.2-10.857,12.44-1.445,4.412,7.608,6.846,11.349,6.157,4.348-.8,11.883-3.991,13.775-6.945s2.777-7.316,4.313-9.482,5.081-4.584,5.912-7.091c.456-1.377-.086-4.393-.728-6.942-.589-2.337-1.226-4.908-1.992-4.688,0,.285,0,1.44,0,1.44-.922,1.065-3.473,2.121-6.348,2.235C418.437,380.62,413.931,380.236,413.946,378.761Z" transform="translate(-339.612 -166.523)" fill="#263238"/>
      <path id="Path_14407" data-name="Path 14407" d="M391.7,365.853c-.659.023-1.2.993-2.649,2.631a27.842,27.842,0,0,1-7.468,5.6c-4.755,2.478-14,6.293-18.18,8.255-2.614,1.226-2.492,4.514.21,6.385s9.222,3.218,17.055,1.393c4.266-.993,9.819-5.1,13.334-4.874s10.093.168,12.687-1.7,1.556-5.84.823-9.258c-.8-3.732-1.8-9.549-2.986-9.294v1.286c-1.528,2.408-9.4,3.387-12.757,1.615Z" transform="translate(-361.508 -174.557)" fill="#263238"/>
      <path id="Path_14408" data-name="Path 14408" d="M400.729,284.517a46.478,46.478,0,0,1-17.68-10.559s3.411,6.654,13.555,12.844l-2.17,57.319Z" transform="translate(-346.929 -236.163)" fill="#263238"/>
    </g>
    <g id="Group_13353" data-name="Group 13353" transform="translate(1687.037 461.559)">
      <path id="Path_14409" data-name="Path 14409" d="M433.866,211.795s9.935.909,9.231,19.836l-2.2,30.15.062,45.245c-9.336,10.579-50.726,9.8-64.9-.847,0,0,1.6-53.545,2.562-74.148.679-14.648,4.049-22.023,18.446-23.636l17.7.778Z" transform="translate(-376.067 -208.396)" fill="#b194fd"/>
      <path id="Path_14410" data-name="Path 14410" d="M396.776,216.344,394.5,232.239l-5.311-.1,5.991.946Z" transform="translate(-367.188 -203.017)" opacity="0.3"/>
    </g>
    <g id="Group_13356" data-name="Group 13356" transform="translate(1689.146 396.209)">
      <path id="Path_14411" data-name="Path 14411" d="M416.887,192.931c0,10.872-8.463,19.687-18.9,19.687s-18.431-8.825-18.9-19.687c-.833-19.224,8.463-19.686,18.9-19.686S416.887,182.058,416.887,192.931Z" transform="translate(-376.169 -166.838)" fill="#263238"/>
      <g id="Group_13354" data-name="Group 13354">
        <path id="Path_14412" data-name="Path 14412" d="M411.111,190.808s-2.9,14.186-4.061,16.516a6.188,6.188,0,0,1-3.565,2.993l.2-9.979Z" transform="translate(-359.62 -154.951)" fill="#263238"/>
        <path id="Path_14413" data-name="Path 14413" d="M406.6,178.7s2.079-.52,4.286,2.929c1.893,2.958,2.324,9.6-.649,17.393l-5.46.652Z" transform="translate(-358.745 -163.165)" fill="#263238"/>
        <path id="Path_14414" data-name="Path 14414" d="M419.513,203.2c1.095.681,2.658-1.509,4.008-2.981s5.758-3.481,7.958,1.345c2.24,4.918-1.942,11.416-5.413,12.551-5.981,1.955-6.878-2.041-6.878-2.041l-.456,22.471c-7.94,12.281-25.927,11.838-19.459-.6l.017-6.838s-5.419.857-8.062.431c-4.4-.708-7.167-4.323-8.5-9.281-2.143-7.965-2.956-14.4-1.138-30.062,1.994-17.169,21.166-17.348,31.52-10.56S419.513,203.2,419.513,203.2Z" transform="translate(-375.119 -166.686)" fill="#ffa8a7"/>
        <path id="Path_14415" data-name="Path 14415" d="M410.331,208.549a28.8,28.8,0,0,1-7.777,9.742,22.006,22.006,0,0,1-9.408,4s4.658,3.085,6.638,7.453,15.951-7.656,15.826-16.188c0,0-2.193-8.57-5.195-9.12Z" transform="translate(-366.617 -145.728)" fill="#263238"/>
        <path id="Path_14416" data-name="Path 14416" d="M396.971,221.6s-4.308-2.141-2.376-9.3l.017-6.838-1.888.251a16.562,16.562,0,0,0-4.539,7.864c-.433,1.958-1.494,11.88.4,13.852C390.305,229.222,393.111,222.131,396.971,221.6Z" transform="translate(-370.442 -145.035)" fill="#263238"/>
        <path id="Path_14417" data-name="Path 14417" d="M414.369,187.218a2.8,2.8,0,0,1,1.481.1c1.625.738,1.974,5.79,2.259,7.25.961,4.918,1.759,13.255,3.61,13.292.552.01,2.644-3.608,4.008-4.9,1.888-1.789-.547-18-.547-18s1.814-4.029-1.823-8.2c-3.4-3.9-8.743-4.757-13.624-5.027-5.753-.317-11.593.119-17.259-1.139a47.75,47.75,0,0,0-5.406-1.16.663.663,0,0,0-.493.082c-.186.151-.159.436-.111.671a17.487,17.487,0,0,0,1.794,4.861,44.3,44.3,0,0,1-9.938-1.953.964.964,0,0,0-.567-.062c-.381.121-.446.624-.424,1.021.228,4.071,2.158,10.2,5.461,12.589a19.048,19.048,0,0,0,9.811,3.094C401.494,189.966,407.013,188.09,414.369,187.218Z" transform="translate(-377.325 -169.424)" fill="#263238"/>
        <path id="Path_14418" data-name="Path 14418" d="M406.023,181.571l6.622-3.7a3.584,3.584,0,0,0-5.012-1.727A4.2,4.2,0,0,0,406.023,181.571Z" transform="translate(-358.181 -165.182)" fill="#263238"/>
        <path id="Path_14419" data-name="Path 14419" d="M391.739,209.032s9.818-2.061,13.25-3.961a11.565,11.565,0,0,0,4.745-4.89,16.421,16.421,0,0,1-2.695,5.766c-2.51,3.344-15.3,5.805-15.3,5.805Z" transform="translate(-367.569 -148.607)" fill="#f28f8f"/>
      </g>
      <g id="Group_13355" data-name="Group 13355" transform="translate(8.013 23.155)">
        <path id="Path_14420" data-name="Path 14420" d="M393.146,190.537a1.974,1.974,0,1,0,1.967-2.135A2.047,2.047,0,0,0,393.146,190.537Z" transform="translate(-374.63 -179.735)" fill="#263238"/>
        <path id="Path_14421" data-name="Path 14421" d="M395.031,185.169l4.209,2.421a2.687,2.687,0,0,0-.981-3.491A2.3,2.3,0,0,0,395.031,185.169Z" transform="translate(-373.354 -182.852)" fill="#263238"/>
        <path id="Path_14422" data-name="Path 14422" d="M394.082,198.118l-4.492,1.756a2.336,2.336,0,0,0,3.052,1.551A2.651,2.651,0,0,0,394.082,198.118Z" transform="translate(-377.037 -173.159)" fill="#f28f8f"/>
        <path id="Path_14423" data-name="Path 14423" d="M382.57,187.354l3.838-3.079a2.267,2.267,0,0,0-3.337-.533A2.725,2.725,0,0,0,382.57,187.354Z" transform="translate(-382.103 -183.233)" fill="#263238"/>
        <path id="Path_14424" data-name="Path 14424" d="M383.387,190.19a1.974,1.974,0,1,0,1.967-2.136A2.045,2.045,0,0,0,383.387,190.19Z" transform="translate(-381.235 -179.97)" fill="#263238"/>
        <path id="Path_14425" data-name="Path 14425" d="M392.6,188.346l-.228,12.428-7.053-1.618Z" transform="translate(-379.924 -179.773)" fill="#f28f8f"/>
      </g>
    </g>
    <g id="Group_13358" data-name="Group 13358" transform="translate(1741.198 366.967)">
      <path id="Path_14426" data-name="Path 14426" d="M422.656,196.176c2.83-3.758,8.567,4.584,11.221,10.334s2.69,9.006.522,11.288-6.285.9-10.4-4.549S421.038,198.951,422.656,196.176Z" transform="translate(-399.698 -122.711)" fill="#27debf"/>
      <path id="Path_14427" data-name="Path 14427" d="M422.656,196.176c2.83-3.758,8.567,4.584,11.221,10.334s2.69,9.006.522,11.288-6.285.9-10.4-4.549S421.038,198.951,422.656,196.176Z" transform="translate(-399.698 -122.711)" opacity="0.5"/>
      <g id="Group_13357" data-name="Group 13357" transform="translate(1.589)">
        <path id="Path_14428" data-name="Path 14428" d="M450.629,226.568c-10,23.539-24.06,36.7-30.35,51.806-8.245-.562-14.664-20.448-8.526-28.956,0,0,24.119-26.108,26.3-36.368,1.937-9.108,4.542-24.132,4.313-31.822a5.279,5.279,0,0,0-1.482-3.412c-2.53-2.725-2.534-4.911-4.158-7.918-1.268-2.346-2.654-3.223-2.259-3.749a3.029,3.029,0,0,1,4.106-.3,15.426,15.426,0,0,1,3.112,2.986,17.281,17.281,0,0,0-1.422-8.822c-2.809-6.332-2.124-9.563,6.424-7.307,5.356,1.414,8.718,5.875,9.521,18.748a127.267,127.267,0,0,1,.092,16.077c-.927,9.908-1.524,20.234-2.742,28.438A43.37,43.37,0,0,1,450.629,226.568Z" transform="translate(-409.315 -151.984)" fill="#ffa8a7"/>
      </g>
      <path id="Path_14429" data-name="Path 14429" d="M409.956,220.066l21.279-24.308s-2.525,5.929,3.008,14.551,8.825,7.136,8.825,7.136-12.554,18.329-15.923,24.464-6.858,11.307-6.858,11.307-.842,2.166-3.969,2.166S404.919,241.534,409.956,220.066Z" transform="translate(-408.367 -122.358)" fill="#27debf"/>
      <path id="Path_14430" data-name="Path 14430" d="M409.956,220.066l21.279-24.308s-2.525,5.929,3.008,14.551,8.825,7.136,8.825,7.136-12.554,18.329-15.923,24.464-6.858,11.307-6.858,11.307-.842,2.166-3.969,2.166S404.919,241.534,409.956,220.066Z" transform="translate(-408.367 -122.358)" fill="#b194fd"/>
    </g>
    <g id="Group_13362" data-name="Group 13362" transform="translate(1537.475 489.008)">
      <g id="Group_13360" data-name="Group 13360" transform="translate(18.165 30.315)">
        <path id="Path_14431" data-name="Path 14431" d="M312.31,242.846l10.016,13.337-10.758,12.331L297.7,252.3Z" transform="translate(-297.704 -242.846)" fill="#f28f8f"/>
      </g>
      <g id="Group_13361" data-name="Group 13361">
        <path id="Path_14432" data-name="Path 14432" d="M286.871,224.767c8.736.409,12.9,1.761,17.472,7.146,4.465,5.258,27.447,38.467,27.447,38.467s-4.043,11.333-12.889,10.369l-16.087-16.583Z" transform="translate(-286.871 -224.767)" fill="#f7b6fb"/>
      </g>
    </g>
    <g id="Group_13365" data-name="Group 13365" transform="translate(1490.777 567.334)">
      <g id="Group_13363" data-name="Group 13363" transform="translate(0.928 147.968)">
        <path id="Path_14433" data-name="Path 14433" d="M262.306,389.893a64.451,64.451,0,0,0-1,10.518c-.121,6.385-1.294,8.651-1.449,13.891-.178,5.988.857,8.228,3.286,11.593s8.807,6.42,11.5.731c2.728-5.756,2.349-9.415,1.487-15.289-.89-6.072-1-9.425-1.521-14.057-.454-4.083-1-7.183-1-7.183Z" transform="translate(-259.399 -339.304)" fill="#263238"/>
        <path id="Path_14434" data-name="Path 14434" d="M280.607,360.105l-21.032-.382c.312,14.041,2.544,37.414,2.908,50.589.069,2.48-.062,19.27.872,24.37,1.407,7.666,10.505,6.632,10.988,2.044s-.585-24.189-.557-26.21c-.08-8.449,3.88-30.5,5.956-45.666C279.844,364.106,280.511,360.831,280.607,360.105Z" transform="translate(-259.575 -359.723)" fill="#ffbda7"/>
      </g>
      <g id="Group_13364" data-name="Group 13364" transform="translate(48.698 147.968)">
        <path id="Path_14435" data-name="Path 14435" d="M291.692,383.377s-1.088.062-1.259.947c-.2,1.055-.25,2.72-.687,4.45-.609,2.406-1.115,6.368-.751,8.329s4.841,4.881,7.9,5.394,7.381,3.538,9.779,5.795c2.939,2.767,9.279,5.379,13.6,5.347,5.111-.037,8.672-1.7,10.356-4.437,1.757-2.857-1.534-3.068-7.375-6.856-1.326-.86-2.835-1.834-4.532-2.943-9.251-6.043-12.638-9.281-15.255-15.326Z" transform="translate(-287.517 -343.714)" fill="#263238"/>
        <path id="Path_14436" data-name="Path 14436" d="M304.086,396.1c-.156-4.346,2.073-36.375,2.073-36.375l-18.094,2.037c4.277,25.531,4.625,34.228,4.137,37.944h0a3.709,3.709,0,0,0-.112,1.07c.018,4.96,5.616,7.634,9.982,10.941,1.725,1.306,6.157,5.332,11.354,7.1,3.36,1.144,9.574,1.578,10.373-.463-5.314-4.058-12.546-9.36-16.771-13.995C305.008,402.147,304.24,400.446,304.086,396.1Z" transform="translate(-288.064 -359.723)" fill="#ffbda7"/>
      </g>
      <path id="Path_14437" data-name="Path 14437" d="M264.827,274.632c-9.87,21.557.355,97.494.355,97.494-.3,3.5-4.3,10.381-5.787,25.777-1.761,18.192,3.251,66.892,3.251,66.892s4.806,3.593,11.776.252c0,0,12.735-71.557,15.016-89.645,1.992-15.785,5.813-50.495,5.813-50.495l10.862,50.409a93.832,93.832,0,0,0-3.441,15.579c-1.031,10.639,9.33,64.035,9.33,64.035s4.848,2.559,11.734-.228c0,0,4.591-68.983,5.552-81.8,1.615-21.523-4.1-88.684-8.05-101.424Z" transform="translate(-259.021 -271.478)" fill="#27debf"/>
      <path id="Path_14438" data-name="Path 14438" d="M264.827,274.632c-9.87,21.557.355,97.494.355,97.494-.3,3.5-4.3,10.381-5.787,25.777-1.761,18.192,3.251,66.892,3.251,66.892s4.806,3.593,11.776.252c0,0,12.735-71.557,15.016-89.645,1.992-15.785,5.813-50.495,5.813-50.495l10.862,50.409a93.832,93.832,0,0,0-3.441,15.579c-1.031,10.639,9.33,64.035,9.33,64.035s4.848,2.559,11.734-.228c0,0,4.591-68.983,5.552-81.8,1.615-21.523-4.1-88.684-8.05-101.424Z" transform="translate(-259.021 -271.478)" fill="#355389"/>
      <path id="Path_14439" data-name="Path 14439" d="M280.629,314.889l3.2-20.021s13.557-2.809,19.7-8.589c0,0-6.451,8.023-16.03,10.651l-3.6,15.416,6.291,46.675Z" transform="translate(-244.398 -261.46)" opacity="0.2"/>
    </g>
    <g id="Group_13370" data-name="Group 13370" transform="translate(1493.466 423.934)">
      <g id="Group_13369" data-name="Group 13369">
        <path id="Path_14440" data-name="Path 14440" d="M265.5,243.656l13.429,3.5V218.772h0c-7.416-1.932-13.429,2.346-13.429,9.554Z" transform="translate(-257.324 -164.063)" fill="#27debf"/>
        <path id="Path_14441" data-name="Path 14441" d="M265.5,243.656l13.429,3.5V218.772h0c-7.416-1.932-13.429,2.346-13.429,9.554Z" transform="translate(-257.324 -164.063)" opacity="0.6"/>
        <path id="Path_14442" data-name="Path 14442" d="M293.785,244.7l-4.819-.111c-14.684-.335-26.324-13.007-26-28.3h0c-.084-16.667,12.9-30.246,28.9-30.333h0c16-.087,29.042,13.354,29.124,30.021l-.04,1.72C320.589,232.962,308.439,245.038,293.785,244.7Z" transform="translate(-259.045 -185.958)" fill="#27debf"/>
        <path id="Path_14443" data-name="Path 14443" d="M293.785,244.7l-4.819-.111c-14.684-.335-26.324-13.007-26-28.3h0c-.084-16.667,12.9-30.246,28.9-30.333h0c16-.087,29.042,13.354,29.124,30.021l-.04,1.72C320.589,232.962,308.439,245.038,293.785,244.7Z" transform="translate(-259.045 -185.958)" opacity="0.6"/>
        <path id="Path_14444" data-name="Path 14444" d="M271.718,191.246a3.628,3.628,0,0,0-4.646-2.611l1.286,4.957a3.745,3.745,0,0,0-.968-.845,3.579,3.579,0,0,0-5.047,1.611l6.539,3.853a4.264,4.264,0,0,0,.436-2.145A4.135,4.135,0,0,0,271.718,191.246Z" transform="translate(-259.462 -184.266)" fill="#27debf"/>
        <path id="Path_14445" data-name="Path 14445" d="M271.718,191.246a3.628,3.628,0,0,0-4.646-2.611l1.286,4.957a3.745,3.745,0,0,0-.968-.845,3.579,3.579,0,0,0-5.047,1.611l6.539,3.853a4.264,4.264,0,0,0,.436-2.145A4.135,4.135,0,0,0,271.718,191.246Z" transform="translate(-259.462 -184.266)" opacity="0.6"/>
        <g id="Group_13366" data-name="Group 13366" transform="translate(0 64.542)">
          <path id="Path_14446" data-name="Path 14446" d="M280.81,226.139s-9.71,1.377-13.428,2.582c5.2,12.749-2.958,32.443-2.958,32.443l7.693,23.686c-5.305,10.886-9.7,16.287-11.493,25.132,4.891,9.559,39.453,18.686,61.949,1.259,0,0-.728-24.2-3.593-38.3,7.37-14.375,6.167-18.591,4.663-23.6-3.5-11.657-10.574-16.141-19.01-24.355l-5.086-.533Z" transform="translate(-260.625 -224.449)" fill="#f7b6fb"/>
        </g>
        <path id="Path_14447" data-name="Path 14447" d="M273.01,289.35c4.169-4.284,13.022-5.5,13.022-5.5l-8.121-4.635L268.8,257.251a50.257,50.257,0,0,0,5.473-24.169l-5.221-1.253c.632,11.615-4.631,24.34-4.631,24.34l7.693,23.686c-5.305,10.886-9.7,16.287-11.493,25.132,3.347,6.544,20.6,12.879,38.367,10.639C275.185,314.037,268.991,293.48,273.01,289.35Z" transform="translate(-260.625 -154.913)" fill="#263238"/>
        <g id="Group_13367" data-name="Group 13367" transform="translate(36.433 160.82)">
          <path id="Path_14448" data-name="Path 14448" d="M282.353,281.973c.324-.03.647-.07.971-.106A6.489,6.489,0,0,0,282.353,281.973Z" transform="translate(-282.353 -281.867)" fill="#e6e6e6"/>
        </g>
        <g id="Group_13368" data-name="Group 13368" transform="translate(11.493 14.882)">
          <path id="Path_14449" data-name="Path 14449" d="M307.132,194.833c2.887,2.649,6.494,8.4,6.2,25.212-.245,14.246-4.66,17.789-6.88,18.815s-6.518.434-10.695-.268l-.05,5.9s5.508,6.107,5.164,10.031-7.836,5.548-13.253,1.749A50.982,50.982,0,0,1,277.6,246.128l-.057-17.923s-2.445,2.5-6.628-1.273c-3.454-3.112-4.638-8.386-1.974-11.233s7.621-2.1,9.541,1.927a54.334,54.334,0,0,0,18.311-5.391C304.576,208.164,307.694,200.8,307.132,194.833Z" transform="translate(-267.479 -194.833)" fill="#ffbda7"/>
          <path id="Path_14450" data-name="Path 14450" d="M285.731,208.636a1.725,1.725,0,1,1-1.816-1.764A1.8,1.8,0,0,1,285.731,208.636Z" transform="translate(-257.452 -186.687)" fill="#263238"/>
          <path id="Path_14451" data-name="Path 14451" d="M284.766,215.042l4.475,1.46a2.3,2.3,0,0,1-2.9,1.685A2.578,2.578,0,0,1,284.766,215.042Z" transform="translate(-255.845 -181.156)" fill="#f79776"/>
          <path id="Path_14452" data-name="Path 14452" d="M295.6,205.272l-4.061-1.387a1.986,1.986,0,0,1,2.584-1.435A2.381,2.381,0,0,1,295.6,205.272Z" transform="translate(-251.199 -189.753)" fill="#263238"/>
          <path id="Path_14453" data-name="Path 14453" d="M274.071,207.416l-.047,6.026a2.828,2.828,0,0,0,2.938-2.876A3.111,3.111,0,0,0,274.071,207.416Z" transform="translate(-263.049 -186.317)" fill="#27debf"/>
          <path id="Path_14454" data-name="Path 14454" d="M274.071,207.416l-.047,6.026a2.828,2.828,0,0,0,2.938-2.876A3.111,3.111,0,0,0,274.071,207.416Z" transform="translate(-263.049 -186.317)" opacity="0.6"/>
          <path id="Path_14455" data-name="Path 14455" d="M294.505,208.284a1.725,1.725,0,1,1-1.816-1.764A1.8,1.8,0,0,1,294.505,208.284Z" transform="translate(-251.514 -186.925)" fill="#263238"/>
          <path id="Path_14456" data-name="Path 14456" d="M287.44,206.115l-.044,11.673,5.44-1.787Z" transform="translate(-253.999 -187.198)" fill="#f79776"/>
          <path id="Path_14457" data-name="Path 14457" d="M290.357,223.737c-4.4-.577-13.463-3.236-14.892-6.954a9.7,9.7,0,0,0,3.2,4.737c2.715,2.4,11.67,5.091,11.67,5.091Z" transform="translate(-262.074 -179.977)" fill="#f79776"/>
        </g>
      </g>
    </g>
    <g id="Group_13371" data-name="Group 13371" transform="translate(1458.867 492.197)">
      <path id="Path_14458" data-name="Path 14458" d="M258.745,261.029s10.76,15.287,12.611,17.286,3.11,1.333,5.109.444a58.563,58.563,0,0,1,7.48-2.443c3.29-.815,4,2.222.739,4.386-2.356,1.566-5.052,2.25-3.924,3.536s4.611,3.536,7.849,4.814c7.941,3.131,7.328,4.7,5.865,7.276-1.273,2.24-4.983,7.071-19.189,1.367-5.86-2.354-14.115-9.043-18.007-13.356-5.617-6.224-14.378-17.375-14.378-17.375Z" transform="translate(-238.022 -203.415)" fill="#ffbda7"/>
      <path id="Path_14459" data-name="Path 14459" d="M283.416,226.669c-3.9.26-11.218,1.2-20.407,16.456-8.06,13.381-20.549,31.54-22.871,38.033-.937,2.617,2.725,8.077,7.427,13.657,6.434-.28,12.284-4.724,15.319-8.278a30.385,30.385,0,0,0-2.966-5.388l18.852-21.5s7.16-6.556,8.659-15.143C289.035,235.313,288.536,228.029,283.416,226.669Z" transform="translate(-239.991 -226.669)" fill="#f7b6fb"/>
    </g>
    <g id="Group_13379" data-name="Group 13379" transform="translate(1548.553 520.439)">
      <g id="Group_13372" data-name="Group 13372" transform="translate(0 0.698)">
        <path id="Path_14460" data-name="Path 14460" d="M352.739,243.928l-46.47,12.239-12.791,52.578,44.18-12.832Z" transform="translate(-293.478 -243.928)" fill="#27debf"/>
        <path id="Path_14461" data-name="Path 14461" d="M352.739,243.928l-46.47,12.239-12.791,52.578,44.18-12.832Z" transform="translate(-293.478 -243.928)" opacity="0.25"/>
      </g>
      <g id="Group_13373" data-name="Group 13373" transform="translate(38.263 37.931)" opacity="0.1">
        <path id="Path_14462" data-name="Path 14462" d="M316.3,266.133a9.211,9.211,0,0,0,8.691,5.193l.337-1.162Z" transform="translate(-316.297 -266.133)"/>
      </g>
      <g id="Group_13374" data-name="Group 13374" transform="translate(25.467 6.514)" opacity="0.1">
        <path id="Path_14463" data-name="Path 14463" d="M328.461,249.931s.173-.793.384-1.772-2.515-1.02-6.092-.092l-6.846,1.774c-3.575.927-6.645,2.473-6.858,3.452l-.382,1.772Z" transform="translate(-308.666 -247.397)"/>
      </g>
      <g id="Group_13375" data-name="Group 13375" transform="translate(24.639)">
        <path id="Path_14464" data-name="Path 14464" d="M332.365,245.9c.134-.612-.971-.771-2.468-.359l-2.711.75s.808-3.833-5.208-2.493-7.331,5.693-7.331,5.693l-2.894.822c-1.6.454-3.048,1.316-3.236,1.925l-.344,1.1,23.938-6.3S332.231,246.51,332.365,245.9Z" transform="translate(-308.172 -243.512)" fill="#37474f"/>
      </g>
      <g id="Group_13376" data-name="Group 13376" transform="translate(29.631 3.544)">
        <path id="Path_14465" data-name="Path 14465" d="M327.053,246.359c-2.193.528-3.105.82-3.432,2.329-.376,1.724-.528,2.988-.528,2.988l-10.594,2.8s.511-2.183.676-3.033-.2-1.363-1.883-.917l-.143-.674,16.6-4.227Z" transform="translate(-311.149 -245.625)" fill="#37474f"/>
      </g>
      <g id="Group_13377" data-name="Group 13377" transform="translate(26.104 6.681)">
        <path id="Path_14466" data-name="Path 14466" d="M328.841,250.031l.384-1.772c.211-.979-2.515-1.021-6.092-.094l-6.846,1.776c-3.577.927-6.647,2.473-6.858,3.451l-.382,1.774Z" transform="translate(-309.046 -247.496)" fill="#37474f"/>
      </g>
      <g id="Group_13378" data-name="Group 13378" transform="translate(37.284 16.541)">
        <path id="Path_14467" data-name="Path 14467" d="M332.793,254.412s-1.737,5.946-2.135,7.363-5.6,3.962-9.019,4.9-7.153,2.051-5.537,6.828c1.491,4.4,7.111,5.408,9.974,5.284s6.779-2.859,8.324-7.269c1.969-5.624.907-11.63,1.69-14.915S334.5,252.454,332.793,254.412Z" transform="translate(-315.713 -253.376)" fill="#ffbda7"/>
      </g>
    </g>
    <g id="Group_13381" data-name="Group 13381" transform="translate(1334.725 535.707)">
      <path id="Path_14468" data-name="Path 14468" d="M258.138,256.324c-6.373-6.422-8.651-3.925-9.457,3.117a31.737,31.737,0,0,1-2.126,8.605,15.845,15.845,0,0,0-1.2-4.247c-1.108-2.146-2.981-2.2-3.781-1.863-.624.262.146,1.754.049,4.479-.126,3.494-1.254,5.426-.438,9.135a5.933,5.933,0,0,1-.625,4.091c-3.437,6.362-14.41,18.143-22.14,26.617-6.835-6.176-22.124-19.987-29.441-26.582-10.041-9.046-13.315-13.126-23.026-12.46a26.082,26.082,0,0,1,8.262,4.95c4.5,3.806,3.429,25.591,3.429,25.591s33.4,23.955,36.839,26.233c.5.335,1.02.637,1.531.91a8.22,8.22,0,0,0,10.009-1.922c7.133-8.153,17.522-24.193,23.534-32.533A101.816,101.816,0,0,0,256.82,277.8C262.786,266.027,262.132,260.346,258.138,256.324Z" transform="translate(-165.955 -252.618)" fill="#914f4e"/>
      <path id="Path_14469" data-name="Path 14469" d="M166.545,261.09a16.707,16.707,0,0,1,13.436,3.292c5.731,4.351,30.12,26.777,30.12,26.777s.662,11.878-11.731,18.969l-29.979-21.141Z" transform="translate(-165.556 -247.088)" fill="#27debf"/>
      <path id="Path_14470" data-name="Path 14470" d="M166.545,261.09a16.707,16.707,0,0,1,13.436,3.292c5.731,4.351,30.12,26.777,30.12,26.777s.662,11.878-11.731,18.969l-29.979-21.141Z" transform="translate(-165.556 -247.088)" fill="#d57adb"/>
    </g>
    <g id="Group_13382" data-name="Group 13382" transform="translate(1291.216 621.85)">
      <rect id="Rectangle_1820" data-name="Rectangle 1820" width="12.696" height="22.637" transform="translate(2.889 196.127)" fill="#914f4e"/>
      <path id="Path_14471" data-name="Path 14471" d="M167.982,429.906l12.689.455.635-23.956-13.324-.454Z" transform="translate(-121.074 -234.986)" fill="#914f4e"/>
      <path id="Path_14472" data-name="Path 14472" d="M141.108,304.127c0,12.628,1.86,114.248,1.86,114.248-.3,3.634-3.567,10.332-2.859,24.288.962,18.958,2.245,68.774,2.245,68.774a16.115,16.115,0,0,0,14.135.292s12.009-69,14.285-87.787c1.985-16.4,5.352-71.6,5.352-71.6l6.883,64.186a78.158,78.158,0,0,0-1.573,21.015c.592,8.689,4.675,53.944,4.675,53.944s5.976,4.224,14.66,1.169c0,0,7.222-68.156,7.368-76.128.168-9.09-4.222-112.539-4.222-112.539Z" transform="translate(-140.006 -303.991)" fill="#6127fa"/>
      <path id="Path_14473" data-name="Path 14473" d="M155.593,431.332v-1.89c1.214.55,4.038,11.766,9.075,16.552,4,3.8,9.467,8.2,10.857,12.44,1.445,4.412-7.608,6.846-11.348,6.157-4.348-.8-11.883-3.991-13.775-6.945s-2.777-7.316-4.314-9.482-5.079-4.584-5.911-7.091c-.456-1.377.086-4.393.728-6.942.589-2.337,1.226-4.908,1.992-4.688,0,.283,0,1.44,0,1.44.922,1.065,3.473,2.12,6.348,2.235C151.1,433.192,155.608,432.808,155.593,431.332Z" transform="translate(-140.007 -219.096)" fill="#263238"/>
      <path id="Path_14474" data-name="Path 14474" d="M182.349,418.426c.659.023,1.2.993,2.649,2.631a27.843,27.843,0,0,0,7.468,5.6c4.755,2.478,14,6.291,18.18,8.255,2.614,1.226,2.492,4.514-.21,6.384s-9.222,3.219-17.055,1.4c-4.266-.994-9.819-5.1-13.334-4.878s-10.093.169-12.687-1.694-1.556-5.84-.823-9.259c.8-3.731,1.8-9.548,2.986-9.293v1.286c1.528,2.406,9.4,3.387,12.757,1.615Z" transform="translate(-122.617 -227.13)" fill="#263238"/>
      <path id="Path_14475" data-name="Path 14475" d="M161.548,337.09a46.478,46.478,0,0,0,17.68-10.559s-3.411,6.654-13.555,12.844l2.17,57.319Z" transform="translate(-125.428 -288.736)" fill="#263238"/>
    </g>
    <g id="Group_13383" data-name="Group 13383" transform="translate(1289.657 549.711)">
      <path id="Path_14476" data-name="Path 14476" d="M148.344,264.368s-9.935.909-9.231,19.836l2.2,30.15L141.1,359.6c9.338,10.579,50.726,9.8,64.9-.847,0,0-1.46-53.545-2.418-74.148-.679-14.648-4.049-22.023-18.446-23.636l-17.7.778Z" transform="translate(-139.078 -260.969)" fill="#d57adb"/>
      <path id="Path_14477" data-name="Path 14477" d="M161.429,268.917l2.279,15.895,5.311-.1-5.991.946Z" transform="translate(-123.951 -255.59)" opacity="0.3"/>
    </g>
    <g id="Group_13384" data-name="Group 13384" transform="translate(1265.577 553.002)">
      <path id="Path_14478" data-name="Path 14478" d="M126.551,327.757c5.151-41.412,17-62,31.441-64.417l-1.023,26.495s-9.7,22.12-13.748,43.841c-1.9,10.195-4.1,27.919-3.528,36.631a6.45,6.45,0,0,0,1.844,4.063c2.847,2.9,3.711,5.414,5.624,8.694,1.5,2.565,3.042,3.474,2.644,4.09-.513.791-2.2,1.878-4.422.575a23.253,23.253,0,0,1-4.123-3.717s-.421,6.39,2.073,11.53c3.38,6.967,2.817,10.641-6.541,8.589-5.864-1.286-10.093-7.472-11.662-21.912a125.921,125.921,0,0,1-.29-16.188C125.41,352.225,125.52,336.044,126.551,327.757Z" transform="translate(-124.717 -262.655)" fill="#914f4e"/>
      <path id="Path_14479" data-name="Path 14479" d="M157.583,262.932c-7.5-.029-14.345,1.289-19.784,11.769-5.218,10.052-9.232,31.343-11.258,38.293,0,0,10.953,6.472,21.022,6.316l7.1-24.624S159.451,283.193,157.583,262.932Z" transform="translate(-123.482 -262.932)" fill="#27debf"/>
      <path id="Path_14480" data-name="Path 14480" d="M157.583,262.932c-7.5-.029-14.345,1.289-19.784,11.769-5.218,10.052-9.232,31.343-11.258,38.293,0,0,10.953,6.472,21.022,6.316l7.1-24.624S159.451,283.193,157.583,262.932Z" transform="translate(-123.482 -262.932)" fill="#d57adb"/>
    </g>
    <g id="Group_13387" data-name="Group 13387" transform="translate(1297.624 480.598)">
      <path id="Path_14481" data-name="Path 14481" d="M154.278,245.453c0,10.874,8.463,19.687,18.9,19.687s18.9-8.813,18.9-19.687-8.463-19.686-18.9-19.686S154.278,234.58,154.278,245.453Z" transform="translate(-136.757 -215.68)" fill="#263238"/>
      <g id="Group_13385" data-name="Group 13385">
        <path id="Path_14482" data-name="Path 14482" d="M147.108,243.381s2.9,14.186,4.061,16.516a6.188,6.188,0,0,0,3.565,2.993l-.2-9.979Z" transform="translate(-141.609 -203.76)" fill="#263238"/>
        <path id="Path_14483" data-name="Path 14483" d="M151.613,231.272s-2.078-.52-4.286,2.929c-1.893,2.958-2.324,9.6.649,17.393l5.46.652Z" transform="translate(-142.477 -211.973)" fill="#263238"/>
        <path id="Path_14484" data-name="Path 14484" d="M156.425,255.773c-1.095.681-2.658-1.509-4.008-2.981s-5.758-3.483-7.958,1.343c-2.24,4.92,1.942,11.417,5.413,12.552,5.979,1.955,6.878-2.041,6.878-2.041l.456,22.471c7.94,12.281,25.927,11.838,19.459-.6l-.017-6.838s5.419.857,8.064.431c4.4-.708,7.165-4.323,8.5-9.281,2.143-7.965,2.956-14.4,1.139-30.062-1.994-17.169-21.166-17.348-31.52-10.56S156.425,255.773,156.425,255.773Z" transform="translate(-143.829 -215.494)" fill="#914f4e"/>
        <path id="Path_14485" data-name="Path 14485" d="M153.877,261.122a28.8,28.8,0,0,0,7.777,9.742,22.032,22.032,0,0,0,9.408,4s-4.658,3.085-6.638,7.453-15.951-7.656-15.826-16.188c0,0,2.193-8.57,5.195-9.12Z" transform="translate(-140.601 -194.536)" fill="#263238"/>
        <path id="Path_14486" data-name="Path 14486" d="M161.995,274.17s4.308-2.141,2.376-9.3l-.017-6.838,1.888.252a16.562,16.562,0,0,1,4.539,7.864c.433,1.958,1.494,11.88-.4,13.85C168.66,281.793,165.855,274.7,161.995,274.17Z" transform="translate(-131.534 -193.843)" fill="#263238"/>
        <path id="Path_14487" data-name="Path 14487" d="M153.248,261.949c-.552.012-2.644-3.607-4.008-4.9-1.888-1.789.547-18,.547-18s-1.814-4.029,1.823-8.2c2.587-2.966,6.912-3.295,14.295-4.5a79.657,79.657,0,0,0,8.753-1.578c3-.85,5.954-2.842,8.749-4.259a4.31,4.31,0,0,1,2.961-.682,2.9,2.9,0,0,1,1.883,2.141,8.505,8.505,0,0,1,.055,2.973c1.71-1.89,5.052-1.611,6.8.243a6.935,6.935,0,0,1,1.061,7.165,12.722,12.722,0,0,1-4.953,5.664c-9.279,6.264-20.229,4.526-30.617,3.295a2.8,2.8,0,0,0-1.481.1c-1.623.738-1.974,5.79-2.259,7.25C155.9,253.576,155.1,261.912,153.248,261.949Z" transform="translate(-140.652 -219.752)" fill="#263238"/>
        <path id="Path_14488" data-name="Path 14488" d="M151.957,234.144l-6.622-3.7a3.583,3.583,0,0,1,5.012-1.727A4.2,4.2,0,0,1,151.957,234.144Z" transform="translate(-142.809 -213.99)" fill="#263238"/>
        <path id="Path_14489" data-name="Path 14489" d="M170.665,261.605s-9.818-2.061-13.252-3.961a11.57,11.57,0,0,1-4.744-4.889,16.42,16.42,0,0,0,2.695,5.766c2.51,3.344,15.3,5.805,15.3,5.805Z" transform="translate(-137.845 -197.415)" fill="#783736"/>
      </g>
      <g id="Group_13386" data-name="Group 13386" transform="translate(21.4 27.249)">
        <path id="Path_14490" data-name="Path 14490" d="M162.872,242.762a1.974,1.974,0,1,1-1.969-2.135A2.047,2.047,0,0,1,162.872,242.762Z" transform="translate(-155.003 -232.873)" fill="#263238"/>
        <path id="Path_14491" data-name="Path 14491" d="M161.081,237.375l-4.209,2.42a2.688,2.688,0,0,1,.981-3.491A2.3,2.3,0,0,1,161.081,237.375Z" transform="translate(-156.591 -236.003)" fill="#263238"/>
        <path id="Path_14492" data-name="Path 14492" d="M162.929,250.691l4.492,1.756A2.336,2.336,0,0,1,164.369,254,2.651,2.651,0,0,1,162.929,250.691Z" transform="translate(-152.397 -226.061)" fill="#783736"/>
        <path id="Path_14493" data-name="Path 14493" d="M174.791,239.694l-4.423-2.155a2.268,2.268,0,0,1,3.136-1.258A2.725,2.725,0,0,1,174.791,239.694Z" transform="translate(-147.267 -235.974)" fill="#263238"/>
        <path id="Path_14494" data-name="Path 14494" d="M172.854,242.762a1.973,1.973,0,1,1-1.967-2.135A2.046,2.046,0,0,1,172.854,242.762Z" transform="translate(-148.247 -232.873)" fill="#263238"/>
        <path id="Path_14495" data-name="Path 14495" d="M164.618,240.993l.228,12.428L171.9,251.8Z" transform="translate(-151.158 -232.625)" fill="#783736"/>
      </g>
    </g>
    <g id="Group_13390" data-name="Group 13390" transform="translate(1308.582 511.602)">
      <g id="Group_13388" data-name="Group 13388" transform="translate(9.462)">
        <path id="Path_14496" data-name="Path 14496" d="M161.81,239.24a4.915,4.915,0,0,0,0,9.828h.9a4.915,4.915,0,0,0,0-9.828Zm-5.8,4.913a5.864,5.864,0,0,1,5.8-5.911h.9a5.913,5.913,0,0,1,0,11.823h-.9A5.865,5.865,0,0,1,156.007,244.153Z" transform="translate(-156.007 -238.242)" fill="#263238"/>
      </g>
      <g id="Group_13389" data-name="Group 13389" transform="translate(27.152)">
        <path id="Path_14497" data-name="Path 14497" d="M172.36,239.24a4.915,4.915,0,0,0,0,9.828h.9a4.915,4.915,0,0,0,0-9.828Zm-5.8,4.913a5.866,5.866,0,0,1,5.8-5.911h.9a5.913,5.913,0,0,1,0,11.823h-.9A5.866,5.866,0,0,1,166.557,244.153Z" transform="translate(-166.557 -238.242)" fill="#263238"/>
      </g>
      <path id="Path_14498" data-name="Path 14498" d="M163.756,242.119a3.806,3.806,0,0,1,3.065-1.591,3.088,3.088,0,0,1,2.674,1.028l.78-.6a3.979,3.979,0,0,0-3.5-1.422,4.734,4.734,0,0,0-3.85,2.067Z" transform="translate(-141.866 -237.374)" fill="#263238"/>
      <rect id="Rectangle_1821" data-name="Rectangle 1821" width="10.001" height="0.997" transform="translate(0 4.697)" fill="#263238"/>
    </g>
  </g>
</svg>
